<svg xmlns="http://www.w3.org/2000/svg" width="500" height="500" viewBox="0 0 499.99998 499.99998" fill="none"><g transform="translate(0 -552.362)" fill="#92a4af"><rect width="490.167" height="13.564" x="4.917" y="795.58" ry="4.844"/><rect ry="4.844" y="610.905" x="-814.949" height="13.564" width="490.167" transform="rotate(-60)"/><rect transform="rotate(-120)" width="490.167" height="13.564" x="-1064.949" y="-191.457" ry="4.844"/><rect width="217.439" height="13" x="141.28" y="609.362" ry="4.643"/><rect ry="4.643" y="704.362" x="198.291" height="13" width="103.418"/><rect ry="4.643" y="982.362" x="141.28" height="13" width="217.439"/><rect width="103.418" height="13" x="198.291" y="887.362" ry="4.643"/><g transform="rotate(-60 250 802.362)"><rect ry="4.643" y="609.362" x="141.28" height="13" width="217.439"/><rect width="103.418" height="13" x="198.291" y="704.362" ry="4.643"/><rect width="217.439" height="13" x="141.28" y="982.362" ry="4.643"/><rect ry="4.643" y="887.362" x="198.291" height="13" width="103.418"/></g><g transform="rotate(-120 250 802.362)"><rect width="217.439" height="13" x="141.28" y="609.362" ry="4.643"/><rect ry="4.643" y="704.362" x="198.291" height="13" width="103.418"/><rect ry="4.643" y="982.362" x="141.28" height="13" width="217.439"/><rect width="103.418" height="13" x="198.291" y="887.362" ry="4.643"/></g></g></svg>