<svg xmlns="http://www.w3.org/2000/svg" width="499.99998" height="499.99998" fill="none"><rect id="backgroundrect" width="100%" height="100%" x="0" y="0" fill="none" stroke="none"/><g class="currentLayer" style=""><title>Layer 1</title><g fill="#ffffff" id="svg_1" class="selected" fill-opacity="1"><rect width="490.1669921875" height="13.564000129699707" x="4.916999816894531" y="243.218017578125" ry="4.843999862670898" id="svg_2" fill="#ffffff" fill-opacity="1"/><rect ry="4.843999862670898" y="58.54302978515625" x="-814.948974609375" height="13.564000129699707" width="490.1669921875" transform="rotate(-60 0,-552.3619995117188) " id="svg_3" fill="#ffffff" fill-opacity="1"/><rect transform="rotate(-120 1.5158245029548806e-13,-552.3619995117188) " width="490.1669921875" height="13.564000129699707" x="-1064.948974609375" y="-743.8190002441406" ry="4.843999862670898" id="svg_4" fill="#ffffff" fill-opacity="1"/><rect width="217.43899536132812" height="13" x="141.27999877929688" y="57" ry="4.64300012588501" id="svg_5" fill="#ffffff" fill-opacity="1"/><rect ry="4.64300012588501" y="152" x="198.29100036621094" height="13" width="103.41799926757812" id="svg_6" fill="#ffffff" fill-opacity="1"/><rect ry="4.64300012588501" y="430" x="141.27999877929688" height="13" width="217.43899536132812" id="svg_7" fill="#ffffff" fill-opacity="1"/><rect width="103.41799926757812" height="13" x="198.29100036621094" y="335" ry="4.64300012588501" id="svg_8" fill="#ffffff" fill-opacity="1"/><g transform="rotate(-60 250,250.00000000000003) " id="svg_9" fill="#ffffff" fill-opacity="1"><rect ry="4.64300012588501" y="57" x="141.27999877929688" height="13" width="217.43899536132812" id="svg_10" fill="#ffffff" fill-opacity="1"/><rect width="103.41799926757812" height="13" x="198.29100036621094" y="152" ry="4.64300012588501" id="svg_11" fill="#ffffff" fill-opacity="1"/><rect width="217.43899536132812" height="13" x="141.27999877929688" y="430" ry="4.64300012588501" id="svg_12" fill="#ffffff" fill-opacity="1"/><rect ry="4.64300012588501" y="335" x="198.29100036621094" height="13" width="103.41799926757812" id="svg_13" fill="#ffffff" fill-opacity="1"/></g><g transform="rotate(-120 250,250) " id="svg_14" fill="#ffffff" fill-opacity="1"><rect width="217.43899536132812" height="13" x="141.27999877929688" y="57" ry="4.64300012588501" id="svg_15" fill="#ffffff" fill-opacity="1"/><rect ry="4.64300012588501" y="152" x="198.29100036621094" height="13" width="103.41799926757812" id="svg_16" fill="#ffffff" fill-opacity="1"/><rect ry="4.64300012588501" y="430" x="141.27999877929688" height="13" width="217.43899536132812" id="svg_17" fill="#ffffff" fill-opacity="1"/><rect width="103.41799926757812" height="13" x="198.29100036621094" y="335" ry="4.64300012588501" id="svg_18" fill="#ffffff" fill-opacity="1"/></g></g></g></svg>