<?xml version="1.0" encoding="UTF-8" standalone="no"?>
<svg
   xmlns:dc="http://purl.org/dc/elements/1.1/"
   xmlns:cc="http://creativecommons.org/ns#"
   xmlns:rdf="http://www.w3.org/1999/02/22-rdf-syntax-ns#"
   xmlns:svg="http://www.w3.org/2000/svg"
   xmlns="http://www.w3.org/2000/svg"
   xmlns:sodipodi="http://sodipodi.sourceforge.net/DTD/sodipodi-0.dtd"
   xmlns:inkscape="http://www.inkscape.org/namespaces/inkscape"
   viewBox="0 0 1866.24 1866.24"
   height="1866.24"
   width="1866.24"
   id="svg2"
   version="1.1"
   sodipodi:docname="organice.svg"
   inkscape:export-filename="/home/munen/src/200ok/organice/src/components/HeaderBar/organice.svg.png"
   inkscape:export-xdpi="100"
   inkscape:export-ydpi="100"
   inkscape:version="0.92.4 (5da689c313, 2019-01-14)">
  <sodipodi:namedview
     pagecolor="#ffffff"
     bordercolor="#666666"
     borderopacity="1"
     objecttolerance="10"
     gridtolerance="10"
     guidetolerance="10"
     inkscape:pageopacity="0"
     inkscape:pageshadow="2"
     inkscape:window-width="1276"
     inkscape:window-height="1378"
     id="namedview13"
     showgrid="false"
     inkscape:zoom="1.0116598"
     inkscape:cx="987.54662"
     inkscape:cy="1142.1739"
     inkscape:window-x="0"
     inkscape:window-y="28"
     inkscape:window-maximized="0"
     inkscape:current-layer="svg2" />
  <metadata
     id="metadata8">
    <rdf:RDF>
      <cc:Work
         rdf:about="">
        <dc:format>image/svg+xml</dc:format>
        <dc:type
           rdf:resource="http://purl.org/dc/dcmitype/StillImage" />
        <dc:title />
      </cc:Work>
    </rdf:RDF>
  </metadata>
  <defs
     id="defs6" />
  <g
     transform="translate(2.4407666,-9.1727224)"
     id="g817">
    <path
       id="path831"
       d="M 37.632,1834.368 C 36.20746,1832.9435 35.926651,50.375301 37.350828,49.495112 37.829784,49.1991 439.88786,48.95691 930.81322,48.95691 c 713.63908,0 892.74448,0.240894 893.35448,1.201545 0.4196,0.66085 0.7695,402.119145 0.7776,892.129545 0.011,691.6804 -0.243,891.1857 -1.1373,892.08 -1.6807,1.6807 -1784.495372,1.6807 -1786.176,0 z M 1072.32,1702.0602 c 128.6702,-3.2032 221.4821,-9.7921 258.4443,-18.3474 12.9116,-2.9886 18.4991,-8.0213 12.9454,-11.6602 -8.3266,-5.4558 -42.723,-10.8581 -94.7497,-14.8816 l -21.6,-1.6704 -0.2418,-247.2675 -0.2418,-247.2674 5.0418,-3.2173 c 7.1135,-4.5395 21.6079,-19.3078 27.3196,-27.836 10.0945,-15.0726 16.6261,-30.9318 20.5562,-49.9124 1.9968,-9.6438 2.2806,-13.5897 2.2439,-31.2 -0.036,-17.1114 -0.3634,-21.6391 -2.1662,-29.9409 -2.3273,-10.7175 -7.0728,-25.05884 -9.7875,-29.5791 -0.9512,-1.584 -2.24,-5.472 -2.8639,-8.64 -2.2485,-11.41651 -7.935,-27.05976 -14.6584,-40.32397 -1.3393,-2.64218 -3.3612,-9.12218 -4.4934,-14.4 -3.5016,-16.32492 -10.3021,-41.47985 -15.8692,-58.69952 l -5.3227,-16.46348 0.2417,-270.9519 c 0.2139,-239.70276 0.4078,-271.03975 1.6817,-271.71371 0.792,-0.419 3.9732,-1.97808 7.0692,-3.46462 12.7799,-6.13603 23.0499,-20.54185 25.6394,-35.96446 1.09,-6.49134 1.0312,-8.30232 -0.5079,-15.63608 -2.9381,-14.00041 -10.7098,-25.07419 -22.5735,-32.16492 -10.5023,-6.27694 -22.4708,-8.7846 -32.2992,-6.76737 -19.0538,3.91075 -32.8624,15.76685 -38.3626,32.93827 -5.58,17.42051 -1.894,34.04613 10.5443,47.55866 3.6681,3.985 12.1828,10.41082 15.4322,11.64619 l 2.4181,0.91939 v 234.26376 c 0,128.84507 -0.2033,234.26376 -0.4518,234.26376 -0.2484,0 -4.1188,-7.236 -8.6006,-16.08 -21.6592,-42.73916 -43.1433,-77.28788 -55.4163,-89.1151 -19.2966,-18.59558 -50.0354,-40.84477 -52.7204,-38.15974 -0.5452,0.54514 -0.5274,10.15127 0.046,24.84185 2.0709,53.05864 3.0239,107.46741 2.0222,115.45568 -2.4321,19.39615 -11.0975,34.18916 -27.0835,46.23497 -39.1133,29.47271 -116.88141,37.54697 -174.90866,18.15984 -35.68005,-11.92081 -56.77599,-31.23404 -62.4876,-57.20701 -1.74642,-7.94169 -1.99099,-56.66162 -0.61349,-122.21049 0.44272,-21.06642 0.4149,-37.35221 -0.0647,-37.87206 -0.52937,-0.57383 -3.06642,-0.45369 -6.84134,0.32397 -7.92597,1.63282 -23.53152,6.65278 -23.9272,7.69686 -0.172,0.45388 -6.02263,3.6801 -13.00138,7.16939 -21.54846,10.77394 -33.71982,19.1627 -47.87755,32.99823 l -6.80619,6.65128 -0.6597,10.86199 -0.65971,10.86199 -8.37411,8.76349 c -15.10562,15.80804 -25.5671,28.86126 -34.67454,43.26486 -3.33855,5.28 -6.78269,10.68 -7.65363,12 -1.49945,2.27258 -8.48849,16.33835 -11.20969,22.56 -13.13415,30.02956 -33.86414,92.72612 -41.26386,124.8 -10.5969,45.93201 -14.96468,78.77222 -14.95071,112.4105 0.0124,29.8455 2.31395,47.5022 9.25471,70.998 9.08884,30.7677 23.87572,52.7212 47.71091,70.8345 9.18584,6.9808 28.23408,17.0492 35.98368,19.02 2.22804,0.5667 4.44708,1.5223 4.93121,2.1237 0.53733,0.6673 0.002,22.5974 -1.37442,56.2933 -1.24007,30.36 -3.57969,88.248 -5.19919,128.64 -1.61948,40.392 -3.3366,82.944 -3.81583,94.56 -3.70295,89.7562 -5.04156,127.1912 -4.59019,128.3674 1.15884,3.0198 58.71185,14.2473 92.87745,18.1185 5.544,0.6281 10.42505,1.4485 10.84679,1.8229 0.42173,0.3745 -6.92227,3.1317 -16.32,6.1273 -9.39774,2.9955 -20.75879,6.7805 -25.24679,8.411 -11.09189,4.0296 -33.19062,15.2408 -43.53978,22.0887 -8.21642,5.4367 -8.71247,5.6245 -14.88,5.6334 -3.50912,0.01 -16.53222,0.6509 -28.94022,1.4351 -99.98154,6.319 -142.72324,13.7882 -134.00809,23.4184 11.34974,12.5413 153.26191,23.0109 344.72809,25.4324 37.81335,0.4781 166.22483,-0.3667 205.92003,-1.3549 z m 117.6,-48.8712 c -1.584,-0.3933 -6.4872,-3.1798 -10.8961,-6.1922 -8.6197,-5.8897 -24.002,-13.9211 -36.8255,-19.2275 -8.2409,-3.4102 -42.5429,-14.719 -51.3984,-16.9453 -8.4174,-2.116 -7.146,-2.6791 10.8,-4.7835 33.0576,-3.8762 90.5642,-12.875 92.112,-14.4138 0.5016,-0.4987 1.2635,-0.9067 1.6932,-0.9067 0.4296,0 0.6672,14.1422 0.528,31.4271 -0.2773,34.4218 0.084,32.5557 -6.0132,31.0419 z m -319.80204,-6.309 c -0.19761,-0.528 -0.46699,-7.44 -0.59862,-15.36 l -0.23934,-14.4 35.04,0.3424 c 19.55872,0.1911 48.61262,-0.2192 65.76,-0.9289 16.896,-0.6991 32.5962,-1.2851 34.8895,-1.3023 l 4.1694,-0.032 0.4219,8.16 c 0.232,4.488 0.1544,11.832 -0.1724,16.32 l -0.5941,8.16 h -69.15851 c -45.22619,0 -69.28288,-0.3322 -69.51783,-0.96 z m 324.90914,-69.6 c -0.359,-1.32 -2.4151,-30.48 -4.5689,-64.8 -7.9471,-126.632 -21.1289,-331.3715 -21.6878,-336.8558 l -0.5764,-5.6559 3.6629,0.72 c 2.0148,0.396 8.1991,0.8818 13.7431,1.0795 l 10.08,0.3597 0.2443,101.7763 c 0.3477,144.8002 -0.1296,306.1978 -0.8972,303.3762 z M 970.752,845.30362 c 41.825,-4.43892 72.6653,-16.31461 91.008,-35.04454 7.2413,-7.39413 11.5802,-14.30138 15.188,-24.17786 l 2.572,-7.04122 -0.1513,-41.76 c -0.083,-22.968 -0.8213,-59.42582 -1.6402,-81.0174 -0.9621,-25.36569 -1.1633,-39.86594 -0.5686,-40.97714 0.5982,-1.1177 0.5667,-2.65004 -0.09,-4.37713 -0.8726,-2.29505 -1.4729,-15.19618 -0.9766,-20.98833 0.09,-1.056 -0.2453,-5.808 -0.746,-10.56 -0.5009,-4.752 -1.4703,-22.68 -2.1543,-39.84 -1.3566,-34.03687 -2.187,-35.05056 -3.1455,-3.84 -1.5192,49.47251 -6.5829,91.55594 -13.0912,108.79868 -2.5958,6.87729 -7.0172,12.16132 -10.1758,12.16132 -1.2653,0 -2.3006,-0.56285 -2.3006,-1.25078 0,-0.68793 -1.7633,-4.89718 -3.9185,-9.35388 -3.1992,-6.61548 -5.4463,-9.60701 -12.24,-16.29491 -8.997,-8.8569 -18.1027,-14.35409 -31.0973,-18.77384 -8.40038,-2.85716 -10.4952,-2.90139 -12.83539,-0.27101 -4.60109,5.17166 -14.95718,7.07798 -22.35993,4.11598 -3.42708,-1.37125 -4.17402,-1.37125 -8.21296,0 -5.62859,1.91096 -14.44739,1.93433 -19.78124,0.0524 -3.73514,-1.31783 -4.51853,-1.30636 -8.25586,0.12094 -6.07776,2.32112 -13.41933,1.46058 -19.10777,-2.23971 l -4.53604,-2.95066 -5.22945,1.79921 c -17.90942,6.16174 -34.06792,19.57082 -41.40208,34.35738 -2.19091,4.41713 -3.98347,8.62913 -3.98347,9.36 0,2.28136 -4.31488,1.46318 -6.91477,-1.31117 -6.94855,-7.41481 -12.11663,-26.41936 -16.57472,-60.95009 -1.93778,-15.00933 -5.09066,-52.54403 -5.86733,-69.84991 -1.16999,-26.07004 -2.00999,-20.69752 -2.62669,16.8 -0.33867,20.592 -1.10915,45 -1.71217,54.24 -0.60303,9.24 -1.02306,18.528 -0.93341,20.64 0.0897,2.112 0.0339,21.984 -0.12395,44.16 -0.68633,96.43612 -0.43352,117.60199 1.47914,123.84 4.84257,15.79362 17.10504,30.78289 33.25759,40.65304 28.30182,17.29409 77.24157,26.22878 119.24831,21.77058 z M 909.57317,700.93681 c -10.66262,-3.89581 -18.7745,-11.40451 -23.81523,-22.04438 -2.76933,-5.84546 -3.03265,-7.21879 -2.97813,-15.53243 0.0463,-7.05878 0.53759,-10.31334 2.17378,-14.4 4.29375,-10.72431 12.34201,-18.79332 23.20641,-23.26621 5.11409,-2.10549 6.26033,-2.17379 36.48,-2.17379 30.21965,0 31.36589,0.0683 36.48,2.17379 14.70576,6.05441 24.1607,18.73265 25.6193,34.35361 1.4555,15.58545 -8.02394,31.93776 -22.66855,39.10436 L 977.76,702.24 l -31.68,0.2302 c -28.70447,0.20857 -32.13336,0.0645 -36.50683,-1.53339 z M 972.48,700.75797 c 12.89818,-2.04123 23.48832,-9.97087 29.0791,-21.77372 2.8091,-5.93057 3.0775,-7.30864 3.0434,-15.62425 -0.052,-12.62479 -2.4185,-18.47151 -10.91466,-26.96779 -4.58947,-4.58945 -7.91021,-6.963 -12.08784,-8.64 -5.67322,-2.27736 -6.23021,-2.31221 -36.96,-2.31221 -30.46563,0 -31.33071,0.0528 -36.7532,2.2414 -7.8219,3.15709 -16.18365,11.15084 -20.10746,19.22252 -2.85423,5.87146 -3.10111,7.13585 -3.11944,15.97608 -0.0183,8.8262 0.22718,10.1216 3.0455,16.07112 5.46236,11.5311 16.1099,19.75099 28.1346,21.71989 7.41272,1.21374 49.11552,1.27777 56.64,0.087 z M 853.22599,646.8 c 8.0256,-17.09437 22.62664,-29.41393 44.06325,-37.17813 l 5.92924,-2.14753 3.20814,2.44697 c 4.89273,3.73187 11.02319,5.07286 16.21543,3.547 5.33221,-1.567 8.3607,-1.55927 16.47368,0.0421 5.90444,1.16539 7.04777,1.11004 12.96,-0.62751 6.23089,-1.83119 6.65308,-1.84082 10.80427,-0.24646 7.36166,2.82741 14.05699,1.77192 19.59293,-3.08876 3.89337,-3.41837 5.94192,-3.49782 14.55888,-0.56464 23.10549,7.86496 40.23159,22.57122 47.32999,40.64248 5.8143,14.80179 14.9653,-8.74369 19.6964,-50.67831 3.7402,-33.15123 5.3404,-74.17598 5.3699,-137.66716 0.025,-53.05877 -0.049,-54.12473 -4.9277,-71.04 -3.9976,-13.8612 -16.0224,-35.39718 -24.657,-44.16 -1.5608,-1.584 -3.3437,-3.87512 -3.9619,-5.09137 -0.6182,-1.21625 -2.4344,-3.00824 -4.0359,-3.98219 -1.6015,-0.97393 -4.922,-3.65082 -7.3787,-5.94862 -4.2934,-4.01561 -14.5067,-11.37782 -15.7839,-11.37782 -0.3389,0 -2.5707,-1.23948 -4.9596,-2.7544 -9.03159,-5.72772 -26.96612,-11.40297 -42.7634,-13.53217 -28.98028,-3.90607 -60.04571,3.33296 -84.67978,19.73254 -11.42781,7.6078 -15.63107,11.25128 -27.10799,23.49783 -3.17002,3.3826 -13.21919,18.67493 -16.42241,24.99082 -6.43853,12.69505 -12.62769,36.11395 -12.78731,48.38538 -0.0515,3.95535 1.88464,60.30309 2.73779,79.68 3.85504,87.55697 11.78187,140.7811 22.84034,153.36 2.57681,2.9311 3.87418,1.87772 7.68535,-6.24 z M 852.5734,510.59189 c -4.27537,-4.82247 -7.7734,-9.43124 -7.7734,-10.24172 0,-0.81048 3.996,-5.41583 8.88,-10.2341 7.39879,-7.29923 10.40124,-9.51003 18,-13.25395 5.016,-2.47138 12.144,-5.20558 15.84,-6.07598 12.66684,-2.98304 36.53543,-1.47466 47.20962,2.9834 l 3.04963,1.27368 0.31895,14.71839 c 0.17544,8.09511 0.0523,15.0676 -0.27363,15.49441 -0.32593,0.4268 -3.13779,-0.0779 -6.24859,-1.12151 -8.49752,-2.85084 -17.16232,-4.2325 -26.77598,-4.26961 -15.49353,-0.0598 -27.13971,4.24261 -37.35765,13.80099 -3.34787,3.13176 -6.31394,5.69411 -6.59128,5.69411 -0.27735,0 -4.0023,-3.94565 -8.27767,-8.76811 z m 25.11772,-6.44138 c 9.6864,-4.86102 16.68271,-6.19227 29.95748,-5.70029 7.72821,0.28643 14.34526,1.15607 19.9928,2.62756 4.64276,1.20969 8.53076,2.03806 8.64,1.84083 C 936.39062,502.72138 936.264,496.512 936,489.12 l -0.48,-13.44 -8.64,-2.27564 c -12.20195,-3.21379 -30.37795,-3.35104 -41.08721,-0.31025 -9.25859,2.62888 -16.64443,6.30374 -24.426,12.15326 -6.32843,4.75715 -15.05271,14.23643 -14.49707,15.75161 0.18165,0.49535 3.34512,4.34403 7.02993,8.55261 l 6.69964,7.65197 5.55147,-5.02379 c 3.05331,-2.76309 8.24647,-6.37626 11.54036,-8.02926 z m 145.62878,10.84089 c -14.823,-15.13022 -37.26435,-19.15357 -63.79431,-11.43721 -4.22707,1.22946 -7.90159,1.94073 -8.16559,1.5806 -0.264,-0.36014 -0.35003,-7.27402 -0.19116,-15.36418 l 0.28883,-14.70939 3.07117,-1.28267 c 10.80482,-4.51266 34.77305,-6.01134 47.23116,-2.95327 3.696,0.90725 10.824,3.64771 15.84,6.08991 7.6596,3.72929 10.542,5.84328 18,13.20088 4.884,4.81827 8.88,9.42362 8.88,10.2341 0,1.47449 -14.9559,19.00983 -16.2135,19.00983 -0.3668,0 -2.5927,-1.96587 -4.9466,-4.3686 z m 12.7601,-6.16573 c 3.564,-4.13133 6.48,-7.8103 6.48,-8.17547 0,-1.59398 -9.4073,-11.46427 -14.7653,-15.49188 -13.5697,-10.20056 -25.8869,-14.18289 -43.7947,-14.15951 -12.03302,0.0156 -27.23256,2.66524 -30.40803,5.30064 -1.77688,1.47468 -1.84497,26.75134 -0.072,26.71795 0.66,-0.0124 4.44,-0.91857 8.40003,-2.01366 10.19328,-2.81882 29.05699,-3.53886 37.44,-1.42911 8.5862,2.16089 17.1751,6.66428 23.2282,12.1791 2.8005,2.55151 5.5238,4.62659 6.0518,4.61128 0.528,-0.0153 3.876,-3.40801 7.44,-7.53934 z m -219.00702,56.53675 c 0.32613,-8.66933 0.75813,-29.80242 0.96,-46.96242 l 0.36702,-31.2 -3.18184,0.25204 c -7.96448,0.63088 -18.96059,9.26645 -22.866,17.95733 l -2.60214,5.79063 0.21158,23.04 c 0.21121,22.99988 0.21625,23.05003 2.89173,28.8 1.47408,3.168 3.85201,7.14557 5.28429,8.83905 2.64334,3.12539 15.4367,10.20749 17.31576,9.58559 0.6402,-0.21189 1.24982,-6.27274 1.6196,-16.10222 z m 273.78882,7.78521 c 1.7891,-1.57077 4.505,-5.56758 6.0355,-8.88179 L 1099.68,558.24 v -24.97449 c 0,-24.61452 -0.035,-25.04691 -2.3867,-30 -1.3126,-2.76403 -2.6757,-5.02551 -3.0291,-5.02551 -0.3534,0 -2.4894,-1.54301 -4.7467,-3.4289 -5.5027,-4.59742 -11.0255,-7.30905 -14.1505,-6.94783 -2.4602,0.28438 -2.5598,0.51643 -2.3939,5.57673 1.2392,37.80211 3.6433,85.21293 4.3674,86.12945 1.1418,1.44535 8.5901,-2.09209 13.5213,-6.42182 z M 1092.404,479.04 c -0.4671,-2.376 -1.0616,-7.128 -1.3211,-10.56 -0.5889,-7.78849 -2.7902,-19.27875 -4.7818,-24.96 -4.0695,-11.60808 -10.223,-20.16 -14.5063,-20.16 -0.2392,0 -0.4348,13.98312 -0.4348,31.0736 v 31.07359 l 3.7743,0.50624 c 4.6872,0.6287 11.8089,4.11613 14.6916,7.19441 l 2.1741,2.3216 0.6266,-6.08472 c 0.3446,-3.3466 0.2444,-8.02872 -0.2226,-10.40472 z m -290.46259,12.81156 c 4.22746,-3.56903 10.061,-6.04566 14.29859,-6.07048 l 3.6,-0.0211 -0.002,-10.32 c -0.006,-25.24011 -1.26263,-52.08 -2.43882,-52.08 -1.64049,0 -7.65564,6.84856 -9.92897,11.30465 -4.03201,7.90341 -7.89043,23.82349 -9.35887,38.61535 -0.8759,8.82301 -0.88146,21.11908 -0.01,21.11955 0.45178,2.5e-4 2.17978,-1.14635 3.84,-2.54799 z M 812.16,424.32 c 0,-0.528 -0.1905,-0.96 -0.42334,-0.96 -0.23284,0 -0.69034,0.432 -1.01666,0.96 -0.32632,0.528 -0.13582,0.96 0.42334,0.96 0.55916,0 1.01666,-0.432 1.01666,-0.96 z"
       style="fill:#f6f2ec;stroke-width:0.99999994" />
    <path
       id="path829"
       d="m 866.4,1703.4151 c -191.46618,-2.4215 -333.37836,-12.8911 -344.72809,-25.4324 -8.71515,-9.6302 34.02655,-17.0994 134.00809,-23.4184 12.408,-0.7842 25.4311,-1.43 28.94022,-1.4351 6.16753,-0.01 6.66358,-0.1967 14.88,-5.6334 10.34916,-6.8479 32.44789,-18.0591 43.53978,-22.0887 4.488,-1.6305 15.84905,-5.4155 25.24679,-8.411 9.39773,-2.9956 16.74173,-5.7528 16.32,-6.1273 -0.42174,-0.3744 -5.30279,-1.1948 -10.84679,-1.8229 -34.1656,-3.8712 -91.71861,-15.0987 -92.87745,-18.1185 -0.45137,-1.1762 0.88724,-38.6112 4.59019,-128.3674 0.47923,-11.616 2.19635,-54.168 3.81583,-94.56 1.61949,-40.392 3.95912,-98.28 5.19919,-128.64 1.37632,-33.6959 1.91175,-55.626 1.37442,-56.2933 -0.48414,-0.6014 -2.70318,-1.557 -4.93121,-2.1237 -2.22804,-0.5666 -7.72297,-2.8102 -12.21097,-4.9856 -22.78385,-11.0442 -37.24646,-22.9469 -51.60839,-42.4737 -11.96467,-16.2675 -21.71088,-42.1181 -26.13644,-69.3237 -3.16414,-19.4512 -4.03428,-53.459 -1.92585,-75.26947 2.82289,-29.20118 10.04045,-68.01735 18.22428,-98.01053 9.46292,-34.681 25.95971,-82.93466 36.92264,-108 2.7212,-6.22165 9.71024,-20.28742 11.20969,-22.56 0.87094,-1.32 4.31508,-6.72 7.65363,-12 9.10744,-14.4036 19.56892,-27.45682 34.67454,-43.26486 l 8.37411,-8.76349 0.65971,-10.86199 0.6597,-10.86199 6.80619,-6.65128 c 14.15773,-13.83553 26.32909,-22.22429 47.87755,-32.99823 6.97875,-3.48929 12.82938,-6.71551 13.00138,-7.16939 0.36386,-0.9601 15.43827,-5.87699 23.36486,-7.62103 7.60931,-1.67422 8.51506,-1.12607 8.33158,5.04214 l -0.15082,5.07012 -0.56918,-4.8 c -0.56153,-4.73548 -0.61258,-4.79794 -3.79786,-4.64663 -4.93221,0.2343 -21.57653,5.04614 -25.21744,7.29034 -1.77864,1.09631 -8.25577,4.47571 -14.39364,7.50977 -20.34424,10.05654 -36.84977,21.52051 -48.44881,33.65032 l -5.84858,6.1162 -0.69294,10.95717 -0.69294,10.95718 -9.64842,10.16282 c -26.09218,27.4833 -41.96255,51.88287 -55.31494,85.04283 -27.88771,69.25765 -45.43037,136.66991 -51.08824,196.32 -1.33782,14.1043 -1.34058,49.5928 -0.005,61.44 4.0374,35.8078 12.66916,61.1203 28.58671,83.8303 13.55796,19.3434 35.92818,35.9232 60.45724,44.808 3.29148,1.1922 6.38648,2.6524 6.87777,3.2447 0.55412,0.6681 0.0254,22.399 -1.39241,57.237 -1.25712,30.888 -3.81337,94.392 -5.68056,141.12 -1.86718,46.728 -4.02896,100.296 -4.80395,119.04 -3.21507,77.7607 -3.60762,89.2361 -3.09806,90.5641 1.16379,3.0327 50.55984,12.6763 91.79789,17.9216 8.67087,1.1028 16.03985,2.1749 16.37552,2.3824 0.77622,0.4797 27.91445,3.023 46.09927,4.3204 23.04408,1.6439 100.34078,2.2475 130.08001,1.0159 14.784,-0.6123 33.36,-1.2988 41.28,-1.5255 23.1858,-0.6637 52.3668,-3.3727 87.36,-8.1098 58.0838,-7.8631 97.2676,-13.9764 98.7818,-15.4117 0.7214,-0.6839 -7.4064,-131.8187 -23.8839,-385.3405 -1.2677,-19.5046 -2.0733,-35.8379 -1.7901,-36.2961 0.2832,-0.4582 1.8779,-0.5251 3.5436,-0.1485 1.6657,0.3766 7.9966,0.9418 14.0686,1.2562 l 11.04,0.5715 v 241.92 241.92 l -4.3488,-0.1373 c -3.663,-0.1157 -5.8262,-1.139 -13.7169,-6.4889 -14.7488,-9.9998 -43.8517,-23.6138 -50.4793,-23.6138 -1.5954,0 -6.4814,0.8283 -10.8578,1.8406 -22.7886,5.2714 -50.7575,8.3697 -84.3683,9.3461 l -21.9889,0.6388 -0.011,2.9672 c -0.01,1.632 -0.262,4.4869 -0.5693,6.3441 l -0.5589,3.3769 -70.2306,-0.1565 -70.2306,-0.1566 -0.48,-6.1003 -0.48,-6.1003 -19.68,-0.6463 c -37.13105,-1.2193 -70.08458,-5.0613 -90.72,-10.577 -2.112,-0.5645 -5.136,-0.984 -6.72,-0.932 -6.68664,0.2189 -36.72075,14.4134 -50.87344,24.0433 -8.37468,5.6983 -8.81462,5.8723 -14.87821,5.8812 -13.19791,0.019 -68.45252,3.8898 -96.96835,6.7921 -49.03254,4.9904 -70.47075,10.4642 -65.31474,16.6768 5.44136,6.5565 57.40795,13.4384 137.79474,18.2481 77.27989,4.6238 157.87714,6.5638 272.64,6.5625 192.0829,0 344.3509,-7.5154 395.7838,-19.5285 11.9105,-2.782 17.1465,-6.0313 14.6214,-9.074 -4.4045,-5.307 -42.3392,-11.485 -96.0052,-15.6352 l -21.6,-1.6704 -0.2418,-247.8707 c -0.1928,-197.5555 0,-248.077 0.96,-248.8867 0.6609,-0.5588 4.0098,-3.1048 7.4418,-5.6579 7.5934,-5.6487 17.6309,-16.1601 23.0455,-24.1333 5.1406,-7.57 13.5674,-24.5909 16.1553,-32.632 5.0504,-15.6917 6.3189,-25.1711 6.3593,-47.52 0.03,-16.6112 -0.3308,-22.9645 -1.6893,-29.76 -2.0935,-10.4724 -6.2171,-23.57213 -8.2798,-26.30352 -1.3965,-1.84925 -1.518,-0.85565 -1.6034,13.11132 -0.075,12.2932 -0.4797,16.5344 -2.1679,22.7365 -4.2932,15.7718 -12.0784,27.6816 -23.5719,36.0608 -11.6061,8.4613 -25.0753,11.7496 -40.5451,9.8985 -17.0027,-2.0346 -27.0369,-8.2251 -33.2366,-20.5053 -2.6449,-5.2388 -3.839,-9.0891 -4.4529,-14.3583 -0.7991,-6.8584 -4.0767,-16.3827 -6.7438,-19.5964 -2.121,-2.5557 -0.925,-14.5001 2.108,-21.05067 l 2.5961,-5.60707 -3.0038,-3.00394 c -4.2782,-4.27814 -5.935,-8.79341 -5.8791,-16.02192 0.061,-7.84608 2.7152,-15.03466 9.0482,-24.50333 5.7344,-8.57361 9.6179,-11.95572 18.8863,-16.44817 6.8436,-3.31712 7.3644,-3.41311 20.16,-3.71565 15.4833,-0.36607 33.1717,0.83194 40.281,2.72816 2.7863,0.74319 5.2664,1.02713 5.5112,0.63097 1.1222,-1.81574 -8.5035,-40.05092 -16.383,-65.07648 L 1225.92,852.351 V 579.75174 307.15248 l 2.64,-0.93611 c 23.9577,-8.49505 36.8409,-33.89066 29.5248,-58.20006 -1.4993,-4.98195 -7.1821,-14.80605 -10.8821,-18.81246 -3.2721,-3.54313 -14.3872,-10.17001 -19.78,-11.79301 -23.1756,-6.97484 -48.0436,4.62065 -56.8923,26.52784 -6.2487,15.47025 -3.9989,33.38508 5.7707,45.95025 4.6509,5.9819 13.094,12.88316 17.6989,14.46692 l 3.12,1.07305 v 236.56555 c 0,195.16358 -0.2215,236.56555 -1.2658,236.56555 -0.6961,0 -4.8457,-7.236 -9.2212,-16.08 -8.0339,-16.23805 -13.2757,-26.32826 -17.3302,-33.36 -1.2179,-2.112 -3.295,-5.784 -4.6157,-8.16 -1.3209,-2.376 -3.2038,-5.46669 -4.1844,-6.8682 -0.9804,-1.4015 -1.7827,-2.77128 -1.7827,-3.04395 0,-0.27268 -2.2259,-4.09399 -4.9463,-8.49181 -13.3127,-21.52079 -18.8123,-28.19212 -33.4537,-40.58205 -17.7303,-15.00376 -38.5052,-29.54882 -40.0287,-28.02524 -0.3052,0.30516 0.032,18.81953 0.7483,41.14305 0.7167,22.32351 1.316,54.4122 1.3317,71.3082 0.028,29.52003 -0.059,31.00124 -2.2096,37.92 -10.0788,32.42052 -42.5315,53.50678 -95.2017,61.85762 -13.8889,2.20208 -33.09532,3.37495 -42.72,2.60876 -7.91292,-0.62992 -6.98389,-0.74041 11.04,-1.31291 43.4423,-1.37991 77.3038,-11.00463 100.6756,-28.61581 15.986,-12.04581 24.6514,-26.83882 27.0835,-46.23497 1.0017,-7.98827 0.049,-62.39704 -2.0222,-115.45568 -0.5734,-14.69058 -0.5912,-24.29671 -0.046,-24.84185 2.685,-2.68503 33.4238,19.56416 52.7204,38.15974 12.273,11.82722 33.7572,46.37594 55.4163,89.1151 4.4818,8.844 8.3522,16.08 8.6006,16.08 0.2485,0 0.4518,-105.41869 0.4518,-234.26376 V 307.15248 l -2.4181,-0.91939 c -3.2494,-1.23537 -11.7641,-7.66119 -15.4322,-11.64619 -12.4383,-13.51253 -16.1243,-30.13815 -10.5443,-47.55866 5.5002,-17.17142 19.3088,-29.02752 38.3626,-32.93827 9.8284,-2.01723 21.7969,0.49043 32.2992,6.76737 11.8637,7.09073 19.6354,18.16451 22.5735,32.16492 1.5391,7.33376 1.5979,9.14474 0.5079,15.63608 -2.5895,15.42261 -12.8595,29.82843 -25.6393,35.96446 -3.0961,1.48654 -6.2773,3.04562 -7.0693,3.46462 -1.2739,0.67396 -1.4678,32.01095 -1.6817,271.71371 l -0.2417,270.9519 5.3227,16.46348 c 5.5671,17.21967 12.3676,42.3746 15.8692,58.69952 1.1322,5.27782 3.1541,11.75782 4.4934,14.4 6.7234,13.26421 12.4099,28.90746 14.6584,40.32397 0.6239,3.168 1.9127,7.056 2.8639,8.64 2.7147,4.52026 7.4602,18.8616 9.7875,29.5791 1.8028,8.3018 2.1304,12.8295 2.1662,29.9409 0.036,17.6103 -0.247,21.5562 -2.2438,31.2 -3.9302,18.9806 -10.4618,34.8398 -20.5563,49.9124 -5.7117,8.5282 -20.2061,23.2965 -27.3196,27.836 l -5.0418,3.2173 0.2418,247.2674 0.2418,247.2675 21.6,1.6704 c 52.0267,4.0235 86.4231,9.4258 94.7497,14.8816 5.5537,3.6389 -0.034,8.6716 -12.9454,11.6602 -36.9622,8.5553 -129.7741,15.1442 -258.4443,18.3474 -39.6952,0.9882 -168.10665,1.833 -205.92,1.3549 z m 329.5332,-81.268 c 0.1392,-17.2849 -0.098,-31.4271 -0.528,-31.4271 -0.4297,0 -1.1916,0.408 -1.6932,0.9067 -1.5478,1.5388 -59.0544,10.5376 -92.112,14.4138 -12.6945,1.4885 -15.84,2.0491 -15.84,2.8223 0,0.3818 2.268,1.2644 5.04,1.9612 8.8555,2.2263 43.1575,13.5351 51.3984,16.9453 12.8235,5.3064 28.2058,13.3378 36.8255,19.2275 4.4089,3.0124 9.3121,5.7989 10.8961,6.1922 6.0973,1.5138 5.7359,3.3799 6.0132,-31.0419 z m -186.5448,17.5329 c 0.3268,-4.488 0.4044,-11.832 0.1724,-16.32 l -0.4219,-8.16 -4.1694,0.032 c -2.2933,0.017 -17.9935,0.6031 -34.8895,1.3023 -17.14738,0.7096 -46.20128,1.12 -65.76,0.9289 l -35.04,-0.3424 0.23934,14.4 c 0.13163,7.92 0.40101,14.832 0.59862,15.36 0.23495,0.6277 24.29164,0.96 69.51783,0.96 h 69.15851 l 0.5941,-8.16 z m 186.5359,-365.7762 -0.2443,-101.7763 -10.08,-0.3597 c -5.544,-0.1977 -11.7283,-0.6835 -13.7431,-1.0795 l -3.6629,-0.72 0.5764,5.6559 c 0.5589,5.4843 13.7407,210.2238 21.6878,336.8558 2.1538,34.32 4.2099,63.48 4.5689,64.8 0.7676,2.8216 1.2449,-158.576 0.8972,-303.3762 z M 925.68,846.9924 c 1.452,-0.21996 3.828,-0.21996 5.28,0 1.452,0.21996 0.264,0.39993 -2.64,0.39993 -2.904,0 -4.092,-0.17997 -2.64,-0.39993 z m -8.14881,-0.95137 c 1.19416,-0.22962 2.92216,-0.22091 3.84,0.0194 0.91785,0.24028 -0.0592,0.42816 -2.17119,0.41751 -2.112,-0.0107 -2.86296,-0.20726 -1.66881,-0.43688 z M 901.92,844.07827 c -4.224,-0.81851 -7.248,-1.62906 -6.72,-1.80121 0.528,-0.17215 5.28,0.50039 10.56,1.49455 5.28,0.99416 8.304,1.8047 6.72,1.80122 -1.584,-0.004 -6.336,-0.67604 -10.56,-1.49456 z m -10.26,-2.81406 c 0.693,-0.27731 1.521,-0.24321 1.84,0.0757 0.319,0.319 -0.248,0.54589 -1.26,0.50421 -1.11835,-0.0461 -1.34582,-0.27354 -0.58,-0.57999 z m -12.3,-3.07391 c -30.01085,-9.91644 -48.77435,-23.93196 -58.62496,-43.7903 -6.38739,-12.87666 -6.64686,-15.47243 -6.42925,-64.32 l 0.19244,-43.2 0.56558,45.6 c 0.6258,50.45631 0.55528,49.84318 7.25497,63.07845 8.92287,17.6272 27.9426,31.61385 56.08122,41.24078 6.6,2.25802 11.352,4.10142 10.56,4.09643 -0.792,-0.005 -5.112,-1.2224 -9.6,-2.70536 z m 36.48,-137.51929 c -12.0247,-1.9689 -22.67224,-10.18879 -28.1346,-21.71989 -2.81832,-5.94952 -3.0638,-7.24492 -3.0455,-16.07112 0.0183,-8.84023 0.26521,-10.10462 3.11944,-15.97608 3.92381,-8.07168 12.28556,-16.06543 20.10746,-19.22252 5.42249,-2.18864 6.28757,-2.2414 36.7532,-2.2414 30.72979,0 31.28678,0.0348 36.96,2.31221 4.17763,1.677 7.49837,4.05055 12.08784,8.64 8.49616,8.49628 10.86256,14.343 10.91466,26.96779 0.034,8.31561 -0.2343,9.69368 -3.0434,15.62425 -5.59078,11.80285 -16.18092,19.73249 -29.0791,21.77372 -7.52448,1.19081 -49.22728,1.12678 -56.64,-0.087 z M 815.46021,658.08 c -5.2e-4,-14.256 0.13309,-20.22182 0.29689,-13.2574 0.16381,6.96444 0.16423,18.62844 9.3e-4,25.92 -0.16328,7.29158 -0.29731,1.5934 -0.29782,-12.6626 z m 30.08043,-5.04 c -11.05847,-12.5789 -18.9853,-65.80303 -22.84034,-153.36 -0.85315,-19.37691 -2.78925,-75.72465 -2.73779,-79.68 0.15962,-12.27143 6.34878,-35.69033 12.78731,-48.38538 3.20322,-6.31589 13.25239,-21.60822 16.42241,-24.99082 11.47692,-12.24655 15.68018,-15.89003 27.10799,-23.49783 24.63407,-16.39958 55.6995,-23.63861 84.67978,-19.73254 15.79728,2.1292 33.73181,7.80445 42.7634,13.53217 2.3889,1.51492 4.6207,2.7544 4.9596,2.7544 1.2772,0 11.4905,7.36221 15.7839,11.37782 2.4567,2.2978 5.7772,4.97469 7.3787,5.94862 1.6015,0.97395 3.4177,2.76594 4.0359,3.98219 0.6182,1.21625 2.4011,3.50737 3.9619,5.09137 6.1306,6.22165 10.37,12.61871 16.4157,24.77048 6.3509,12.76533 8.919,20.08559 11.6858,33.30952 2.7744,13.26062 1.8593,120.05123 -1.4355,167.52 -2.7958,40.27958 -8.2445,69.8261 -14.6218,79.28942 -3.1353,4.65238 -5.3239,4.26153 -7.5258,-1.34395 -7.0984,-18.07126 -24.2245,-32.77752 -47.32999,-40.64248 -8.61696,-2.93318 -10.66551,-2.85373 -14.55888,0.56464 -5.53594,4.86068 -12.23127,5.91617 -19.59293,3.08876 -4.15119,-1.59436 -4.57338,-1.58473 -10.80427,0.24646 -5.91223,1.73755 -7.05556,1.7929 -12.96,0.62751 -8.11298,-1.60132 -11.14147,-1.60905 -16.47368,-0.0421 -5.19224,1.52586 -11.3227,0.18487 -16.21543,-3.547 l -3.20814,-2.44697 -5.92924,2.14753 c -21.43661,7.7642 -36.03765,20.08376 -44.06325,37.17813 -3.81117,8.11772 -5.10854,9.1711 -7.68535,6.24 z m 74.19253,-120.26845 c 3.30604,-1.76935 4.74683,-6.1033 4.74683,-14.27871 0,-8.87173 -0.96654,-11.59565 -4.94934,-13.94835 -3.90801,-2.30852 -8.6159,-1.33371 -11.79279,2.44181 -2.23141,2.65188 -2.45474,3.68819 -2.42385,11.24736 0.0368,8.98875 1.1047,12.09879 4.87165,14.18665 2.77609,1.53867 7.03594,1.69538 9.5475,0.35124 z m 57.19451,-0.7129 c 3.39082,-2.74672 4.19232,-5.45593 4.19232,-14.17154 0,-8.23948 -0.0326,-8.35152 -3.38544,-11.70459 -3.00346,-3.00345 -3.78883,-3.32136 -6.96,-2.81734 -2.32378,0.36934 -4.52938,1.6276 -6.30336,3.59597 -2.65027,2.94073 -2.7193,3.28514 -2.4,11.97201 0.30797,8.37708 0.50755,9.13067 3.14842,11.88551 3.28156,3.42325 8.35008,3.96004 11.70806,1.23998 z M 867.44235,513.66589 c 10.21794,-9.55838 21.86412,-13.86082 37.35765,-13.80099 9.61366,0.0371 18.27846,1.41877 26.77598,4.26961 3.1108,1.04363 5.92266,1.54831 6.24859,1.12151 0.32593,-0.42681 0.44907,-7.3993 0.27363,-15.49441 l -0.31895,-14.71839 -3.04963,-1.27368 c -10.67419,-4.45806 -34.54278,-5.96644 -47.20962,-2.9834 -3.696,0.8704 -10.824,3.6046 -15.84,6.07598 -7.59876,3.74392 -10.60121,5.95472 -18,13.25395 -4.884,4.81827 -8.88,9.42362 -8.88,10.2341 0,1.35624 14.90591,19.00983 16.05107,19.00983 0.27734,0 3.24341,-2.56235 6.59128,-5.69411 z m 169.26425,-3.074 c 4.2754,-4.82247 7.7734,-9.43124 7.7734,-10.24172 0,-0.81048 -3.996,-5.41583 -8.88,-10.2341 -7.458,-7.3576 -10.3404,-9.47159 -18,-13.20088 -5.016,-2.4422 -12.144,-5.18266 -15.84,-6.08991 -12.45811,-3.05807 -36.42634,-1.55939 -47.23116,2.95327 l -3.07117,1.28267 -0.28883,14.70939 c -0.15887,8.09016 -0.0729,15.00404 0.19116,15.36418 0.264,0.36013 3.93852,-0.35114 8.16559,-1.5806 26.52996,-7.71636 48.97131,-3.69301 63.79431,11.43721 2.3539,2.40273 4.5798,4.3686 4.9466,4.3686 0.3667,0 4.1647,-3.94565 8.4401,-8.76811 z m -229.12234,67.78936 c -7.79776,-3.90105 -10.92145,-7.15416 -14.73093,-15.34125 -2.67548,-5.74997 -2.68052,-5.80012 -2.89173,-28.8 l -0.21158,-23.04 2.60214,-5.79063 c 3.90541,-8.69088 14.90152,-17.32645 22.866,-17.95733 L 818.4,487.2 l -0.36702,31.2 c -0.5012,42.60677 -1.32098,62.64806 -2.5796,63.06464 -0.56465,0.18688 -4.10575,-1.20065 -7.86912,-3.08339 z M 815.42829,539.28 c 0.35271,-21.78 0.89141,-41.868 1.19711,-44.64 0.49871,-4.52209 0.36653,-5.04 -1.28629,-5.04 -6.34728,0 -19.22315,10.83876 -21.42251,18.03322 -0.5997,1.96173 -1.57953,4.56544 -2.17741,5.78602 -0.82,1.67406 -0.80356,2.67317 0.0669,4.06697 0.80008,1.28113 1.15393,7.82879 1.15393,21.35228 0,18.99691 0.0639,19.63275 2.45493,24.43094 2.83031,5.67969 8.5002,11.17064 14.21354,13.76499 2.18434,0.99188 4.2386,1.8129 4.56503,1.8245 0.32642,0.0116 0.88208,-17.79892 1.23479,-39.57892 z m 261.91221,40.28945 c -0.7241,-0.91652 -3.1282,-48.32734 -4.3674,-86.12945 -0.1659,-5.0603 -0.066,-5.29235 2.3939,-5.57673 3.125,-0.36122 8.6478,2.35041 14.1505,6.94783 2.2573,1.88589 4.3933,3.4289 4.7467,3.4289 0.3534,0 1.7165,2.26148 3.0291,5.02551 2.3523,4.95309 2.3867,5.38548 2.3867,30 V 558.24 l -2.7827,6.02584 c -3.0746,6.65806 -6.9088,10.53203 -13.9606,14.1054 -3.5744,1.81133 -4.8894,2.09288 -5.5962,1.19821 z m 12.5521,-8.64068 c 1.2342,-1.17082 3.2933,-4.28877 4.5758,-6.92877 2.2472,-4.62637 2.342,-5.65812 2.6184,-28.52396 0.3426,-28.35229 0.045,-29.94 -6.8834,-36.75886 -4.735,-4.65994 -13.5382,-9.94234 -14.6749,-8.8057 -0.5544,0.55438 2.2283,74.13582 3.1395,83.0158 l 0.522,5.08727 4.2292,-2.4785 c 2.3261,-1.36318 5.2391,-3.43645 6.4734,-4.60728 z M 810.72,424.32 c 0.32632,-0.528 0.78382,-0.96 1.01666,-0.96 0.23284,0 0.42334,0.432 0.42334,0.96 0,0.528 -0.4575,0.96 -1.01666,0.96 -0.55916,0 -0.74966,-0.432 -0.42334,-0.96 z"
       style="fill:#edc29d;stroke-width:0.99999994" />
    <path
       id="path827"
       d="m 654.72,1159.9977 c -12.97327,-9.9373 -26.29961,-25.7117 -34.33082,-40.6377 -14.09185,-26.1896 -20.48126,-57.231 -20.45178,-99.36 0.0303,-43.3345 7.40727,-89.09844 23.21221,-144 10.90431,-37.87822 28.55905,-85.91048 39.37264,-107.11883 10.00578,-19.62405 26.45843,-42.18456 44.3987,-60.88117 l 9.21165,-9.6 -0.56627,15.36 c -0.31145,8.448 -0.86803,20.54662 -1.23685,26.88583 l -0.67057,11.52582 -7.2601,11.03418 c -36.50892,55.4876 -61.64742,134.07797 -71.08547,222.23417 -1.94565,18.1734 -1.62296,78.3364 0.50461,94.08 3.78918,28.0393 9.39467,49.3762 18.54744,70.5992 2.96902,6.8844 5.2354,12.668 5.03641,12.8524 -0.19899,0.1843 -2.3058,-1.154 -4.6818,-2.9739 z m 498.3396,-0.3548 c -10.7857,-4.8936 -27.8173,-20.611 -35.8489,-33.0829 -12.6032,-19.5708 -20.0368,-41.8238 -22.092,-66.1341 -1.0292,-12.1721 -0.9417,-14.7871 1.0028,-30.0066 3.102,-24.2797 8.7986,-40.64816 20.2369,-58.14848 5.8939,-9.01757 17.7659,-21.62949 25.5616,-27.15459 5.324,-3.7733 13.0701,-8.15623 14.4149,-8.15623 0.3143,0 -1.5221,2.12676 -4.0808,4.72614 -5.64,5.72969 -11.5667,17.21119 -13.1702,25.51386 -0.306,1.584 -0.7653,3.96 -1.0209,5.28 -0.2554,1.32 -0.5188,4.776 -0.5851,7.68 -0.081,3.51091 -0.7404,6.15782 -1.9704,7.90003 -5.7567,8.15367 -10.9026,24.26597 -12.2107,38.23347 -1.6724,17.8557 1.099,33.0357 9.0283,49.4529 11.245,23.2824 30.6964,37.1756 53.9949,38.5658 l 8.88,0.5298 v 21.391 21.3909 l -5.04,1.0445 c -15.8714,3.2891 -31.1164,3.6896 -37.1004,0.9745 z m 74.7804,-39.2335 c 0,-12.8341 0.3714,-22.1694 0.882,-22.1694 0.4852,0 3.5164,-3.2746 6.736,-7.2768 6.8205,-8.4783 14.9024,-24.2301 14.2319,-27.738 -0.3222,-1.6851 0.5641,-3.5464 3.2181,-6.7581 5.1241,-6.2008 8.9374,-13.1797 11.7954,-21.5871 l 2.4475,-7.2 0.024,16.5108 c 0.048,32.1998 -4.8791,53.838 -16.7246,73.4514 -4.6739,7.7387 -11.1108,15.3083 -17.732,20.8518 l -4.8788,4.0848 v -22.1694 z M 927.6132,847.95112 c 1.45926,-0.22066 3.61926,-0.21476 4.8,0.0131 1.18074,0.22786 -0.0131,0.4084 -2.6532,0.4012 -2.64,-0.008 -3.60606,-0.19365 -2.1468,-0.4143 z m -9.12201,-0.95009 c 1.19416,-0.22962 2.92216,-0.22091 3.84,0.0194 0.91785,0.24028 -0.0592,0.42816 -2.17119,0.41751 -2.112,-0.0107 -2.86296,-0.20726 -1.66881,-0.43688 z m -6.23292,-0.9463 c 0.93405,-0.2434 2.23005,-0.2274 2.88,0.0356 0.64995,0.26297 -0.11427,0.46211 -1.69827,0.44255 -1.584,-0.0196 -2.11578,-0.23472 -1.18173,-0.47812 z M 906,845.12421 c 0.66,-0.26631 1.74,-0.26631 2.4,0 0.66,0.26631 0.12,0.48422 -1.2,0.48422 -1.32,0 -1.86,-0.21791 -1.2,-0.48422 z m -5.76,-0.96 c 0.66,-0.26631 1.74,-0.26631 2.4,0 0.66,0.26631 0.12,0.48422 -1.2,0.48422 -1.32,0 -1.86,-0.21791 -1.2,-0.48422 z m -3.78,-0.98 c 0.693,-0.27731 1.521,-0.24321 1.84,0.0757 0.319,0.319 -0.248,0.54589 -1.26,0.50421 -1.11835,-0.0461 -1.34582,-0.27354 -0.58,-0.57999 z m -3.84,-0.96 c 0.693,-0.27731 1.521,-0.24321 1.84,0.0758 0.319,0.319 -0.248,0.54589 -1.26,0.50421 -1.11835,-0.0461 -1.34582,-0.27354 -0.58,-0.57999 z m -3.84,-0.96 c 0.693,-0.27731 1.521,-0.24321 1.84,0.0757 0.319,0.319 -0.248,0.54589 -1.26,0.50421 -1.11835,-0.0461 -1.34582,-0.27354 -0.58,-0.57999 z m -3.84,-0.96 c 0.693,-0.27731 1.521,-0.24321 1.84,0.0757 0.319,0.319 -0.248,0.54589 -1.26,0.50421 -1.11835,-0.0461 -1.34582,-0.27354 -0.58,-0.57999 z M 814.48909,666.72 c 7.2e-4,-11.616 0.13935,-16.23606 0.30806,-10.2668 0.1687,5.96927 0.1681,15.47327 -9.6e-4,21.12 -0.16943,5.64674 -0.30746,0.7628 -0.30673,-10.8532 z m 0.85818,-39.84 c 0,-3.432 0.17424,-4.836 0.38719,-3.12 0.21295,1.716 0.21295,4.524 0,6.24 -0.21295,1.716 -0.38719,0.312 -0.38719,-3.12 z M 807.18,621.42421 c 0.693,-0.27731 1.521,-0.24321 1.84,0.0757 0.319,0.319 -0.248,0.54589 -1.26,0.50421 -1.11835,-0.0461 -1.34582,-0.27354 -0.58,-0.57999 z M 1180.2596,294.48 l -2.8196,-3.12 3.12,2.81961 c 2.9083,2.62827 3.5613,3.42039 2.8196,3.42039 -0.1652,0 -1.5692,-1.404 -3.12,-3.12 z m 3.4204,-26.35798 c -2.2388,-0.81839 -5.8044,-4.33656 -7.2912,-7.19435 -2.1473,-4.12699 -1.6897,-12.95527 0.9673,-18.66165 4.6073,-9.89518 14.5116,-17.59904 22.6439,-17.61305 11.7136,-0.0202 17.1387,13.87994 10.6731,27.34703 -5.6135,11.69255 -18.3313,19.2884 -26.9931,16.12202 z"
       style="fill:#fcc565;stroke-width:0.99999994" />
    <path
       id="path825"
       d="m 926.68388,1702.3257 c 4.11613,-0.1804 10.59613,-0.1794 14.4,0 3.80387,0.1817 0.43612,0.3293 -7.48388,0.328 -7.92,0 -11.03225,-0.1501 -6.91612,-0.3304 z m -88.9058,-0.9639 c 9.07394,-0.1576 24.19394,-0.1579 33.6,-6e-4 9.40605,0.1573 1.98192,0.2863 -16.49808,0.2866 -18.48,4e-4 -26.17587,-0.1283 -17.10192,-0.286 z m 156.48,0 c 9.07392,-0.1576 24.19392,-0.1579 33.60002,-6e-4 9.4061,0.1573 1.9819,0.2863 -16.4981,0.2866 -18.48,4e-4 -26.17584,-0.1283 -17.10192,-0.286 z M 788.4,1700.4043 c 5.148,-0.1726 13.572,-0.1726 18.72,0 5.148,0.1726 0.936,0.3138 -9.36,0.3138 -10.296,0 -14.508,-0.1412 -9.36,-0.3138 z m 271.68,0 c 5.148,-0.1726 13.572,-0.1726 18.72,0 5.148,0.1726 0.936,0.3138 -9.36,0.3138 -10.296,0 -14.508,-0.1412 -9.36,-0.3138 z m -306.72,-0.9571 c 3.828,-0.1822 10.092,-0.1822 13.92,0 3.828,0.1822 0.696,0.3313 -6.96,0.3313 -7.656,0 -10.788,-0.1491 -6.96,-0.3313 z m 345.6,0 c 3.828,-0.1822 10.092,-0.1822 13.92,0 3.828,0.1822 0.696,0.3313 -6.96,0.3313 -7.656,0 -10.788,-0.1491 -6.96,-0.3313 z m -372.44238,-0.9589 c 3.32069,-0.188 8.50469,-0.1865 11.52,0 3.0153,0.1898 0.29838,0.3436 -6.03762,0.3417 -6.336,0 -8.80308,-0.1572 -5.48238,-0.3452 z m 402.72228,0 c 3.586,-0.1852 9.202,-0.1839 12.48,0 3.2781,0.1869 0.3441,0.3384 -6.5199,0.3367 -6.864,0 -9.546,-0.1546 -5.9601,-0.3398 z m -426.72228,-0.959 c 3.32069,-0.188 8.50469,-0.1864 11.52,0 3.0153,0.1899 0.29838,0.3437 -6.03762,0.3418 -6.336,0 -8.80308,-0.1573 -5.48238,-0.3452 z m 451.67738,0 c 3.0553,-0.191 7.8073,-0.1893 10.56,0 2.7527,0.1933 0.253,0.3496 -5.555,0.3474 -5.808,0 -8.0603,-0.1602 -5.005,-0.3513 z m -472.355,-0.9549 c 2.508,-0.1978 6.612,-0.1978 9.12,0 2.508,0.1978 0.456,0.3595 -4.56,0.3595 -5.016,0 -7.068,-0.1617 -4.56,-0.3595 z m 493.44,0 c 2.508,-0.1978 6.612,-0.1978 9.12,0 2.508,0.1978 0.456,0.3595 -4.56,0.3595 -5.016,0 -7.068,-0.1617 -4.56,-0.3595 z m -510.21463,-0.9586 c 2.25796,-0.2027 5.71396,-0.1999 7.68,0.01 1.96604,0.2063 0.11863,0.3722 -4.10537,0.3688 -4.224,0 -5.83259,-0.1723 -3.57463,-0.3751 z m 529.41463,0 c 2.508,-0.1977 6.612,-0.1977 9.12,0 2.508,0.1978 0.456,0.3596 -4.56,0.3596 -5.016,0 -7.068,-0.1618 -4.56,-0.3596 z m -545.73463,-0.9585 c 2.25796,-0.2028 5.71396,-0.2 7.68,0.01 1.96604,0.2063 0.11863,0.3722 -4.10537,0.3687 -4.224,0 -5.83259,-0.1723 -3.57463,-0.3751 z m 563.01463,0.01 c 1.98,-0.2071 5.22,-0.2071 7.2,0 1.98,0.2071 0.36,0.3766 -3.6,0.3766 -3.96,0 -5.58,-0.1695 -3.6,-0.3766 z m -577.44,-0.9551 c 1.716,-0.213 4.524,-0.213 6.24,0 1.716,0.2129 0.312,0.3871 -3.12,0.3871 -3.432,0 -4.836,-0.1742 -3.12,-0.3871 z m 592.32,0 c 1.716,-0.213 4.524,-0.213 6.24,0 1.716,0.2129 0.312,0.3871 -3.12,0.3871 -3.432,0 -4.836,-0.1742 -3.12,-0.3871 z m -605.76,-0.96 c 1.716,-0.213 4.524,-0.213 6.24,0 1.716,0.2129 0.312,0.3871 -3.12,0.3871 -3.432,0 -4.836,-0.1742 -3.12,-0.3871 z m 619.2,0 c 1.716,-0.213 4.524,-0.213 6.24,0 1.716,0.2129 0.312,0.3871 -3.12,0.3871 -3.432,0 -4.836,-0.1742 -3.12,-0.3871 z m -631.2,-0.9532 c 1.452,-0.2199 3.828,-0.2199 5.28,0 1.452,0.22 0.264,0.3999 -2.64,0.3999 -2.904,0 -4.092,-0.1799 -2.64,-0.3999 z m 644.16,0 c 1.452,-0.2199 3.828,-0.2199 5.28,0 1.452,0.22 0.264,0.3999 -2.64,0.3999 -2.904,0 -4.092,-0.1799 -2.64,-0.3999 z m -654.7068,-0.9613 c 1.45926,-0.2206 3.61926,-0.2147 4.8,0.014 1.18074,0.2278 -0.0131,0.4084 -2.6532,0.4012 -2.64,-0.01 -3.60606,-0.1937 -2.1468,-0.4144 z m 666.24,0 c 1.4592,-0.2206 3.6192,-0.2147 4.8,0.014 1.1808,0.2278 -0.014,0.4084 -2.6532,0.4012 -2.64,-0.01 -3.606,-0.1937 -2.1468,-0.4144 z M 588.24,1689.8825 c 1.188,-0.2288 3.132,-0.2288 4.32,0 1.188,0.2288 0.216,0.416 -2.16,0.416 -2.376,0 -3.348,-0.1872 -2.16,-0.416 z m 686.4,0 c 1.188,-0.2288 3.132,-0.2288 4.32,0 1.188,0.2288 0.216,0.416 -2.16,0.416 -2.376,0 -3.348,-0.1872 -2.16,-0.416 z m -695.02881,-0.9615 c 1.19416,-0.2296 2.92216,-0.2209 3.84,0.019 0.91785,0.2403 -0.0592,0.4282 -2.17119,0.4175 -2.112,-0.011 -2.86296,-0.2073 -1.66881,-0.4369 z m 704.64001,0 c 1.1942,-0.2296 2.9222,-0.2209 3.84,0.019 0.9178,0.2403 -0.06,0.4282 -2.1712,0.4175 -2.112,-0.011 -2.863,-0.2073 -1.6688,-0.4369 z m -713.28001,-0.96 c 1.19416,-0.2296 2.92216,-0.2209 3.84,0.019 0.91785,0.2403 -0.0592,0.4282 -2.17119,0.4175 -2.112,-0.011 -2.86296,-0.2073 -1.66881,-0.4369 z m 721.92001,0 c 1.1942,-0.2296 2.9222,-0.2209 3.84,0.019 0.9178,0.2403 -0.059,0.4282 -2.1712,0.4175 -2.112,-0.011 -2.863,-0.2073 -1.6688,-0.4369 z M 562.8,1687.0183 c 0.924,-0.2416 2.436,-0.2416 3.36,0 0.924,0.2414 0.168,0.439 -1.68,0.439 -1.848,0 -2.604,-0.1976 -1.68,-0.439 z m 738.2582,0 c 0.9341,-0.2434 2.2301,-0.2275 2.88,0.035 0.6501,0.2629 -0.1142,0.462 -1.6982,0.4426 -1.584,-0.019 -2.1157,-0.2348 -1.1818,-0.4782 z m -744.95993,-0.96 c 0.93405,-0.2434 2.23005,-0.2275 2.88,0.036 0.64995,0.2629 -0.11427,0.462 -1.69827,0.4426 -1.584,-0.019 -2.11578,-0.2348 -1.18173,-0.4782 z m 751.67993,0 c 0.9341,-0.2434 2.2301,-0.2275 2.88,0.036 0.6501,0.2629 -0.1142,0.462 -1.6982,0.4426 -1.584,-0.019 -2.1157,-0.2348 -1.1818,-0.4782 z M 549.84,1685.1277 c 0.66,-0.2663 1.74,-0.2663 2.4,0 0.66,0.2663 0.12,0.4843 -1.2,0.4843 -1.32,0 -1.86,-0.218 -1.2,-0.4843 z m 764.16,0 c 0.66,-0.2663 1.74,-0.2663 2.4,0 0.66,0.2663 0.12,0.4843 -1.2,0.4843 -1.32,0 -1.86,-0.218 -1.2,-0.4843 z m -768.9,-0.9799 c 0.693,-0.2774 1.521,-0.2433 1.84,0.076 0.319,0.319 -0.248,0.546 -1.26,0.5043 -1.11835,-0.046 -1.34582,-0.2736 -0.58,-0.58 z m 774.1982,-0.01 c 0.9341,-0.2434 2.2301,-0.2274 2.88,0.035 0.6501,0.2629 -0.1142,0.462 -1.6982,0.4426 -1.584,-0.019 -2.1157,-0.2348 -1.1818,-0.4782 z M 540.3,1683.1877 c 0.693,-0.2774 1.521,-0.2433 1.84,0.076 0.319,0.319 -0.248,0.546 -1.26,0.5043 -1.11835,-0.046 -1.34582,-0.2736 -0.58,-0.58 z m 785.28,0 c 0.693,-0.2774 1.521,-0.2433 1.84,0.076 0.319,0.319 -0.248,0.546 -1.26,0.5043 -1.1184,-0.046 -1.3458,-0.2736 -0.58,-0.58 z m -790.14,-0.9435 c 0.66,-0.2663 1.74,-0.2663 2.4,0 0.66,0.2663 0.12,0.4842 -1.2,0.4842 -1.32,0 -1.86,-0.2179 -1.2,-0.4842 z m 797.82,-0.98 c 0.693,-0.2773 1.521,-0.2432 1.84,0.076 0.319,0.319 -0.248,0.5459 -1.26,0.5043 -1.1184,-0.046 -1.3458,-0.2736 -0.58,-0.5801 z m 9.8764,-7.3079 c -1.2143,-2.022 -1.1939,-2.0425 0.4592,-0.4591 0.9515,0.9114 1.5235,1.8637 1.2709,2.1163 -0.2526,0.2525 -1.0311,-0.4932 -1.7301,-1.6572 z M 534.48,1668.8042 c 0.66,-0.2663 1.74,-0.2663 2.4,0 0.66,0.2663 0.12,0.4842 -1.2,0.4842 -1.32,0 -1.86,-0.2179 -1.2,-0.4842 z m 4.8,-0.96 c 0.66,-0.2663 1.74,-0.2663 2.4,0 0.66,0.2663 0.12,0.4842 -1.2,0.4842 -1.32,0 -1.86,-0.2179 -1.2,-0.4842 z m 786.24,0 c 0.66,-0.2663 1.74,-0.2663 2.4,0 0.66,0.2663 0.12,0.4842 -1.2,0.4842 -1.32,0 -1.86,-0.2179 -1.2,-0.4842 z m -781.44,-0.96 c 0.66,-0.2663 1.74,-0.2663 2.4,0 0.66,0.2663 0.12,0.4842 -1.2,0.4842 -1.32,0 -1.86,-0.2179 -1.2,-0.4842 z m 777.66,-0.02 c 0.693,-0.2773 1.521,-0.2432 1.84,0.076 0.319,0.319 -0.248,0.5459 -1.26,0.5043 -1.1184,-0.046 -1.3458,-0.2736 -0.58,-0.5801 z m -772.36173,-0.9695 c 0.93405,-0.2433 2.23005,-0.2274 2.88,0.035 0.64995,0.263 -0.11427,0.4621 -1.69827,0.4426 -1.584,-0.019 -2.11578,-0.2347 -1.18173,-0.4782 z m 766.54173,0.03 c 0.66,-0.2663 1.74,-0.2663 2.4,0 0.66,0.2663 0.12,0.4842 -1.2,0.4842 -1.32,0 -1.86,-0.2179 -1.2,-0.4842 z m -761.28,-0.96 c 0.66,-0.2663 1.74,-0.2663 2.4,0 0.66,0.2663 0.12,0.4842 -1.2,0.4842 -1.32,0 -1.86,-0.2179 -1.2,-0.4842 z m 755.0582,-0.03 c 0.9341,-0.2433 2.2301,-0.2274 2.88,0.035 0.6501,0.263 -0.1142,0.4621 -1.6982,0.4426 -1.584,-0.019 -2.1157,-0.2347 -1.1818,-0.4782 z M 560.88,1663.9781 c 0.924,-0.2416 2.436,-0.2416 3.36,0 0.924,0.2414 0.168,0.439 -1.68,0.439 -1.848,0 -2.604,-0.1976 -1.68,-0.439 z m 742.0982,0 c 0.9341,-0.2434 2.2301,-0.2274 2.88,0.035 0.6501,0.2629 -0.1142,0.462 -1.6982,0.4426 -1.584,-0.019 -2.1157,-0.2348 -1.1818,-0.4782 z M 568.56,1663.0216 c 0.924,-0.2415 2.436,-0.2415 3.36,0 0.924,0.2415 0.168,0.439 -1.68,0.439 -1.848,0 -2.604,-0.1975 -1.68,-0.439 z m 726.2512,-0.017 c 1.1942,-0.2297 2.9222,-0.2209 3.84,0.019 0.9178,0.2402 -0.06,0.4281 -2.1712,0.4175 -2.112,-0.011 -2.863,-0.2073 -1.6688,-0.4369 z M 576.72,1662.0425 c 1.188,-0.2288 3.132,-0.2288 4.32,0 1.188,0.2288 0.216,0.416 -2.16,0.416 -2.376,0 -3.348,-0.1872 -2.16,-0.416 z m 709.92,0.015 c 0.924,-0.2415 2.436,-0.2415 3.36,0 0.924,0.2414 0.168,0.439 -1.68,0.439 -1.848,0 -2.604,-0.1976 -1.68,-0.439 z m -700.30881,-0.9773 c 1.19416,-0.2296 2.92216,-0.2209 3.84,0.019 0.91785,0.2403 -0.0592,0.4282 -2.17119,0.4175 -2.112,-0.01 -2.86296,-0.2073 -1.66881,-0.4369 z m 691.18881,0 c 1.188,-0.2289 3.132,-0.2289 4.32,0 1.188,0.2288 0.216,0.416 -2.16,0.416 -2.376,0 -3.348,-0.1872 -2.16,-0.416 z m -682.0668,-0.9714 c 1.45926,-0.2206 3.61926,-0.2148 4.8,0.013 1.18074,0.2278 -0.0131,0.4084 -2.6532,0.4012 -2.64,-0.01 -3.60606,-0.1936 -2.1468,-0.4143 z m 672,0 c 1.4592,-0.2206 3.6192,-0.2148 4.8,0.013 1.1808,0.2278 -0.014,0.4084 -2.6532,0.4012 -2.64,-0.01 -3.606,-0.1936 -2.1468,-0.4143 z m -661.44,-0.96 c 1.45926,-0.2206 3.61926,-0.2148 4.8,0.013 1.18074,0.2278 -0.0131,0.4084 -2.6532,0.4012 -2.64,-0.01 -3.60606,-0.1936 -2.1468,-0.4143 z m 649.9068,0 c 1.452,-0.22 3.828,-0.22 5.28,0 1.452,0.22 0.264,0.3999 -2.64,0.3999 -2.904,0 -4.092,-0.1799 -2.64,-0.3999 z m -638.88,-0.9668 c 1.716,-0.213 4.524,-0.213 6.24,0 1.716,0.2129 0.312,0.3871 -3.12,0.3871 -3.432,0 -4.836,-0.1742 -3.12,-0.3871 z m 626.8972,0 c 1.7255,-0.2137 4.3175,-0.2093 5.76,0.01 1.4426,0.2189 0.031,0.3938 -3.1372,0.3884 -3.168,-0.01 -4.3482,-0.1846 -2.6228,-0.3982 z M 630.48,1657.2255 c 1.716,-0.2129 4.524,-0.2129 6.24,0 1.716,0.213 0.312,0.3872 -3.12,0.3872 -3.432,0 -4.836,-0.1742 -3.12,-0.3872 z m 600,0 c 1.716,-0.2129 4.524,-0.2129 6.24,0 1.716,0.213 0.312,0.3872 -3.12,0.3872 -3.432,0 -4.836,-0.1742 -3.12,-0.3872 z m -585.57463,-0.9697 c 2.25796,-0.2027 5.71396,-0.1999 7.68,0.01 1.96604,0.2063 0.11863,0.3722 -4.10537,0.3688 -4.224,0 -5.83259,-0.1723 -3.57463,-0.3751 z m 15.81463,-0.9552 c 1.98,-0.207 5.22,-0.207 7.2,0 1.98,0.2072 0.36,0.3766 -3.6,0.3766 -3.96,0 -5.58,-0.1694 -3.6,-0.3766 z m 531.6,0.3313 c 0,-0.2024 1.0669,-0.572 2.3709,-0.8213 1.3041,-0.2493 2.1425,-0.084 1.8634,0.3681 -0.4916,0.7954 -4.2343,1.196 -4.2343,0.4532 z m -514.76782,-1.3008 c 2.7897,-0.1945 7.1097,-0.1924 9.6,0 2.4903,0.1971 0.20782,0.3563 -5.07218,0.3538 -5.28,0 -7.31752,-0.1638 -4.52782,-0.3583 z m 194.85901,-4.7701 c 1.19416,-0.2296 2.92216,-0.2209 3.84,0.019 0.91785,0.2403 -0.0592,0.4282 -2.17119,0.4175 -2.112,-0.011 -2.86296,-0.2073 -1.66881,-0.4369 z M 994.32,1649.532 c 2.772,-0.1939 7.308,-0.1939 10.08,0 2.772,0.1939 0.504,0.3525 -5.04,0.3525 -5.544,0 -7.812,-0.1586 -5.04,-0.3525 z m -82.97389,-0.9716 c 12.57635,-0.1517 32.88035,-0.1515 45.12,4e-4 12.23965,0.1518 1.94989,0.2759 -22.86611,0.2757 -24.816,-2e-4 -34.83025,-0.1244 -22.25389,-0.2761 z m 98.64959,-2.7207 c 0.046,-1.1184 0.2736,-1.3458 0.5801,-0.58 0.2773,0.693 0.2432,1.521 -0.076,1.84 -0.319,0.319 -0.5459,-0.248 -0.5043,-1.26 z M 856.32,1636.8 l -12,-0.5708 11.70334,-0.1946 c 6.98499,-0.1162 11.94254,0.1925 12.29666,0.7654 0.32632,0.528 0.45982,0.8724 0.29666,0.7654 -0.16316,-0.107 -5.69666,-0.4515 -12.29666,-0.7654 z m 160.08,-0.7108 c 3.3,-0.1875 8.7,-0.1875 12,0 3.3,0.1875 0.6,0.3408 -6,0.3408 -6.6,0 -9.3,-0.1533 -6,-0.3408 z m -189.6,-0.9548 c 2.508,-0.1978 6.612,-0.1978 9.12,0 2.508,0.1978 0.456,0.3595 -4.56,0.3595 -5.016,0 -7.068,-0.1617 -4.56,-0.3595 z m 216.96,0 c 2.508,-0.1978 6.612,-0.1978 9.12,0 2.508,0.1978 0.456,0.3595 -4.56,0.3595 -5.016,0 -7.068,-0.1617 -4.56,-0.3595 z m -230.86281,-0.9501 c 1.72546,-0.2137 4.31746,-0.2093 5.76,0.01 1.44255,0.219 0.0308,0.3938 -3.13719,0.3884 -3.168,-0.01 -4.34826,-0.1846 -2.62281,-0.3982 z m 248.64001,0 c 1.7255,-0.2137 4.3175,-0.2093 5.76,0.01 1.4426,0.219 0.031,0.3938 -3.1372,0.3884 -3.168,-0.01 -4.3482,-0.1846 -2.6228,-0.3982 z m -258.724,-0.9532 c 1.45926,-0.2206 3.61926,-0.2147 4.8,0.013 1.18074,0.2279 -0.0131,0.4084 -2.6532,0.4012 -2.64,-0.01 -3.60606,-0.1936 -2.1468,-0.4143 z m 269.2668,0.012 c 1.188,-0.2288 3.132,-0.2288 4.32,0 1.188,0.2288 0.216,0.416 -2.16,0.416 -2.376,0 -3.348,-0.1872 -2.16,-0.416 z m -276.96,-0.9442 c 0.924,-0.2416 2.436,-0.2416 3.36,0 0.924,0.2414 0.168,0.439 -1.68,0.439 -1.848,0 -2.604,-0.1976 -1.68,-0.439 z m 286.5712,-0.017 c 1.1942,-0.2296 2.9222,-0.2209 3.84,0.019 0.9178,0.2403 -0.059,0.4281 -2.1712,0.4175 -2.112,-0.011 -2.863,-0.2073 -1.6688,-0.4369 z M 788.4,1631.3384 c 0.924,-0.2416 2.436,-0.2416 3.36,0 0.924,0.2414 0.168,0.439 -1.68,0.439 -1.848,0 -2.604,-0.1976 -1.68,-0.439 z m 300.48,0 c 0.924,-0.2416 2.436,-0.2416 3.36,0 0.924,0.2414 0.168,0.439 -1.68,0.439 -1.848,0 -2.604,-0.1976 -1.68,-0.439 z m -307.2,-0.96 c 0.924,-0.2416 2.436,-0.2416 3.36,0 0.924,0.2414 0.168,0.439 -1.68,0.439 -1.848,0 -2.604,-0.1976 -1.68,-0.439 z m 313.9382,0 c 0.9341,-0.2434 2.2301,-0.2275 2.88,0.035 0.6501,0.2629 -0.1142,0.462 -1.6982,0.4425 -1.584,-0.019 -2.1157,-0.2347 -1.1818,-0.4781 z M 776.4,1629.4478 c 0.66,-0.2663 1.74,-0.2663 2.4,0 0.66,0.2663 0.12,0.4843 -1.2,0.4843 -1.32,0 -1.86,-0.218 -1.2,-0.4843 z m 326.16,-0.3278 c 1.584,-0.4031 3.96,-0.7329 5.28,-0.7329 2.1408,0 2.089,0.079 -0.48,0.7329 -1.584,0.4031 -3.96,0.7329 -5.28,0.7329 -2.1408,0 -2.089,-0.079 0.48,-0.7329 z m -331.42173,-0.6653 c 0.93405,-0.2433 2.23005,-0.2274 2.88,0.035 0.64995,0.263 -0.11427,0.4621 -1.69827,0.4426 -1.584,-0.019 -2.11578,-0.2347 -1.18173,-0.4782 z M 763.2,1627.2 c -1.9004,-0.6086 -2.00032,-0.7686 -0.48,-0.7686 1.056,0 3,0.3458 4.32,0.7686 1.9004,0.6086 2.00032,0.7686 0.48,0.7686 -1.056,0 -3,-0.3458 -4.32,-0.7686 z m 348.3,0.3042 c 0.693,-0.2773 1.521,-0.2432 1.84,0.076 0.319,0.319 -0.248,0.5459 -1.26,0.5043 -1.1184,-0.046 -1.3458,-0.2736 -0.58,-0.5801 z m 3.78,-0.94 c 0.66,-0.2663 1.74,-0.2663 2.4,0 0.66,0.2663 0.12,0.4842 -1.2,0.4842 -1.32,0 -1.86,-0.2179 -1.2,-0.4842 z m -357.06,-0.98 c 0.693,-0.2773 1.521,-0.2432 1.84,0.076 0.319,0.319 -0.248,0.5459 -1.26,0.5043 -1.11835,-0.046 -1.34582,-0.2736 -0.58,-0.5801 z m 361.92,0 c 0.693,-0.2773 1.521,-0.2432 1.84,0.076 0.319,0.319 -0.248,0.5459 -1.26,0.5043 -1.1184,-0.046 -1.3458,-0.2736 -0.58,-0.5801 z m -365.76,-0.96 c 0.693,-0.2773 1.521,-0.2432 1.84,0.076 0.319,0.319 -0.248,0.5459 -1.26,0.5043 -1.11835,-0.046 -1.34582,-0.2736 -0.58,-0.5801 z m 369.6,0 c 0.693,-0.2773 1.521,-0.2432 1.84,0.076 0.319,0.319 -0.248,0.5459 -1.26,0.5043 -1.1184,-0.046 -1.3458,-0.2736 -0.58,-0.5801 z m -260.7,-8.6459 c 0.924,-0.2416 2.436,-0.2416 3.36,0 0.924,0.2414 0.168,0.439 -1.68,0.439 -1.848,0 -2.604,-0.1976 -1.68,-0.439 z m -14.85463,-1.0025 c 2.25796,-0.2027 5.71396,-0.1999 7.68,0.01 1.96604,0.2063 0.11863,0.3722 -4.10537,0.3688 -4.224,0 -5.83259,-0.1723 -3.57463,-0.3751 z M 832.56,1614.0206 c 1.98,-0.207 5.22,-0.207 7.2,0 1.98,0.2072 0.36,0.3766 -3.6,0.3766 -3.96,0 -5.58,-0.1694 -3.6,-0.3766 z m 178.08,0.063 c 0.66,-0.2663 1.74,-0.2663 2.4,0 0.66,0.2663 0.12,0.4842 -1.2,0.4842 -1.32,0 -1.86,-0.2179 -1.2,-0.4842 z m -190.56,-1.0118 c 1.452,-0.22 3.828,-0.22 5.28,0 1.452,0.22 0.264,0.3999 -2.64,0.3999 -2.904,0 -4.092,-0.1799 -2.64,-0.3999 z m 198.2186,-0.01 c 1.7042,-0.2121 4.7282,-0.2157 6.72,-0.01 1.9918,0.2078 0.5974,0.3813 -3.0986,0.3856 -3.696,0 -5.3256,-0.1658 -3.6214,-0.3779 z M 808.56,1612.1124 c 1.452,-0.22 3.828,-0.22 5.28,0 1.452,0.22 0.264,0.3999 -2.64,0.3999 -2.904,0 -4.092,-0.1799 -2.64,-0.3999 z m 223.68,0 c 1.452,-0.22 3.828,-0.22 5.28,0 1.452,0.22 0.264,0.3999 -2.64,0.3999 -2.904,0 -4.092,-0.1799 -2.64,-0.3999 z m -233.76,-0.9499 c 1.188,-0.2288 3.132,-0.2288 4.32,0 1.188,0.2288 0.216,0.416 -2.16,0.416 -2.376,0 -3.348,-0.1872 -2.16,-0.416 z m 245.28,-0.01 c 1.452,-0.22 3.828,-0.22 5.28,0 1.452,0.22 0.264,0.3999 -2.64,0.3999 -2.904,0 -4.092,-0.1799 -2.64,-0.3999 z m -252.48,-0.9341 c 0.924,-0.2415 2.436,-0.2415 3.36,0 0.924,0.2414 0.168,0.439 -1.68,0.439 -1.848,0 -2.604,-0.1976 -1.68,-0.439 z m 263.0532,-0.027 c 1.4592,-0.2206 3.6192,-0.2147 4.8,0.013 1.1808,0.2279 -0.014,0.4084 -2.6532,0.4012 -2.64,-0.01 -3.606,-0.1936 -2.1468,-0.4143 z m 9.6,-0.96 c 1.4592,-0.2206 3.6192,-0.2147 4.8,0.013 1.1808,0.2279 -0.013,0.4084 -2.6532,0.4012 -2.64,-0.01 -3.606,-0.1936 -2.1468,-0.4143 z m 9.6,-0.96 c 1.4592,-0.2206 3.6192,-0.2147 4.8,0.013 1.1808,0.2279 -0.014,0.4084 -2.6532,0.4012 -2.64,-0.01 -3.606,-0.1936 -2.1468,-0.4143 z M 681.84209,1574.88 c 0.0107,-2.112 0.20726,-2.863 0.43688,-1.6688 0.22962,1.1942 0.22091,2.9222 -0.0194,3.84 -0.24028,0.9178 -0.42816,-0.06 -0.41751,-2.1712 z m 0.96,-24 c 0.0107,-2.112 0.20726,-2.863 0.43688,-1.6688 0.22962,1.1942 0.22091,2.9222 -0.0194,3.84 -0.24028,0.9178 -0.42816,-0.06 -0.41751,-2.1712 z m 0.97938,-23.52 c 0,-2.376 0.18721,-3.348 0.41603,-2.16 0.22883,1.188 0.22883,3.132 0,4.32 -0.22882,1.188 -0.41603,0.216 -0.41603,-2.16 z m 0.96,-24 c 0,-2.376 0.18721,-3.348 0.41603,-2.16 0.22883,1.188 0.22883,3.132 0,4.32 -0.22882,1.188 -0.41603,0.216 -0.41603,-2.16 z m 0.92125,-23.04 c 0,-1.848 0.19757,-2.604 0.43904,-1.68 0.24146,0.924 0.24146,2.436 0,3.36 -0.24147,0.924 -0.43904,0.168 -0.43904,-1.68 z m 0.92443,-23.52 c 0.0196,-1.584 0.23472,-2.1157 0.47812,-1.1818 0.2434,0.9341 0.2274,2.2301 -0.0356,2.88 -0.26297,0.6501 -0.46211,-0.1142 -0.44255,-1.6982 z m 1.01494,-24.96 c 0.0107,-2.112 0.20726,-2.863 0.43688,-1.6688 0.22962,1.1942 0.22091,2.9222 -0.0194,3.84 -0.24028,0.9178 -0.42816,-0.059 -0.41751,-2.1712 z m 0.96,-24 c 0.0107,-2.112 0.20726,-2.863 0.43688,-1.6688 0.22962,1.1942 0.22091,2.9222 -0.0194,3.84 -0.24028,0.9178 -0.42816,-0.059 -0.41751,-2.1712 z m 0.96,-24 c 0.0107,-2.112 0.20726,-2.863 0.43688,-1.6688 0.22962,1.1942 0.22091,2.9222 -0.0194,3.84 -0.24028,0.9178 -0.42816,-0.059 -0.41751,-2.1712 z m 0.96,-24 c 0.0107,-2.112 0.20726,-2.863 0.43688,-1.6688 0.22962,1.1942 0.22091,2.9222 -0.0194,3.84 -0.24028,0.9178 -0.42816,-0.059 -0.41751,-2.1712 z m 0.97938,-23.52 c 0,-2.376 0.18721,-3.348 0.41603,-2.16 0.22883,1.188 0.22883,3.132 0,4.32 -0.22882,1.188 -0.41603,0.216 -0.41603,-2.16 z m 0.96,-24 c 0,-2.376 0.18721,-3.348 0.41603,-2.16 0.22883,1.188 0.22883,3.132 0,4.32 -0.22882,1.188 -0.41603,0.216 -0.41603,-2.16 z m 0.92125,-23.04 c 0,-1.848 0.19757,-2.604 0.43904,-1.68 0.24146,0.924 0.24146,2.436 0,3.36 -0.24147,0.924 -0.43904,0.168 -0.43904,-1.68 z m 0.97937,-24.48 c 0.0107,-2.112 0.20726,-2.863 0.43688,-1.6688 0.22962,1.1942 0.22091,2.9222 -0.0194,3.84 -0.24028,0.9178 -0.42816,-0.059 -0.41751,-2.1712 z m 0.96,-24 c 0.0107,-2.112 0.20726,-2.863 0.43688,-1.6688 0.22962,1.1942 0.22091,2.9222 -0.0194,3.84 -0.24028,0.9178 -0.42816,-0.059 -0.41751,-2.1712 z m 0.97938,-22.56 c 0,-2.376 0.18721,-3.348 0.41603,-2.16 0.22883,1.188 0.22883,3.132 0,4.32 -0.22882,1.188 -0.41603,0.216 -0.41603,-2.16 z m 0.96,-24 c 0,-2.376 0.18721,-3.348 0.41603,-2.16 0.22883,1.188 0.22883,3.132 0,4.32 -0.22882,1.188 -0.41603,0.216 -0.41603,-2.16 z m -0.47198,-12.1006 c -0.37978,-0.5834 -3.40378,-2.0341 -6.72,-3.2238 -6.72742,-2.4136 -25.11824,-11.7209 -28.14666,-14.2447 -2.63522,-2.196 -12.11806,-24.4375 -16.29652,-38.2226 -4.00731,-13.2205 -7.4449,-29.7351 -9.76836,-46.9283 -2.12757,-15.7436 -2.45026,-75.9066 -0.50461,-94.08 9.43926,-88.16746 34.60164,-166.8233 71.09562,-222.24 l 7.27027,-11.04 0.73273,-13.92 c 1.89082,-35.92066 2.20395,-40.55768 2.50736,-37.13061 0.17867,2.01817 -0.13379,13.46617 -0.69438,25.44 -0.56057,11.97384 -2.74155,64.10661 -4.84663,115.85061 -2.10507,51.744 -4.27268,103.152 -4.81692,114.24 -0.54423,11.088 -2.50823,60.12 -4.36443,108.96 -4.09897,107.8512 -4.56821,117.8899 -5.44747,116.5394 z M 1184.64,1170.0755 c -16.8677,-1.1799 -16.6956,-1.1569 -17.76,-2.3664 -0.528,-0.5999 -3.8221,-2.0213 -7.3203,-3.1584 -25.2466,-8.2069 -49.4694,-36.5729 -59.4942,-69.6707 -3.9711,-13.1107 -4.3839,-13.7823 -11.4545,-18.6336 -72.7258,-49.8982 -137.68669,-121.94162 -194.84345,-216.0864 -5.93032,-9.768 -11.70604,-18.78696 -12.83496,-20.04214 l -2.05259,-2.28214 2.88,1.42606 c 6.27734,3.10831 31.18149,7.96831 46.29037,9.03349 4.8677,0.34317 8.6594,0.93295 8.42599,1.31061 -0.57058,0.92324 16.32248,25.75552 30.03263,44.14709 30.02871,40.2821 66.26601,81.2717 101.08461,114.34143 26.3901,25.0645 26.8244,25.3549 26.7845,17.9056 -0.022,-4.0216 -0.2417,-4.2861 -15.3749,-18.48 -33.1636,-31.10525 -70.718,-73.23254 -99.27184,-111.36 -14.2729,-19.0583 -15.61766,-20.97215 -25.4914,-36.2769 -3.33428,-5.1683 -6.60109,-9.7043 -7.2596,-10.08 -0.6585,-0.37571 3.40553,-0.7894 9.03119,-0.91934 20.58752,-0.47548 46.34965,-5.02322 64.76315,-11.43256 32.2131,-11.21265 51.8044,-28.74023 59.387,-53.1312 2.1508,-6.91876 2.2371,-8.39997 2.2096,-37.92 -0.015,-16.896 -0.615,-48.98469 -1.3317,-71.3082 -0.7168,-22.32352 -1.0535,-40.83789 -0.7483,-41.14305 1.5235,-1.52358 22.2984,13.02148 40.0287,28.02524 14.6414,12.38993 20.141,19.06126 33.4537,40.58205 2.7204,4.39782 4.9463,8.21913 4.9463,8.49181 0,0.27267 0.8023,1.64245 1.7827,3.04395 0.9806,1.40151 2.8635,4.4922 4.1844,6.8682 1.3207,2.376 3.3978,6.048 4.6157,8.16 4.0545,7.03174 9.2963,17.12195 17.3302,33.36 4.3755,8.844 8.4171,16.07993 8.9812,16.07986 0.7212,-1.1e-4 0.9454,21.88384 0.7555,73.68 -0.1488,40.52407 -0.05,74.58391 0.2202,75.68853 0.4725,1.93426 1.0139,2.00253 14.6703,1.84959 l 14.1798,-0.15881 0.2935,-38.32959 0.2935,-38.32958 4.7651,14.88 c 7.5537,23.58794 17.8722,64.38841 16.7452,66.21198 -0.2448,0.39616 -2.7249,0.11222 -5.5112,-0.63097 -7.1093,-1.89622 -24.7977,-3.09423 -40.281,-2.72816 -12.7956,0.30254 -13.3164,0.39853 -20.16,3.71565 -9.2684,4.49245 -13.1519,7.87456 -18.8863,16.44817 -6.333,9.46867 -8.9875,16.65725 -9.0482,24.50333 -0.056,7.22851 1.6009,11.74378 5.8791,16.02192 l 3.0038,3.00394 -2.5961,5.60707 c -3.033,6.55057 -4.229,18.49497 -2.108,21.05067 2.6671,3.2137 5.9447,12.738 6.7438,19.5964 0.6139,5.2692 1.808,9.1195 4.4529,14.3583 6.1997,12.2802 16.2339,18.4707 33.2366,20.5053 15.1861,1.8171 29.0868,-1.4822 39.9558,-9.4835 3.1828,-2.3431 6.2177,-4.2601 6.7442,-4.2601 1.7918,0 0.9638,3.9517 -2.3147,11.0477 -3.9868,8.629 -8.6451,15.7219 -14.4601,22.0177 l -4.383,4.7454 0.2575,21.6177 0.2576,21.6177 8.246,-8.1231 c 4.5353,-4.4677 9.61,-10.1429 11.277,-12.6117 7.7636,-11.4971 14.131,-27.855 17.0602,-43.8273 1.5007,-8.1826 3.4479,-47.6583 3.6423,-73.8398 0.087,-11.78811 0.2047,-12.56945 1.6055,-10.71128 2.0636,2.73725 6.187,15.83848 8.2798,26.30698 1.3585,6.7955 1.7191,13.1488 1.6893,29.76 -0.04,22.3489 -1.3089,31.8283 -6.3593,47.52 -2.5879,8.0411 -11.0147,25.062 -16.1553,32.632 -5.4146,7.9732 -15.4521,18.4846 -23.0455,24.1333 -3.432,2.5531 -6.672,4.9975 -7.2,5.4319 -0.6356,0.5229 -1.0569,-9.9342 -1.2466,-30.9437 -0.321,-35.5483 -0.9981,-31.6783 7.3288,-41.8896 4.0014,-4.907 10.2891,-16.0327 9.5044,-16.8174 -0.2086,-0.2085 -2.8902,0.9809 -5.9593,2.6432 -6.4452,3.4908 -11.5149,4.1212 -32.7304,4.0697 -13.0644,-0.032 -13.7098,-0.1296 -19.8726,-3.0135 -12.3045,-5.7579 -19.9153,-16.75 -22.3014,-32.209 -0.6688,-4.3323 -2.1511,-9.9289 -3.2943,-12.4369 l -2.0785,-4.56 h -6.5262 c -5.0082,0 -6.8817,-0.3926 -8.0539,-1.688 -0.8402,-0.9284 -2.2215,-5.7884 -3.0696,-10.8 -0.848,-5.0116 -1.8651,-10.84 -2.2604,-12.952 l -0.7184,-3.84 -2.9993,7.68 c -12.3194,31.5468 -5.6396,68.1949 16.4513,90.258 11.305,11.2908 23.3784,16.7708 37.7637,17.1408 5.7755,0.1486 8.2884,0.5981 8.9637,1.6038 0.5754,0.857 0.8301,12.6278 0.6586,30.4372 -0.1537,15.9719 -0.2796,28.9758 -0.2796,28.8974 0,-0.079 -5.4,-0.5201 -12,-0.9817 z m -7.68,-9.4264 c 4.488,-0.5149 10.428,-1.4063 13.2,-1.9807 l 5.04,-1.0445 v -21.3909 -21.391 l -8.88,-0.5298 c -16.3988,-0.9785 -29.8356,-7.5654 -41.9967,-20.5875 -11.6011,-12.4223 -19.3341,-30.7997 -21.1226,-50.1973 -1.7347,-18.814 3.6898,-43.2626 12.3068,-55.46737 1.23,-1.74221 1.8902,-4.38912 1.9704,-7.90003 0.066,-2.904 0.3297,-6.36 0.5851,-7.68 0.2556,-1.32 0.7149,-3.696 1.0209,-5.28 1.6035,-8.30267 7.5302,-19.78417 13.1702,-25.51386 2.5587,-2.59938 4.3951,-4.72614 4.0808,-4.72614 -1.3448,0 -9.0909,4.38293 -14.4149,8.15623 -7.7957,5.5251 -19.6677,18.13702 -25.5616,27.15459 -11.4383,17.50032 -17.1349,33.86878 -20.2369,58.14848 -1.9445,15.2195 -2.032,17.8345 -1.0028,30.0066 2.0552,24.3103 9.4888,46.5633 22.092,66.1341 8.0316,12.4719 25.0632,28.1893 35.8489,33.0829 4.7866,2.1719 11.3382,2.4477 23.9004,1.0062 z m 48.2615,4.7909 c 0,-2.376 0.1872,-3.348 0.416,-2.16 0.2288,1.188 0.2288,3.132 0,4.32 -0.2288,1.188 -0.416,0.216 -0.416,-2.16 z m -583.99318,-17.04 -3.30832,-3.6 3.6,3.3084 c 3.3508,3.0792 4.0414,3.8916 3.30832,3.8916 -0.16042,0 -1.78042,-1.62 -3.6,-3.6 z M 1225.3585,834.24 c 0,-9.768 0.1426,-13.764 0.3168,-8.88 0.1742,4.884 0.1742,12.876 0,17.76 -0.1742,4.884 -0.3168,0.888 -0.3168,-8.88 z M 813.27329,701.53572 c -0.0843,-0.91536 -2.26503,-6.96336 -4.84604,-13.44 -2.58102,-6.47664 -8.20274,-21.49572 -12.49272,-33.37572 -8.59475,-23.80095 -8.94753,-24.59192 -10.80519,-24.2261 -3.50252,0.68974 2.93478,-2.69773 9.0564,-4.76571 7.66278,-2.5886 20.0132,-5.76924 20.50241,-5.28005 0.17201,0.17203 -0.0415,18.86157 -0.4744,41.53231 -0.43294,22.67076 -0.85615,40.47063 -0.94046,39.55527 z M 717.36209,691.68 c 0.0107,-2.112 0.20726,-2.86296 0.43688,-1.66881 0.22962,1.19416 0.22091,2.92216 -0.0194,3.84 -0.24028,0.91785 -0.42816,-0.0592 -0.41751,-2.17119 z m 11.23779,-26.64 c 3.9782,-4.23858 4.84012,-5.00073 4.84012,-4.27988 0,0.15407 -2.052,2.20607 -4.56,4.56 L 724.32,669.6 Z m 6.76012,-5.88246 c 0,-0.19934 0.756,-0.95534 1.68,-1.68 1.52262,-1.19411 1.55657,-1.16016 0.36246,0.36246 -1.25412,1.59912 -2.04246,2.10766 -2.04246,1.31754 z m 74.26847,-82.12312 c -5.71334,-2.59435 -11.38323,-8.0853 -14.21354,-13.76499 -2.39104,-4.79819 -2.45493,-5.43403 -2.45493,-24.43094 0,-13.52349 -0.35385,-20.07115 -1.15393,-21.35228 -0.87044,-1.3938 -0.88688,-2.39291 -0.0669,-4.06697 0.59788,-1.22058 1.57771,-3.82429 2.17741,-5.78602 2.19936,-7.19446 15.07523,-18.03322 21.42251,-18.03322 1.65282,0 1.785,0.51791 1.28629,5.04 -0.3057,2.772 -0.8444,22.86 -1.19711,44.64 -0.35271,21.78 -0.90837,39.59052 -1.23479,39.57892 -0.32643,-0.0116 -2.38068,-0.83262 -4.56503,-1.8245 z m 269.03953,-4.10714 c -0.9112,-8.87998 -3.6939,-82.46142 -3.1395,-83.0158 1.1367,-1.13664 9.9399,4.14576 14.6749,8.8057 6.9287,6.81886 7.226,8.40657 6.8834,36.75886 -0.2764,22.86584 -0.3712,23.89759 -2.6184,28.52396 -2.6816,5.52036 -5.1094,8.05511 -11.0492,11.53605 l -4.2292,2.4785 z M 912.78,533.10421 c 0.693,-0.27731 1.521,-0.24321 1.84,0.0758 0.319,0.319 -0.248,0.54589 -1.26,0.50421 -1.11835,-0.0461 -1.34582,-0.27354 -0.58,-0.57999 z m 4.92828,-0.40378 c 1.29156,-0.51582 2.82392,-1.24444 3.40525,-1.61915 0.58133,-0.3747 0.23274,0.0747 -0.77463,0.99872 -1.00739,0.924 -2.53975,1.65262 -3.40525,1.61915 -0.99489,-0.0385 -0.70999,-0.40579 0.77463,-0.99872 z m 49.64004,0.33957 c -0.2447,-0.396 1.63248,-0.72 4.17168,-0.72 2.5392,0 4.41638,0.324 4.17168,0.72 -0.2447,0.396 -2.12198,0.72 -4.17168,0.72 -2.0497,0 -3.92698,-0.324 -4.17168,-0.72 z M 905.62608,518.4 c 0,-5.016 0.1618,-7.068 0.35956,-4.56 0.19776,2.508 0.19776,6.612 0,9.12 -0.19776,2.508 -0.35956,0.456 -0.35956,-4.56 z m 74.60966,7.12 c 0.0461,-1.11835 0.2736,-1.34582 0.58004,-0.58 0.27734,0.693 0.24326,1.521 -0.0758,1.84 -0.31901,0.319 -0.54596,-0.248 -0.50429,-1.26 z m -18.09302,-2.32 c 0,-1.848 0.19757,-2.604 0.43901,-1.68 0.24153,0.924 0.24153,2.436 0,3.36 -0.24144,0.924 -0.43901,0.168 -0.43901,-1.68 z m -0.071,-11.52 c 0,-1.32 0.21792,-1.86 0.48422,-1.2 0.26631,0.66 0.26631,1.74 0,2.4 -0.2663,0.66 -0.48422,0.12 -0.48422,-1.2 z m 18.16416,-0.56 c 0.0461,-1.11835 0.2736,-1.34582 0.58003,-0.58 0.27735,0.693 0.24327,1.521 -0.0758,1.84 -0.31901,0.319 -0.54595,-0.248 -0.50429,-1.26 z m -71.86483,-4.75164 c 1.43599,-1.5106 2.78307,-2.55345 2.99348,-2.31745 0.21042,0.236 -0.96448,1.47194 -2.6109,2.74654 l -2.99349,2.31745 z m 56.64,0 c 1.43597,-1.5106 2.78304,-2.55345 2.99347,-2.31745 0.21043,0.236 -0.96451,1.47194 -2.61091,2.74654 l -2.99347,2.31745 z m 11.03779,-1.03964 c -0.32515,-0.32521 -2.01715,-0.92899 -3.76003,-1.34174 -2.75587,-0.65269 -2.84871,-0.76325 -0.71213,-0.84871 1.35101,-0.054 3.29501,0.53599 4.32,1.3112 1.0249,0.7752 1.61146,1.4232 1.30349,1.44 -0.30807,0.0168 -0.82608,-0.23554 -1.15133,-0.56075 z m -61.87044,-1.99399 c 0.93406,-0.2434 2.23006,-0.2274 2.88,0.0356 0.64995,0.26297 -0.11426,0.46211 -1.69826,0.44255 -1.584,-0.0196 -2.11579,-0.23472 -1.18174,-0.47812 z M 1206.72,307.93928 c -3.432,-0.50298 -6.996,-0.96765 -7.92,-1.03261 -0.924,-0.065 -1.68,-0.41527 -1.68,-0.77847 0,-0.36321 -1.2948,-1.11175 -2.8774,-1.66344 -5.2246,-1.82132 -14.41,-9.90454 -20.1969,-17.77336 -10.049,-13.66453 -8.8602,-40.07801 2.3781,-52.84072 1.351,-1.53413 2.4562,-3.14049 2.4562,-3.56972 0,-0.42922 2.4102,-2.56092 5.356,-4.73713 16.8347,-12.43645 36.4243,-13.61229 53.5784,-3.21595 7.947,4.81631 10.4648,7.30991 15.0596,14.91465 4.4092,7.29746 6.2614,12.65819 7.1686,20.74814 1.4096,12.56925 -4.2784,28.25787 -13.266,36.59011 -0.9369,0.86857 -2.6649,2.49241 -3.84,3.60854 -2.5472,2.41927 -12.887,8.05068 -14.7819,8.05068 -0.7342,0 -1.5827,0.64552 -1.8855,1.43449 -0.3026,0.78897 -1.0331,1.13616 -1.623,0.77154 -1.001,-0.6186 -6.9843,-0.55217 -10.2462,0.11377 -0.792,0.16169 -4.248,-0.11754 -7.68,-0.62052 z m -10.56,-41.13289 c 9.8916,-4.46822 17.2809,-15.72886 17.2757,-26.32639 0,-6.72435 -2.1307,-10.98871 -6.947,-13.92518 -11.9055,-7.2589 -31.4103,9.00346 -31.4393,26.21285 -0.01,3.06222 0.5975,6.73422 1.3394,8.16 1.4868,2.85779 5.0524,6.37596 7.2912,7.19435 3.0471,1.1139 8.3359,0.55636 12.48,-1.31563 z"
       style="fill:#dbaa58;stroke-width:0.99999994" />
    <path
       id="path823"
       d="m 888.79474,1701.9296 c -0.70111,-0.46 -17.25874,-0.9113 -36.79474,-1.0031 -51.89265,-0.2438 -91.68358,-1.1709 -137.28,-3.1981 -97.43255,-4.332 -162.33497,-10.46 -184.8,-17.4486 -6.0735,-1.8892 -7.68,-2.872 -7.68,-4.6978 0,-6.014 45.78132,-13.3456 109.92,-17.603 38.62794,-2.5639 45.22335,-2.939 51.68472,-2.939 6.85781,0 6.93479,-0.029 15.52363,-5.8736 9.29793,-6.3268 29.60381,-16.797 42.59747,-21.9641 l 8.04582,-3.1996 8.75418,2.084 c 25.37454,6.0403 45.9893,8.5215 84.11418,10.1241 l 25.44,1.0692 0.28581,6 c 0.1846,3.8753 0.69452,5.9996 1.44,5.9989 0.6348,-5e-4 32.17983,0.084 70.10006,0.1901 59.28536,0.1644 69.06913,0 69.82533,-1.1989 0.4836,-0.7646 0.886,-3.5746 0.8941,-6.2445 l 0.014,-4.8546 27.6,-1.1275 c 36.2155,-1.4795 51.6631,-3.2643 77.5932,-8.9645 l 13.513,-2.9705 9.7673,3.9379 c 14.079,5.6763 29.1504,13.4366 39.364,20.2682 8.8212,5.9005 14.4424,8.3053 17.0628,7.2998 1.1769,-0.4516 1.3595,-38.03 1.3198,-271.5092 -0.027,-159.2065 -0.4032,-271.5616 -0.9118,-272.3826 -0.6272,-1.0127 -3.0749,-1.4542 -8.891,-1.6038 -14.3853,-0.37 -26.4587,-5.85 -37.7637,-17.1408 -22.0909,-22.0631 -28.7706,-58.7112 -16.4513,-90.258 l 2.9993,-7.68 0.7184,3.84 c 0.3953,2.112 1.4124,7.9404 2.2605,12.952 0.848,5.0116 2.2293,9.8716 3.0695,10.8 1.1722,1.2954 3.0458,1.688 8.0539,1.688 h 6.5263 l 2.0785,4.56 c 1.1431,2.508 2.6255,8.1046 3.2942,12.4369 2.3861,15.459 9.997,26.4511 22.3014,32.209 6.1628,2.8839 6.8082,2.9817 19.8726,3.0135 21.2155,0.052 26.2852,-0.5789 32.7304,-4.0697 3.0691,-1.6623 5.7507,-2.8517 5.9593,-2.6432 0.7847,0.7847 -5.503,11.9104 -9.5044,16.8174 -8.3315,10.217 -7.6518,6.4932 -7.4609,40.8761 0.094,16.896 0.1254,142.5723 0.07,279.2806 -0.073,180.3224 0.1914,248.9118 0.9617,249.84 0.6029,0.7264 2.9818,1.2822 5.5042,1.2859 13.4187,0.02 71.7048,6.0779 88.4425,9.1925 8.8751,1.6516 19.9293,4.8941 21.84,6.4064 9.2577,7.3271 -34.4895,14.8171 -118.8,20.3399 -33.3025,2.1814 -89.5283,4.842 -117.6,5.5647 -90.5708,2.3319 -215.67015,3.7689 -217.60524,2.4996 z M 1224.978,1667.28 c 0.01,-0.66 0,-112.3249 -0.018,-248.1442 -0.023,-156.8028 -0.3751,-247.8364 -0.9652,-249.3888 l -0.9294,-2.4446 -12.2528,0.2688 -12.2529,0.2688 -0.48,247.3601 c -0.264,136.0481 -0.8442,247.7201 -1.2895,248.16 -0.4451,0.4399 -2.1937,-0.8447 -3.8856,-2.8547 -1.692,-2.0101 -3.9869,-4.1701 -5.0999,-4.8 -1.1129,-0.63 -6.0399,-3.885 -10.9489,-7.2335 -10.5202,-7.1759 -21.1909,-12.659 -36.3761,-18.6916 l -11.04,-4.3859 -9.12,2.2198 c -23.5847,5.7405 -51.2078,8.9643 -84.2774,9.8358 -12.8247,0.338 -23.5129,0.9308 -23.7519,1.3173 -0.2389,0.3866 -0.721,7.012 -1.0714,14.7231 l -0.6371,14.0201 93.5089,0.2495 c 51.4299,0.1373 99.6649,0.3555 107.1889,0.4848 10.4219,0.1792 13.6843,-0.051 13.6981,-0.9648 z M 868.08554,1653.6 c -0.12895,-7.392 -0.43939,-13.98 -0.68987,-14.64 -0.3367,-0.8872 -4.27952,-1.2025 -15.12555,-1.2095 -31.24953,-0.02 -66.74817,-3.8826 -92.68706,-10.0848 l -9.85694,-2.3568 -9.59336,3.8219 c -28.13525,11.2091 -56.61276,29.8703 -56.61276,37.098 0,1.0871 15.18215,1.2606 92.4,1.056 l 92.4,-0.2448 z m 355.91426,-537.1196 c 0.5962,-1.1139 0.9126,-6.0501 0.7538,-11.76 l -0.2736,-9.8404 -12.6715,-0.2676 c -15.3977,-0.325 -15.2414,-0.4574 -14.4093,12.2082 0.812,12.3623 -0.1148,11.5794 13.7097,11.5794 10.8803,0 11.9487,-0.1591 12.8909,-1.9196 z M 879.84,1615.9995 c -33.55144,-0.954 -75.59333,-4.2351 -109.44,-8.5414 -31.79268,-4.045 -84.84099,-14.389 -87.60492,-17.0824 -1.15754,-1.128 -0.61417,-18.7245 4.05066,-131.1757 0.27379,-6.6 2.42762,-60.384 4.78629,-119.52 2.35867,-59.136 4.53235,-111.84 4.83038,-117.12 0.29804,-5.28 0.96057,-23.424 1.47229,-40.32 1.159,-38.2677 8.35854,-225.388 9.1233,-237.12 0.30976,-4.752 2.26359,-50.76 4.34185,-102.24 6.61559,-163.87366 6.68625,-165.27133 8.50416,-168.22517 2.69158,-4.37341 18.19618,-17.76102 28.89599,-24.95055 13.69887,-9.20469 36.42828,-20.45526 37.93029,-18.77467 0.60481,0.67671 4.02931,9.43839 7.61,19.47039 3.58069,10.032 9.36621,25.368 12.8567,34.08 l 6.34634,15.84 0.54105,39.84 0.54104,39.84 2.94484,7.71342 c 3.37892,8.85043 6.52647,14.20245 12.51642,21.28268 8.39083,9.91809 25.56526,20.92046 41.58877,26.64283 3.9575,1.41331 7.95589,3.25785 8.88532,4.09896 0.92941,0.84111 6.29488,9.12818 11.92326,18.4157 57.87212,95.49626 123.00227,167.92081 196.12697,218.09281 7.0706,4.8513 7.4834,5.5229 11.4545,18.6336 10.0235,33.0933 34.2121,61.4234 59.4942,69.6804 3.4982,1.1424 6.6656,2.3506 7.0386,2.6848 0.7416,0.6641 0.6009,-1.4331 16.6814,248.6333 9.2973,144.5818 10.9224,173.3613 9.8476,174.3881 -2.9013,2.7716 -84.6728,14.5876 -135.6873,19.6068 -54.063,5.3192 -122.70501,7.687 -177.6,6.1261 z m 101.28,-2.2538 c 36.7574,-1.7259 84.3641,-5.3655 100.32,-7.6698 3.696,-0.5338 13.848,-1.8358 22.56,-2.8936 41.4615,-5.0337 88.3363,-12.3477 88.9223,-13.8747 0.3416,-0.8904 -10.913,-179.2463 -24.1406,-382.564 -1.6559,-25.4533 -2.7728,-37.272 -3.5924,-38.0158 -0.6541,-0.5938 -3.9484,-2.0831 -7.3207,-3.3098 -8.8086,-3.2043 -19.4729,-10.5092 -29.2345,-20.0254 -13.9798,-13.6284 -23.2246,-29.3812 -30.4891,-51.9526 l -3.8622,-12 -10.2615,-6.9368 c -39.9912,-27.0342 -86.11397,-70.6468 -123.66792,-116.93763 -23.05586,-28.41961 -50.2296,-67.44752 -70.28991,-100.95286 -9.62226,-16.07139 -10.0018,-16.55071 -14.37335,-18.15198 -16.2716,-5.96017 -26.58333,-11.45279 -36.85099,-19.62895 -8.23079,-6.55421 -14.52513,-14.31283 -19.0419,-23.47178 -7.02688,-14.24886 -7.19175,-15.5876 -6.88719,-55.92411 l 0.27004,-35.76411 -6.87729,-17.51589 C 802.52028,676.52215 796.49643,660.432 792.91645,650.4 c -4.05061,-11.35085 -7.04076,-18.34881 -7.91685,-18.52807 -0.77428,-0.15844 -7.39995,2.74571 -14.7237,6.45366 -13.8152,6.99453 -30.29137,18.4958 -41.1559,28.72908 -9.82794,9.25692 -8.86147,5.2751 -10.54632,43.45025 -2.64556,59.94266 -9.91583,238.00721 -14.40035,352.69508 -5.45272,139.449 -12.84106,325.8602 -17.40233,439.0679 -2.71166,67.3019 -3.23524,86.9085 -2.33566,87.4645 1.69736,1.049 39.90586,9.2939 53.32466,11.5068 36.55932,6.0289 80.37201,10.5889 119.52,12.4397 23.81789,1.126 100.40074,1.1672 123.84,0.067 z m 106.08,-587.2063 c -34.578,-31.41377 -71.0872,-70.10564 -99.92525,-105.8994 -20.61926,-25.59269 -51.81956,-69.38182 -50.7121,-71.17373 0.68687,-1.11137 7.77932,-1.05333 9.89885,0.081 0.93241,0.499 4.42802,5.143 7.76804,10.32 9.88675,15.32445 11.227,17.23184 25.50182,36.29271 28.55384,38.12746 66.10824,80.25474 99.27184,111.36002 15.1332,14.1939 15.3533,14.4584 15.3749,18.48 0.028,5.2274 -1.8616,5.3694 -7.1781,0.5394 z m 6.2148,-1.076 c -0.02,-2.0774 -2.6716,-5.0281 -13.5342,-15.0634 -42.2477,-39.02976 -93.34994,-98.97336 -125.62536,-147.36 -4.40239,-6.6 -8.47481,-12.31739 -9.0498,-12.7053 -1.45772,-0.98345 -6.10353,-0.91042 -6.7316,0.10582 -0.48957,0.79214 13.53003,21.68748 25.20027,37.55948 24.43488,33.23226 52.77379,66.57543 82.72589,97.33411 18.4552,18.95229 45.1311,43.89239 46.2244,43.21659 0.4486,-0.2772 0.8043,-1.6665 0.7904,-3.0873 z m 103.2396,-97.53501 C 1196.42,926.82377 1196.5369,786.6 1196.9142,616.32 c 0.6841,-308.84023 0.6905,-309.59941 2.6058,-309.35988 1.056,0.13208 4.5852,0.59066 7.8427,1.01909 3.2576,0.42843 8.3499,0.51182 11.3164,0.18529 3.6701,-0.40397 5.6985,-0.22628 6.3477,0.55604 0.6292,0.75806 0.8621,106.71111 0.6837,311.02404 l -0.2705,309.87432 -14.1798,0.15895 c -13.6751,0.15328 -14.1949,0.0875 -14.6058,-1.84946 z m 27.7229,-39.52691 c 0.8641,-2.25188 0.678,-18.9249 -0.2272,-20.35139 -0.5837,-0.92003 -3.9059,-1.16191 -13.1853,-0.96 l -12.4048,0.26991 -0.2755,10.0151 c -0.1515,5.5083 -0.058,10.5843 0.2098,11.28 0.367,0.95625 3.513,1.2649 12.8928,1.2649 10.4284,0 12.5004,-0.24222 12.9902,-1.51852 z m 0.09,-74.56148 c 0.3051,-1.716 0.4327,-115.872 0.2835,-253.68 l -0.2713,-250.55999 -9.6,-0.0344 c -5.28,-0.0189 -11.22,-0.39101 -13.2,-0.82685 l -3.6,-0.79242 v 253.86684 c 0,139.62676 0.288,254.15484 0.64,254.50683 0.352,0.35201 6.1644,0.64001 12.9166,0.64001 h 12.2764 l 0.5548,-3.12 z M 912.28302,532.64476 c -5.00466,-1.36195 -6.04302,-3.83165 -6.04302,-14.37303 0,-9.20752 0.0297,-9.32605 2.95366,-11.7864 5.12943,-4.31613 12.13254,-2.60582 14.25451,3.48127 1.61323,4.62774 1.26737,14.20281 -0.64966,17.98503 -2.05126,4.04705 -6.15668,5.87932 -10.51549,4.69313 z m 8.05511,-2.8921 c 2.01593,-1.89388 2.22187,-2.92116 2.22187,-11.08364 0,-8.27162 -0.18981,-9.1861 -2.35637,-11.35265 -1.48534,-1.48535 -3.45319,-2.35637 -5.32363,-2.35637 -1.87044,0 -3.83829,0.87102 -5.32363,2.35637 -2.15623,2.15622 -2.35637,3.09764 -2.35637,11.08363 0,7.98599 0.20014,8.92741 2.35637,11.08363 3.01335,3.01337 7.73513,3.13119 10.78176,0.26903 z m 45.03365,0.65566 c -2.49111,-2.68797 -3.87687,-11.41185 -2.84132,-17.88757 1.3608,-8.51031 12.19738,-11.48509 16.53524,-4.53913 3.21331,5.14545 2.4023,18.79762 -1.33892,22.53892 -3.22579,3.22571 -9.31276,3.17044 -12.355,-0.11222 z m 11.6063,-0.65566 c 2.016,-1.89388 2.22192,-2.92116 2.22192,-11.08364 0,-8.27162 -0.18979,-9.1861 -2.35632,-11.35265 -1.48541,-1.48535 -3.45322,-2.35637 -5.32368,-2.35637 -1.87046,0 -3.83827,0.87102 -5.32368,2.35637 -2.14915,2.14922 -2.35632,3.10832 -2.35632,10.91053 0,7.2004 0.31488,8.95448 1.9897,11.08363 2.57616,3.27509 7.9078,3.48653 11.14838,0.44213 z"
       style="fill:#a26650;stroke-width:0.99999994" />
    <path
       id="path821"
       d="m 1104.0911,1667.76 -93.5089,-0.2495 0.6371,-14.0201 c 0.3504,-7.7111 0.8325,-14.3365 1.0714,-14.7231 0.239,-0.3865 10.9272,-0.9793 23.7519,-1.3173 33.0696,-0.8715 60.6927,-4.0953 84.2774,-9.8358 l 9.12,-2.2198 11.04,4.3637 c 14.7389,5.8257 29.4456,13.5252 39.1818,20.5131 4.39,3.1508 8.3496,5.7288 8.7993,5.7288 0.4497,0 2.1862,1.728 3.8589,3.84 1.6727,2.112 3.4122,3.84 3.8654,3.84 0.4534,0 1.0006,-1.62 1.2161,-3.6 0.2347,-2.1559 0.3532,-1.482 0.2952,1.68 l -0.097,5.28 13.92,0.5203 13.92,0.5202 -13.92,-0.035 c -7.656,-0.019 -55.999,-0.1478 -107.4289,-0.2851 z M 683.52,1666.2288 c 0,-7.2277 28.47751,-25.8889 56.61276,-37.098 l 9.59336,-3.8219 9.85694,2.3568 c 25.93889,6.2022 61.43753,10.0645 92.68706,10.0848 10.84603,0.01 14.78885,0.3223 15.12555,1.2095 0.25048,0.66 0.56092,7.248 0.68987,14.64 l 0.23446,13.44 -92.4,0.2448 c -77.21785,0.2046 -92.4,0.031 -92.4,-1.056 z m 541.7146,-3.9888 c 0.01,-2.64 0.1936,-3.606 0.4143,-2.1468 0.2206,1.4592 0.2147,3.6192 -0.013,4.8 -0.2279,1.1808 -0.4084,-0.014 -0.4012,-2.6532 z m -0.7621,-249.12 c 0,-133.32 0.1114,-187.86 0.2475,-121.2 0.136,66.66 0.136,175.74 0,242.4 -0.1361,66.66 -0.2475,12.12 -0.2475,-121.2 z M 857.28,1613.6789 c -39.14799,-1.8508 -82.96068,-6.4108 -119.52,-12.4397 -13.4188,-2.2129 -51.6273,-10.4578 -53.32466,-11.5068 -0.89958,-0.556 -0.376,-20.1626 2.33566,-87.4645 4.56127,-113.2077 11.94961,-299.6189 17.40233,-439.0679 4.48452,-114.68787 11.75479,-292.75242 14.40035,-352.69508 1.68485,-38.17515 0.71838,-34.19333 10.54632,-43.45025 10.86453,-10.23328 27.3407,-21.73455 41.1559,-28.72908 7.32375,-3.70795 13.94942,-6.6121 14.7237,-6.45366 0.87609,0.17926 3.86624,7.17722 7.91685,18.52807 3.57998,10.032 9.60383,26.12215 13.38634,35.75589 l 6.87729,17.51589 -0.27004,35.76411 c -0.30456,40.33651 -0.13969,41.67525 6.88719,55.92411 9.43824,19.13851 26.59626,32.36958 55.89289,43.10073 4.37155,1.60127 4.75109,2.08059 14.37335,18.15198 20.06031,33.50534 47.23405,72.53325 70.28991,100.95286 37.55395,46.29083 83.67672,89.90343 123.66792,116.93763 l 10.2615,6.9368 3.8622,12 c 7.2645,22.5714 16.5093,38.3242 30.4891,51.9526 9.7616,9.5162 20.4259,16.8211 29.2345,20.0254 3.3723,1.2267 6.6615,2.7111 7.3095,3.2986 1.1446,1.0378 5.2159,53.8056 4.9319,63.9234 -0.066,2.376 -0.9065,-7.344 -1.8663,-21.6 -0.9598,-14.256 -2.0203,-29.4627 -2.3566,-33.7927 l -0.6115,-7.8726 -3.5179,-1.125 c -10.0273,-3.2065 -23.535,-11.7503 -33.0156,-20.8827 -2.4958,-2.4042 -4.7116,-4.1813 -4.9241,-3.9491 -0.2123,0.2321 0.5985,15.3261 1.8019,33.5421 1.2034,18.216 1.8245,33.5052 1.3801,33.976 -1.0213,1.082 -7.6098,-3.1225 -22.992,-14.6723 -33.9452,-25.4881 -72.7862,-63.2988 -106.04662,-103.2332 C 954.25031,1040.5481 910.82173,976.32499 870.02827,903.84 851.00835,870.04394 824.31825,817.72131 808.81552,783.84 801.35199,767.5284 798.72,762.45982 798.72,764.39844 c 0,1.34356 5.35568,17.49431 12.01791,36.24156 41.531,116.86656 92.54007,213.1993 156.26347,295.11 35.46132,45.5822 77.10732,87.1659 118.29082,118.1139 11.3148,8.5027 30.9561,21.7208 38.8583,26.1509 2.654,1.4878 5.0668,3.4603 5.3616,4.3832 1.116,3.4934 5.9497,83.781 5.0984,84.6834 -2.6482,2.807 -51.2378,-26.7382 -76.8337,-46.7192 -66.88822,-52.2148 -124.07515,-121.1922 -173.13679,-208.8331 -3.61801,-6.463 -6.76236,-11.5667 -6.98744,-11.3417 -1.62477,1.6248 25.75137,57.5442 40.54085,82.8101 33.38643,57.0364 65.62706,99.0454 110.40758,143.8594 32.6423,32.6667 59.3322,54.635 94.2445,77.572 l 15.4854,10.1738 0.606,6.9786 c 0.3333,3.8383 2.3504,34.1947 4.4823,67.4587 8.0001,124.8197 9.2849,143.584 9.8711,144.1703 0.3309,0.3309 9.2275,-0.8214 19.7702,-2.5605 l 19.1686,-3.1621 0.3689,-4.6692 0.3688,-4.6693 -0.083,5.0453 -0.083,5.0455 -17.76,2.9561 c -9.768,1.6259 -21.648,3.4456 -26.4,4.0437 -4.752,0.5982 -16.417,2.1686 -25.9221,3.4897 -49.131,6.8287 -90.0896,10.5872 -142.07789,13.0374 -23.01425,1.0847 -99.71132,1.03 -123.36,-0.088 z M 1045.3364,1452.72 c -20.3519,-20.6557 -32.3445,-34.0318 -48.41221,-53.9969 -64.74957,-80.4554 -128.89303,-192.036 -183.90344,-319.9088 -14.42534,-33.5319 -14.91974,-33.3246 -3.15987,1.3254 58.86294,173.4371 135.07122,302.6618 217.33912,368.5369 11.0196,8.8238 33.1054,22.9575 35.9288,22.9925 0.4888,0.01 -7.5178,-8.5211 -17.7924,-18.9491 z m 145.5591,112.5445 c -0.3855,-7.7106 -0.4918,-14.2282 -0.2363,-14.4837 0.2555,-0.2554 0.7799,5.8441 1.1653,13.5547 0.3855,7.7106 0.4918,14.2282 0.2363,14.4837 -0.2555,0.2554 -0.7799,-5.8441 -1.1653,-13.5547 z m -4.2215,-65.7867 c -1.766,-27.7433 -3.0463,-51.2873 -2.845,-52.32 0.2013,-1.0328 1.8108,20.8212 3.577,48.5644 1.766,27.7433 3.0463,51.2873 2.845,52.32 -0.2013,1.0328 -1.8108,-20.8212 -3.577,-48.5644 z m -7.6796,-119.5041 c -2.2976,-35.9185 -4.013,-66.1585 -3.8119,-67.2 0.2011,-1.0415 2.2455,27.4941 4.5431,63.4126 2.2976,35.9185 4.013,66.1585 3.8119,67.2 -0.2011,1.0415 -2.2455,-27.4941 -4.5431,-63.4126 z m -6.7322,-105.356 c -1.2637,-19.9442 -2.0197,-36.5402 -1.68,-36.8799 0.3398,-0.3398 0.6178,1.0042 0.6178,2.9867 0,1.9825 0.8854,17.0368 1.9676,33.4539 1.0821,16.4172 1.8381,31.3912 1.68,33.2756 -0.1582,1.8842 -1.3216,-12.892 -2.5854,-32.8363 z m 25.9801,-105.3377 c 0.3811,-1.1561 2.8091,-1.4934 12.3173,-1.7108 6.5135,-0.149 12.1822,0.067 12.5972,0.48 0.4149,0.4129 -4.4421,0.6169 -10.7934,0.4532 -8.4725,-0.2183 -11.9538,0.037 -13.0718,0.96 -1.2799,1.0563 -1.4479,1.027 -1.0493,-0.1824 z m 0.5408,-52.08 c -0.3591,-0.932 2.4107,-1.1347 12.4016,-0.9078 16.2964,0.3703 16.215,2.1078 -0.099,2.1078 -8.586,0 -11.9678,-0.3299 -12.303,-1.2 z m 25.4178,-11.5719 -0.2009,-10.372 -12.8706,0.292 c -7.0788,0.1605 -12.6693,-0.032 -12.4233,-0.4281 0.246,-0.396 6.0513,-0.72 12.9007,-0.72 9.435,0 12.5715,0.3074 12.9402,1.2684 0.2677,0.6975 0.3446,5.5575 0.1708,10.8 L 1224.4019,1116 Z M 1197.4428,1104 c 0,-3.96 0.1694,-5.58 0.3766,-3.6 0.207,1.98 0.207,5.22 0,7.2 -0.2072,1.98 -0.3766,0.36 -0.3766,-3.6 z m -120.8984,-89.1652 C 1036.3174,977.36035 996.38294,932.48506 963.67411,888 c -11.67024,-15.872 -25.68984,-36.76734 -25.20027,-37.55948 0.62807,-1.01624 5.27388,-1.08927 6.7316,-0.10582 0.57499,0.38791 4.64741,6.1053 9.0498,12.7053 32.27542,48.38664 83.37766,108.33024 125.62536,147.36 10.8626,10.0353 13.5139,12.986 13.5342,15.0634 0.013,1.4208 -0.3418,2.8101 -0.7904,3.0873 -0.4485,0.2773 -7.6845,-5.8949 -16.08,-13.7159 z M 1198.7052,889.2 c -0.2465,-0.396 3.5081,-0.6049 8.3433,-0.46422 15.8792,0.462 17.6394,0.8353 4.7681,1.01118 -6.9648,0.0951 -12.8649,-0.15096 -13.1114,-0.54696 z m 0.2175,-21.62989 c 0.4141,-0.41244 6.3341,-0.62671 13.1552,-0.47615 l 12.4021,0.27373 -13.1553,0.47615 c -7.2353,0.26189 -12.8163,0.13871 -12.402,-0.27373 z M 1198.7052,816.24 c -0.2465,-0.396 3.5081,-0.6049 8.3433,-0.46422 15.8792,0.462 17.6394,0.8353 4.7681,1.01118 -6.9648,0.0951 -12.8649,-0.15096 -13.1114,-0.54696 z m 25.7676,-254.16 c 0,-138.864 0.1113,-195.81479 0.2472,-126.55731 0.1358,69.25747 0.1359,182.87347 0,252.48 -0.1359,69.60652 -0.2471,12.94131 -0.2472,-125.92269 z"
       style="fill:#8e3030;stroke-width:0.99999994" />
    <path
       id="path819"
       d="m 1198.0745,1666.8 c 0,-0.396 -5e-4,-112.1347 0.01,-248.3082 0.01,-180.8939 0.2997,-247.9362 1.083,-248.88 1.4761,-1.7786 23.7273,-1.8624 24.3789,-0.092 0.2429,0.66 0.5534,112.98 0.6899,249.6001 l 0.2482,248.4 h -13.2 c -7.26,-10e-5 -13.2025,-0.3241 -13.2054,-0.7201 z m -45.5135,-75.36 c -0.284,-2.244 -1.6128,-21.576 -2.9526,-42.96 -1.3398,-21.384 -4.3728,-68.688 -6.74,-105.12 -2.3672,-36.432 -4.305,-66.3225 -4.3062,-66.4234 0,-0.1008 -7.0222,-4.7954 -15.6022,-10.4324 -35.0339,-23.0171 -61.6806,-44.9445 -94.359,-77.6473 -44.78052,-44.814 -77.02115,-86.823 -110.40758,-143.8594 -14.78948,-25.2659 -42.16562,-81.1853 -40.54085,-82.8101 0.22508,-0.225 3.36943,4.8787 6.98744,11.3417 49.06164,87.6409 106.24857,156.6183 173.13679,208.8331 25.5959,19.981 74.1855,49.5262 76.8337,46.7192 0.8513,-0.9024 -3.9824,-81.19 -5.0984,-84.6834 -0.2948,-0.9229 -2.7076,-2.8954 -5.3616,-4.3832 -7.9022,-4.4301 -27.5435,-17.6482 -38.8583,-26.1509 C 988.0369,1140.78 903.60228,1024.5725 840.50314,876.96 826.45903,844.10558 809.47474,799.1399 801.2321,772.99044 c -4.54612,-14.42239 -2.90699,-12.0773 7.58342,10.84956 25.86495,56.52801 61.51672,123.08737 94.35812,176.16 64.91743,104.9084 133.77086,185.9083 200.83436,236.2637 15.3822,11.5498 21.9707,15.7543 22.992,14.6723 0.4444,-0.4708 -0.1767,-15.76 -1.3801,-33.976 -1.2034,-18.216 -2.0142,-33.31 -1.8019,-33.5421 0.2125,-0.2322 2.4283,1.5449 4.9241,3.9491 9.5102,9.161 22.9845,17.6734 33.0979,20.9099 1.98,0.6336 3.6019,1.4425 3.6044,1.7976 0,0.355 0.8603,13.6055 1.9065,29.4455 3.2231,48.7992 24.9691,387.2822 24.9691,388.6507 0,0.9285 -5.1686,2.1417 -18.48,4.3376 -10.164,1.6766 -18.9935,3.0402 -19.6212,3.03 -0.6276,-0.01 -1.3736,-1.8543 -1.6578,-4.0983 z m -96.453,-123.195 c -32.6429,-18.1686 -69.97958,-53.9129 -104.3424,-99.8919 -53.16667,-71.1395 -101.65674,-169.6245 -141.90472,-288.2134 -11.75987,-34.65 -11.26547,-34.8573 3.15987,-1.3254 26.64234,61.9307 57.46368,124.0647 87.73345,176.8657 37.09268,64.7025 77.33988,122.5341 116.2494,167.04 5.3084,6.072 18.0582,19.572 28.3328,30 10.2746,10.428 18.2812,18.955 17.7924,18.9491 -0.4889,-0.01 -3.6482,-1.5469 -7.0208,-3.4241 z m 142.3836,-353.037 c -0.2685,-0.6996 -0.3629,-5.3436 -0.2098,-10.32 l 0.2782,-9.048 12.72,-0.2678 12.72,-0.268 v 10.588 10.5878 h -12.5101 c -9.5003,0 -12.6276,-0.306 -12.9983,-1.272 z m 0,-227.52002 c -0.2685,-0.69961 -0.3629,-5.34361 -0.2098,-10.32 l 0.2782,-9.04798 12.601,-0.26703 c 14.6266,-0.30997 13.7631,-0.99832 13.7858,10.98851 0.02,10.46688 0.7697,9.91852 -13.5597,9.91852 -9.415,0 -12.5251,-0.30679 -12.8955,-1.27202 z m 0.033,-72.88798 c -0.2508,-0.66 -0.3451,-114.816 -0.21,-253.68 l 0.246,-252.48 3.36,0.48 c 1.848,0.264 7.5723,0.48 12.7206,0.48 h 9.3604 l -4e-4,253.2 -6e-4,253.2 h -12.5102 c -9.1249,0 -12.6334,-0.32471 -12.9658,-1.2 z M 909.55637,529.48363 c -2.13062,-2.1306 -2.35637,-3.13481 -2.35637,-10.48148 0,-9.65136 0.35531,-10.80014 3.90866,-12.63766 3.88182,-2.00736 6.39921,-1.7439 9.09497,0.95188 2.16656,2.16655 2.35637,3.08103 2.35637,11.35265 0,8.16248 -0.20594,9.18976 -2.22187,11.08364 -3.04663,2.86216 -7.76841,2.74434 -10.78176,-0.26903 z m 56.63995,0 C 964.04016,527.32741 963.84,526.38599 963.84,518.4 c 0,-7.98599 0.20016,-8.92741 2.35632,-11.08363 1.48541,-1.48535 3.45322,-2.35637 5.32368,-2.35637 1.87046,0 3.83827,0.87102 5.32368,2.35637 2.15616,2.15622 2.35632,3.09764 2.35632,11.08363 0,7.98599 -0.20016,8.92741 -2.35632,11.08363 -1.48541,1.48535 -3.45322,2.35637 -5.32368,2.35637 -1.87046,0 -3.83827,-0.87102 -5.32368,-2.35637 z"
       style="fill:#6d2e20;stroke-width:0.99999994" />
  </g>
  <path
     style="fill:#f9f9f9;fill-opacity:1;stroke:#110000;stroke-width:0;stroke-linecap:round;stroke-linejoin:miter;stroke-miterlimit:4;stroke-dasharray:none;stroke-dashoffset:0;stroke-opacity:1"
     d="m 934.36993,838.69665 c -0.34411,-0.55677 0.38177,-1.20594 1.61308,-1.44261 1.2313,-0.23667 -0.34521,-0.49087 -3.50334,-0.56491 -3.94009,-0.0923 -5.53192,0.20542 -5.07243,0.94889 0.41917,0.67823 -0.0212,0.93356 -1.17725,0.68265 -1.0158,-0.22047 -1.7357,-0.93044 -1.59978,-1.57774 0.14858,-0.70757 -0.95869,-1.17688 -2.77665,-1.17688 -2.05693,0 -2.79522,0.36977 -2.30902,1.15645 0.48729,0.78846 0.16558,0.94573 -1.01098,0.49424 -0.94915,-0.36422 -2.24535,-0.69348 -2.88047,-0.7317 -0.6351,-0.0382 -0.26512,-0.45175 0.8222,-0.91899 1.70484,-0.73259 1.56878,-0.86203 -0.98847,-0.9404 -1.63098,-0.05 -6.94963,-0.97161 -11.81922,-2.04808 -4.86959,-1.07647 -9.76254,-1.6788 -10.87322,-1.33852 -1.11068,0.34028 -1.6796,0.26068 -1.26426,-0.1769 0.41534,-0.43757 -3.65721,-2.23922 -9.05012,-4.00366 -29.31402,-9.59093 -47.84479,-23.79932 -58.17508,-44.6055 l -4.70013,-9.4665 -0.38358,-69.28751 c -0.21097,-38.10813 -0.71436,-67.95307 -1.11864,-66.32209 -0.49101,1.98084 -0.7739,-0.20715 -0.85202,-6.58983 -0.065,-5.31152 0.30336,-9.70159 0.82943,-9.88474 0.5329,-0.18553 1.18943,-8.75104 1.50266,-19.60475 2.3598,-81.76886 3.06801,-101.729 3.62936,-102.29015 0.35299,-0.35286 0.92981,4.16951 1.28182,10.04972 3.5359,59.06499 8.60959,99.87975 14.88586,119.74767 3.12192,9.8826 7.92158,17.35539 11.40811,17.76173 2.20984,0.25755 2.79223,-0.37008 4.76908,-5.1396 6.80488,-16.41799 21.31492,-29.83186 41.24431,-38.12849 l 7.27708,-3.02945 5.21004,2.87804 c 6.79411,3.75308 10.97893,4.39625 17.53657,2.69521 4.61661,-1.19752 6.299,-1.19616 12.08283,0.01 6.56737,1.36933 12.01029,1.15514 18.19108,-0.71589 2.16504,-0.65539 4.71609,-0.49576 8.71249,0.54516 6.69631,1.74416 14.44718,0.71904 18.37453,-2.43021 5.35579,-4.29468 6.48745,-4.45672 14.13193,-2.02363 12.52247,3.98565 21.92387,9.55899 31.50517,18.67681 7.5222,7.15832 9.4343,9.67627 13.3718,17.60795 4.9037,9.87788 6.4621,11.00047 10.1506,7.31197 9.6256,-9.62564 15.8388,-47.72999 18.8608,-115.66995 0.5921,-13.31126 1.24,-24.36585 1.44,-24.56575 0.7999,-0.79995 1.4693,7.35545 2.4613,29.98703 0.572,13.04786 1.4759,29.28356 2.0088,36.07932 0.5329,6.79576 0.9182,13.24556 0.8562,14.33288 -0.1507,2.64363 0.9174,46.79935 2.0923,86.49153 0.5229,17.66898 0.9574,47.12773 0.9655,65.46387 0.015,33.32641 0.014,33.34086 -2.5014,40.02284 -8.7357,23.20868 -28.1089,39.36975 -59.5256,49.65631 -18.6865,6.11836 -37.78942,9.41315 -63.48975,10.95042 -7.8858,0.47169 -15.95333,1.14531 -17.92785,1.49694 -2.09581,0.37323 -3.85043,0.21798 -4.21567,-0.373 z m 50.91548,-148.49247 c 20.51659,-10.35673 29.08069,-33.00233 19.90009,-52.62078 -4.2363,-9.05277 -9.87563,-14.80736 -18.86418,-19.24974 l -7.46959,-3.69168 h -31.73372 -31.73372 l -7.53193,3.72248 c -8.70786,4.30367 -14.9989,10.62157 -19.23451,19.31668 -2.48213,5.09545 -2.74296,6.65304 -2.76307,16.49982 -0.0205,10.05184 0.18943,11.27517 2.77927,16.19397 5.45951,10.36909 15.42352,18.83613 25.30022,21.49917 3.0899,0.83312 14.13453,1.23927 34.94176,1.2849 l 30.42377,0.0667 5.98561,-3.02153 z"
     id="path872"
     inkscape:connector-curvature="0" />
  <path
     style="fill:#f9f9f9;fill-opacity:1;stroke:#110000;stroke-width:0;stroke-linecap:round;stroke-linejoin:miter;stroke-miterlimit:4;stroke-dasharray:none;stroke-dashoffset:0;stroke-opacity:1"
     d="m 1091.8696,484.09109 c -1.7862,-2.15224 -8.4556,-5.45302 -13.7787,-6.81929 l -4.4481,-1.1417 -0.321,-10.8105 c -0.5707,-19.22076 0.8625,-50.84372 2.3042,-50.84372 3.1626,0 9.9017,10.27563 13.3916,20.41924 3.1555,9.17164 7.0893,38.19298 6.1976,45.72229 -0.6311,5.32786 -1.2626,5.98358 -3.3456,3.47368 z"
     id="path874"
     inkscape:connector-curvature="0" />
  <path
     style="fill:#f9f9f9;fill-opacity:1;stroke:#110000;stroke-width:0;stroke-linecap:round;stroke-linejoin:miter;stroke-miterlimit:4;stroke-dasharray:none;stroke-dashoffset:0;stroke-opacity:1"
     d="m 1024.219,502.34934 c -6.9027,-5.74105 -15.4775,-10.06736 -23.3854,-11.79876 -7.39227,-1.61854 -27.73676,-0.7324 -37.22019,1.62118 -6.28643,1.56016 -7.35259,1.60606 -8.18452,0.35237 -1.23636,-1.86316 -0.71579,-24.26541 0.59422,-25.57182 0.54851,-0.54701 3.88462,-1.7809 7.41356,-2.74199 4.90184,-1.33498 10.26581,-1.75284 22.72608,-1.77042 14.46375,-0.0204 17.09305,0.2371 23.22915,2.27501 3.8056,1.26391 8.921,3.44955 11.3675,4.85698 11.8171,6.79828 25.3885,19.88352 23.7652,22.91381 -1.1786,2.19995 -12.9288,14.91847 -13.7209,14.85159 -0.3596,-0.0304 -3.3227,-2.27494 -6.5847,-4.98795 z"
     id="path876"
     inkscape:connector-curvature="0" />
  <path
     style="fill:#f9f9f9;fill-opacity:1;stroke:#110000;stroke-width:0;stroke-linecap:round;stroke-linejoin:miter;stroke-miterlimit:4;stroke-dasharray:none;stroke-dashoffset:0;stroke-opacity:1"
     d="m 855.82715,499.94671 -7.09475,-8.51338 1.96818,-2.76406 c 3.3246,-4.66897 13.59789,-13.63652 19.75841,-17.2471 3.21766,-1.88582 9.10507,-4.67356 13.08313,-6.19498 6.89175,-2.63577 8.02527,-2.76655 24.0369,-2.77321 13.28389,-0.006 18.14952,0.37118 23.22673,1.79826 3.53247,0.99289 6.75055,2.32056 7.15131,2.95038 0.40075,0.62982 0.73545,6.86698 0.74378,13.86036 l 0.0151,12.71525 -2.7183,-0.48108 c -1.49507,-0.2646 -6.94404,-1.25163 -12.10882,-2.19341 -12.6856,-2.31317 -29.78906,-1.70567 -37.67502,1.3382 -5.87923,2.26929 -15.16206,8.28404 -20.23862,13.11348 l -3.0533,2.90467 z"
     id="path878"
     inkscape:connector-curvature="0" />
  <path
     style="fill:#ffffff;fill-opacity:1;stroke:#110000;stroke-width:0;stroke-linecap:round;stroke-linejoin:miter;stroke-miterlimit:4;stroke-dasharray:none;stroke-dashoffset:0;stroke-opacity:1"
     d="m 799.77114,482.19206 c -1.52197,-8.11282 2.72746,-37.15081 7.36756,-50.34532 2.96907,-8.44279 10.77725,-18.89495 12.68793,-16.98428 1.30936,1.30937 2.10758,15.56106 2.17901,38.90528 l 0.0703,22.98204 -3.21254,0.0217 c -3.7841,0.0256 -10.25809,2.79694 -15.02207,6.43061 l -3.39495,2.58945 -0.67527,-3.59948 z"
     id="path880"
     inkscape:connector-curvature="0" />
  <path
     style="fill:#ffffff;fill-opacity:1;stroke:#110000;stroke-width:0;stroke-linecap:round;stroke-linejoin:miter;stroke-miterlimit:4;stroke-dasharray:none;stroke-dashoffset:0;stroke-opacity:1"
     d="m 1024.7133,504.32489 c -6.4399,-5.8618 -16.5466,-11.15549 -24.418,-12.78958 -8.20568,-1.7035 -26.60839,-0.73589 -36.77216,1.93347 -6.73348,1.76844 -8.47714,1.93629 -9.20648,0.88623 -0.49486,-0.71247 -0.64895,-5.92394 -0.34242,-11.58104 0.30653,-5.6571 0.55733,-11.72498 0.55733,-13.48419 0,-2.77392 0.49211,-3.39513 3.70677,-4.67916 10.40628,-4.15658 40.03614,-4.90828 50.16506,-1.27268 12.4109,4.45467 19.5573,8.87731 28.8591,17.85997 5.0668,4.89295 9.209,9.35561 9.2048,9.91703 -0.01,1.24579 -13.9442,17.50599 -15.329,17.88677 -0.5436,0.1495 -3.4349,-1.95507 -6.425,-4.67682 z"
     id="path882"
     inkscape:connector-curvature="0" />
  <path
     style="fill:#ffffff;fill-opacity:1;stroke:#110000;stroke-width:0;stroke-linecap:round;stroke-linejoin:miter;stroke-miterlimit:4;stroke-dasharray:none;stroke-dashoffset:0;stroke-opacity:1"
     d="m 859.52312,505.66266 c -1.91484,-2.03873 -5.36691,-6.02328 -7.67128,-8.85455 -5.09484,-6.25981 -5.16584,-6.06649 6.16762,-16.79455 8.96632,-8.48737 20.00172,-14.74813 31.08298,-17.63443 11.07576,-2.88487 38.07887,-1.40701 47.8837,2.62064 l 2.71831,1.11663 v 14.7072 c 0,9.26837 -0.37018,14.70719 -1.00099,14.70719 -0.55054,0 -4.22026,-0.92841 -8.15492,-2.06313 -8.90225,-2.56734 -28.43889,-3.6314 -36.37817,-1.98133 -8.06653,1.67651 -16.57381,6.05309 -23.98173,12.33742 -3.59546,3.05013 -6.68273,5.54569 -6.8606,5.54569 -0.17787,0 -1.89008,-1.66805 -3.80492,-3.70678 z"
     id="path884"
     inkscape:connector-curvature="0" />
  <path
     style="fill:#ffffff;fill-opacity:1;stroke:#110000;stroke-width:0;stroke-linecap:round;stroke-linejoin:miter;stroke-miterlimit:4;stroke-dasharray:none;stroke-dashoffset:0;stroke-opacity:1"
     d="m 799.70229,484.17317 c -0.92975,-2.4229 0.32664,-21.25529 2.07078,-31.03937 2.1224,-11.906 5.21359,-22.5873 8.03936,-27.77915 2.99383,-5.50066 8.09694,-11.11279 9.64214,-10.60391 1.76198,0.58028 2.39746,9.91068 2.51412,36.91372 l 0.10728,24.83265 -4.03559,0.64531 c -3.90967,0.62518 -10.94149,3.86711 -15.47463,7.13438 -2.04714,1.47548 -2.26046,1.46776 -2.86346,-0.10363 z"
     id="path886"
     inkscape:connector-curvature="0"
     inkscape:export-xdpi="100"
     inkscape:export-ydpi="100" />
</svg>
