<svg xmlns="http://www.w3.org/2000/svg" width="1866.24" height="1866.24"><path d="M37.632 1834.368c-1.425-1.424-1.705-1783.993-.281-1784.873.479-.296 402.537-.538 893.462-.538 713.64 0 892.745.24 893.355 1.201.42.661.77 402.12.777 892.13.011 691.68-.243 891.186-1.137 892.08-1.68 1.68-1784.495 1.68-1786.176 0M1072.32 1702.06c128.67-3.203 221.482-9.792 258.444-18.347 12.912-2.989 18.5-8.022 12.946-11.66-8.327-5.456-42.723-10.859-94.75-14.882l-21.6-1.67-.242-247.268-.242-247.267 5.042-3.218c7.114-4.54 21.608-19.307 27.32-27.836 10.094-15.072 16.626-30.931 20.556-49.912 1.997-9.644 2.28-13.59 2.244-31.2-.036-17.111-.364-21.64-2.166-29.94-2.328-10.718-7.073-25.06-9.788-29.58-.951-1.584-2.24-5.472-2.864-8.64-2.248-11.417-7.935-27.06-14.658-40.324-1.34-2.642-3.361-9.122-4.493-14.4-3.502-16.325-10.303-41.48-15.87-58.7l-5.322-16.463.241-270.952c.214-239.703.408-271.04 1.682-271.714.792-.419 3.973-1.978 7.07-3.464 12.78-6.136 23.05-20.542 25.639-35.965 1.09-6.491 1.03-8.302-.508-15.636-2.938-14-10.71-25.074-22.574-32.165-10.502-6.277-22.47-8.784-32.299-6.767-19.054 3.91-32.862 15.767-38.363 32.938-5.58 17.42-1.894 34.046 10.545 47.559 3.668 3.985 12.183 10.41 15.432 11.646l2.418.92v234.263c0 128.845-.203 234.264-.452 234.264-.248 0-4.119-7.236-8.6-16.08-21.66-42.74-43.144-77.288-55.417-89.115-19.296-18.596-50.035-40.845-52.72-38.16-.545.545-.527 10.151.046 24.842 2.07 53.059 3.024 107.467 2.022 115.456-2.432 19.396-11.097 34.189-27.083 46.235-39.114 29.472-116.882 37.547-174.91 18.16-35.68-11.921-56.775-31.235-62.487-57.208-1.746-7.941-1.99-56.661-.613-122.21.443-21.066.415-37.352-.065-37.872-.53-.574-3.066-.454-6.841.324-7.926 1.633-23.532 6.653-23.927 7.697-.172.454-6.023 3.68-13.002 7.17-21.548 10.773-33.72 19.162-47.877 32.997l-6.807 6.652-.66 10.862-.659 10.862-8.374 8.763c-15.106 15.808-25.567 28.861-34.675 43.265-3.338 5.28-6.782 10.68-7.653 12-1.5 2.273-8.489 16.338-11.21 22.56-13.134 30.03-33.864 92.726-41.264 124.8-10.597 45.932-14.964 78.772-14.95 112.41.012 29.846 2.313 47.503 9.254 70.998 9.09 30.768 23.876 52.722 47.711 70.835 9.186 6.98 28.234 17.05 35.984 19.02 2.228.567 4.447 1.522 4.931 2.124.537.667.002 22.597-1.374 56.293-1.24 30.36-3.58 88.248-5.2 128.64-1.619 40.392-3.336 82.944-3.815 94.56-3.703 89.756-5.042 127.191-4.59 128.367 1.158 3.02 58.711 14.248 92.877 18.119 5.544.628 10.425 1.448 10.847 1.823.421.374-6.923 3.132-16.32 6.127-9.398 2.996-20.76 6.78-25.247 8.411-11.092 4.03-33.19 15.24-43.54 22.089-8.216 5.437-8.712 5.624-14.88 5.633-3.509.01-16.532.651-28.94 1.435-99.982 6.32-142.723 13.788-134.008 23.419 11.35 12.541 153.262 23.01 344.728 25.432 37.813.478 166.225-.367 205.92-1.355m117.6-48.871c-1.584-.393-6.487-3.18-10.896-6.192-8.62-5.89-24.002-13.921-36.826-19.228-8.24-3.41-42.543-14.719-51.398-16.945-8.417-2.116-7.146-2.68 10.8-4.784 33.058-3.876 90.564-12.875 92.112-14.413.502-.499 1.264-.907 1.693-.907s.667 14.142.528 31.427c-.277 34.422.084 32.556-6.013 31.042m-319.802-6.309c-.198-.528-.467-7.44-.599-15.36l-.239-14.4 35.04.342c19.559.191 48.613-.219 65.76-.929 16.896-.699 32.596-1.285 34.89-1.302l4.169-.032.422 8.16c.232 4.488.154 11.832-.173 16.32l-.594 8.16h-69.158c-45.226 0-69.283-.332-69.518-.96zm324.91-69.6c-.36-1.32-2.416-30.48-4.57-64.8-7.947-126.632-21.129-331.371-21.688-336.856l-.576-5.656 3.663.72c2.015.396 8.199.882 13.743 1.08l10.08.36.244 101.776c.348 144.8-.13 306.198-.897 303.376M970.751 845.304c41.825-4.44 72.665-16.315 91.008-35.045 7.241-7.394 11.58-14.301 15.188-24.178l2.572-7.041-.151-41.76c-.083-22.968-.822-59.426-1.64-81.017-.963-25.366-1.164-39.866-.57-40.978.6-1.117.568-2.65-.09-4.377-.872-2.295-1.472-15.196-.976-20.988.09-1.056-.245-5.808-.746-10.56-.5-4.752-1.47-22.68-2.154-39.84-1.357-34.037-2.187-35.05-3.145-3.84-1.52 49.473-6.583 91.556-13.092 108.799-2.596 6.877-7.017 12.161-10.176 12.161-1.265 0-2.3-.563-2.3-1.25 0-.689-1.763-4.898-3.919-9.355-3.199-6.615-5.446-9.607-12.24-16.295-8.997-8.856-18.102-14.354-31.097-18.773-8.4-2.858-10.495-2.902-12.835-.271-4.601 5.171-14.957 7.078-22.36 4.116-3.427-1.372-4.174-1.372-8.213 0-5.629 1.91-14.448 1.934-19.781.052-3.736-1.318-4.519-1.306-8.256.12-6.078 2.322-13.42 1.461-19.108-2.239l-4.536-2.95-5.23 1.799c-17.909 6.161-34.067 19.57-41.402 34.357-2.19 4.417-3.983 8.63-3.983 9.36 0 2.281-4.315 1.463-6.915-1.311-6.948-7.415-12.116-26.42-16.575-60.95-1.937-15.01-5.09-52.544-5.867-69.85-1.17-26.07-2.01-20.698-2.627 16.8-.338 20.592-1.109 45-1.712 54.24s-1.023 18.528-.933 20.64.034 21.984-.124 44.16c-.686 96.436-.434 117.602 1.479 123.84 4.843 15.794 17.105 30.783 33.258 40.653 28.301 17.294 77.241 26.229 119.248 21.77m-61.179-144.367c-10.662-3.896-18.774-11.405-23.815-22.045-2.77-5.845-3.033-7.218-2.978-15.532.046-7.059.537-10.313 2.174-14.4 4.293-10.724 12.342-18.793 23.206-23.266 5.114-2.106 6.26-2.174 36.48-2.174s31.366.068 36.48 2.174c14.706 6.054 24.16 18.732 25.62 34.353 1.455 15.586-8.025 31.938-22.67 39.105l-6.31 3.088-31.68.23c-28.704.209-32.133.065-36.507-1.533m62.907-.179c12.898-2.041 23.488-9.97 29.08-21.774 2.808-5.93 3.077-7.308 3.043-15.624-.052-12.625-2.419-18.472-10.915-26.968-4.59-4.59-7.91-6.963-12.088-8.64-5.673-2.277-6.23-2.312-36.96-2.312-30.466 0-31.33.053-36.753 2.241-7.822 3.157-16.184 11.151-20.108 19.223-2.854 5.871-3.1 7.136-3.12 15.976-.017 8.826.228 10.122 3.046 16.071 5.463 11.531 16.11 19.751 28.135 21.72 7.413 1.214 49.116 1.278 56.64.087M853.226 646.8c8.026-17.094 22.627-29.414 44.063-37.178l5.93-2.148 3.208 2.447c4.892 3.732 11.023 5.073 16.215 3.547 5.332-1.567 8.36-1.559 16.474.042 5.904 1.166 7.047 1.11 12.96-.627 6.23-1.831 6.653-1.84 10.804-.247 7.362 2.828 14.057 1.772 19.593-3.088 3.893-3.419 5.942-3.498 14.559-.565 23.105 7.865 40.231 22.571 47.33 40.643 5.814 14.801 14.965-8.744 19.696-50.679 3.74-33.151 5.34-74.176 5.37-137.667.025-53.059-.049-54.125-4.928-71.04-3.997-13.861-16.022-35.397-24.657-44.16-1.56-1.584-3.343-3.875-3.961-5.091-.619-1.217-2.435-3.009-4.036-3.983-1.602-.973-4.922-3.65-7.38-5.948-4.292-4.016-14.506-11.378-15.783-11.378-.339 0-2.57-1.24-4.96-2.754-9.031-5.728-26.966-11.403-42.763-13.533-28.98-3.906-60.046 3.333-84.68 19.733-11.428 7.608-15.63 11.251-27.108 23.498-3.17 3.382-13.219 18.675-16.422 24.99-6.439 12.696-12.628 36.115-12.787 48.386-.052 3.955 1.884 60.303 2.737 79.68 3.855 87.557 11.782 140.781 22.84 153.36 2.577 2.931 3.875 1.878 7.686-6.24m-.653-136.208c-4.275-4.823-7.773-9.431-7.773-10.242 0-.81 3.996-5.416 8.88-10.234 7.399-7.3 10.401-9.51 18-13.254 5.016-2.471 12.144-5.205 15.84-6.076 12.667-2.983 36.535-1.475 47.21 2.984l3.05 1.273.318 14.719c.176 8.095.052 15.067-.273 15.494-.326.427-3.138-.078-6.249-1.121-8.498-2.851-17.162-4.233-26.776-4.27-15.494-.06-27.14 4.243-37.358 13.8-3.348 3.133-6.314 5.695-6.59 5.695-.278 0-4.003-3.946-8.279-8.768m25.118-6.441c9.687-4.862 16.683-6.193 29.958-5.7 7.728.286 14.345 1.155 19.992 2.627 4.643 1.21 8.531 2.038 8.64 1.84.11-.197-.017-6.406-.281-13.798l-.48-13.44-8.64-2.276c-12.202-3.213-30.378-3.35-41.087-.31-9.259 2.629-16.645 6.304-24.426 12.153-6.329 4.758-15.053 14.237-14.497 15.752.181.495 3.345 4.344 7.03 8.553l6.7 7.652 5.55-5.024c3.054-2.763 8.247-6.376 11.541-8.03m145.629 10.84c-14.823-15.13-37.264-19.153-63.794-11.437-4.227 1.23-7.902 1.94-8.166 1.58s-.35-7.273-.191-15.363l.289-14.71 3.07-1.282c10.806-4.513 34.774-6.012 47.232-2.954 3.696.908 10.824 3.648 15.84 6.09 7.66 3.73 10.542 5.843 18 13.201 4.884 4.818 8.88 9.424 8.88 10.234 0 1.475-14.956 19.01-16.213 19.01-.367 0-2.593-1.966-4.947-4.369m12.76-6.165c3.564-4.132 6.48-7.81 6.48-8.176 0-1.594-9.407-11.464-14.765-15.492-13.57-10.2-25.887-14.183-43.795-14.16-12.033.016-27.233 2.666-30.408 5.301-1.777 1.475-1.845 26.752-.072 26.718.66-.012 4.44-.918 8.4-2.013 10.193-2.82 29.057-3.54 37.44-1.43 8.586 2.162 17.175 6.665 23.228 12.18 2.8 2.551 5.524 4.626 6.052 4.611s3.876-3.408 7.44-7.54M817.073 565.36c.326-8.669.758-29.802.96-46.962l.367-31.2-3.182.252c-7.964.63-18.96 9.266-22.866 17.957l-2.602 5.791.212 23.04c.21 23 .216 23.05 2.891 28.8 1.474 3.168 3.852 7.146 5.285 8.84 2.643 3.124 15.436 10.207 17.315 9.585.64-.212 1.25-6.273 1.62-16.103m273.789 7.786c1.789-1.571 4.505-5.568 6.035-8.882l2.783-6.026v-24.974c0-24.615-.035-25.047-2.387-30-1.312-2.765-2.675-5.026-3.029-5.026-.353 0-2.49-1.543-4.746-3.429-5.503-4.597-11.026-7.309-14.151-6.948-2.46.285-2.56.517-2.394 5.577 1.24 37.802 3.643 85.213 4.368 86.13 1.141 1.445 8.59-2.093 13.52-6.422m1.542-94.108c-.467-2.376-1.062-7.128-1.321-10.56-.589-7.788-2.79-19.279-4.782-24.96-4.07-11.608-10.223-20.16-14.506-20.16-.24 0-.435 13.983-.435 31.074v31.073l3.774.506c4.688.63 11.81 4.117 14.692 7.195l2.174 2.321.627-6.084c.344-3.347.244-8.029-.223-10.405M801.94 491.85c4.228-3.57 10.061-6.046 14.299-6.07l3.6-.022-.002-10.32c-.006-25.24-1.263-52.08-2.439-52.08-1.64 0-7.655 6.849-9.929 11.305-4.032 7.903-7.89 23.823-9.359 38.615-.876 8.823-.881 21.12-.01 21.12.452 0 2.18-1.147 3.84-2.548m10.219-67.532c0-.528-.19-.96-.423-.96s-.69.432-1.017.96-.136.96.423.96c.56 0 1.017-.432 1.017-.96" style="fill:transparent;stroke-width:.99999994" transform="translate(2.44 -9.173)"/><path d="M866.4 1703.415c-191.466-2.421-333.378-12.891-344.728-25.432-8.715-9.63 34.026-17.1 134.008-23.419 12.408-.784 25.431-1.43 28.94-1.435 6.168-.01 6.664-.196 14.88-5.633 10.35-6.848 32.448-18.06 43.54-22.089 4.488-1.63 15.85-5.415 25.247-8.41 9.398-2.997 16.742-5.754 16.32-6.128s-5.303-1.195-10.847-1.823c-34.166-3.871-91.719-15.099-92.877-18.119-.452-1.176.887-38.61 4.59-128.367.479-11.616 2.196-54.168 3.816-94.56s3.959-98.28 5.199-128.64c1.376-33.696 1.912-55.626 1.374-56.293-.484-.602-2.703-1.557-4.931-2.124s-7.723-2.81-12.211-4.986c-22.784-11.044-37.246-22.947-51.608-42.473-11.965-16.268-21.711-42.118-26.137-69.324-3.164-19.451-4.034-53.459-1.926-75.27 2.823-29.2 10.04-68.017 18.225-98.01 9.463-34.681 25.96-82.935 36.922-108 2.721-6.222 9.71-20.287 11.21-22.56.87-1.32 4.315-6.72 7.654-12 9.107-14.404 19.568-27.457 34.674-43.265l8.374-8.763.66-10.862.66-10.862 6.806-6.652c14.158-13.835 26.329-22.224 47.877-32.998 6.98-3.49 12.83-6.715 13.002-7.17.364-.96 15.438-5.876 23.365-7.62 7.609-1.674 8.515-1.126 8.331 5.042l-.15 5.07-.57-4.8c-.561-4.735-.612-4.798-3.798-4.647-4.932.235-21.576 5.047-25.217 7.29-1.779 1.097-8.256 4.476-14.394 7.51-20.344 10.057-36.85 21.521-48.449 33.65l-5.848 6.117-.693 10.957-.693 10.957-9.648 10.163c-26.093 27.483-41.963 51.883-55.315 85.043-27.888 69.258-45.43 136.67-51.089 196.32-1.337 14.104-1.34 49.593-.005 61.44 4.038 35.808 12.67 61.12 28.587 83.83 13.558 19.344 35.928 35.924 60.457 44.808 3.292 1.193 6.387 2.653 6.878 3.245.554.668.025 22.399-1.392 57.237a239882 239882 0 0 0-5.68 141.12c-1.868 46.728-4.03 100.296-4.805 119.04-3.215 77.76-3.607 89.236-3.098 90.564 1.164 3.033 50.56 12.676 91.798 17.922 8.67 1.103 16.04 2.175 16.376 2.382.776.48 27.914 3.023 46.099 4.32 23.044 1.644 100.34 2.248 130.08 1.016 14.784-.612 33.36-1.298 41.28-1.525 23.186-.664 52.367-3.373 87.36-8.11 58.084-7.863 97.267-13.976 98.782-15.412.721-.683-7.407-131.818-23.884-385.34-1.268-19.505-2.074-35.838-1.79-36.296s1.878-.525 3.543-.149c1.666.377 7.997.942 14.069 1.257l11.04.571v483.84l-4.349-.137c-3.663-.116-5.826-1.14-13.717-6.49-14.749-9.999-43.852-23.613-50.48-23.613-1.595 0-6.48.828-10.857 1.84-22.789 5.272-50.757 8.37-84.368 9.347l-21.99.639-.01 2.967c-.01 1.632-.262 4.487-.57 6.344l-.558 3.377-70.231-.157-70.23-.156-.48-6.1-.48-6.101-19.68-.646c-37.132-1.22-70.085-5.062-90.72-10.577-2.113-.565-5.137-.984-6.72-.932-6.687.219-36.721 14.413-50.874 24.043-8.375 5.698-8.815 5.872-14.878 5.881-13.198.02-68.453 3.89-96.969 6.792-49.032 4.99-70.47 10.464-65.314 16.677 5.441 6.557 57.408 13.438 137.794 18.248 77.28 4.624 157.878 6.564 272.64 6.563 192.083 0 344.351-7.516 395.784-19.529 11.91-2.782 17.147-6.031 14.622-9.074-4.405-5.307-42.34-11.485-96.006-15.635l-21.6-1.67-.241-247.871c-.193-197.556 0-248.077.96-248.887.66-.559 4.01-3.105 7.441-5.658 7.594-5.648 17.631-16.16 23.046-24.133 5.14-7.57 13.567-24.59 16.155-32.632 5.05-15.692 6.32-25.171 6.36-47.52.03-16.611-.331-22.964-1.69-29.76-2.093-10.472-6.217-23.572-8.28-26.304-1.396-1.849-1.518-.855-1.603 13.112-.075 12.293-.48 16.534-2.168 22.736-4.293 15.772-12.078 27.682-23.572 36.061-11.606 8.461-25.075 11.75-40.545 9.899-17.003-2.035-27.037-8.225-33.236-20.506-2.645-5.238-3.84-9.089-4.453-14.358-.8-6.858-4.077-16.383-6.744-19.596-2.121-2.556-.925-14.5 2.108-21.051l2.596-5.607-3.004-3.004c-4.278-4.278-5.935-8.793-5.879-16.022.061-7.846 2.715-15.035 9.048-24.503 5.735-8.574 9.618-11.956 18.887-16.448 6.843-3.318 7.364-3.414 20.16-3.716 15.483-.366 33.171.832 40.28 2.728 2.787.743 5.267 1.027 5.512.631 1.122-1.816-8.504-40.05-16.383-65.076l-5.234-16.625V307.152l2.64-.936c23.958-8.495 36.84-33.89 29.525-58.2-1.5-4.982-7.182-14.806-10.882-18.812-3.272-3.543-14.387-10.17-19.78-11.793-23.176-6.975-48.044 4.62-56.893 26.528-6.248 15.47-3.998 33.385 5.771 45.95 4.651 5.982 13.094 12.883 17.699 14.467l3.12 1.073v236.565c0 195.164-.221 236.566-1.266 236.566-.696 0-4.845-7.236-9.221-16.08-8.034-16.238-13.276-26.328-17.33-33.36a723 723 0 0 1-4.616-8.16c-1.32-2.376-3.204-5.467-4.184-6.868s-1.783-2.771-1.783-3.044-2.226-4.094-4.946-8.492c-13.313-21.52-18.813-28.192-33.454-40.582-17.73-15.004-38.505-29.549-40.029-28.025-.305.305.032 18.82.749 41.143.716 22.323 1.316 54.412 1.331 71.308.028 29.52-.059 31.001-2.21 37.92-10.078 32.42-42.53 53.507-95.201 61.858-13.889 2.202-33.095 3.375-42.72 2.608-7.913-.63-6.984-.74 11.04-1.313 43.442-1.38 77.304-11.004 100.676-28.615 15.986-12.046 24.651-26.84 27.083-46.235 1.002-7.989.05-62.397-2.022-115.456-.574-14.69-.591-24.297-.046-24.842 2.685-2.685 33.424 19.564 52.72 38.16 12.273 11.827 33.757 46.376 55.417 89.115 4.481 8.844 8.352 16.08 8.6 16.08.249 0 .452-105.419.452-234.264V307.152l-2.418-.919c-3.25-1.235-11.764-7.661-15.432-11.646-12.439-13.513-16.125-30.138-10.545-47.559 5.5-17.171 19.31-29.027 38.363-32.938 9.828-2.017 21.797.49 32.3 6.767 11.863 7.091 19.635 18.165 22.573 32.165 1.539 7.334 1.598 9.145.508 15.636-2.59 15.423-12.86 29.829-25.64 35.965-3.096 1.486-6.277 3.045-7.069 3.464-1.274.674-1.468 32.011-1.682 271.714l-.241 270.952 5.322 16.464c5.567 17.22 12.368 42.374 15.87 58.699 1.132 5.278 3.154 11.758 4.493 14.4 6.723 13.264 12.41 28.907 14.658 40.324.624 3.168 1.913 7.056 2.864 8.64 2.715 4.52 7.46 18.862 9.788 29.58 1.802 8.3 2.13 12.829 2.166 29.94.036 17.61-.247 21.556-2.244 31.2-3.93 18.98-10.462 34.84-20.556 49.912-5.712 8.529-20.206 23.297-27.32 27.836l-5.042 3.218.242 247.267.242 247.268 21.6 1.67c52.027 4.024 86.423 9.426 94.75 14.882 5.553 3.638-.034 8.671-12.946 11.66-36.962 8.555-129.774 15.144-258.444 18.347-39.695.988-168.107 1.833-205.92 1.355m329.533-81.268c.14-17.285-.098-31.427-.528-31.427s-1.191.408-1.693.907c-1.548 1.538-59.054 10.537-92.112 14.413-12.694 1.489-15.84 2.05-15.84 2.823 0 .382 2.268 1.264 5.04 1.961 8.856 2.226 43.158 13.535 51.398 16.945 12.824 5.307 28.206 13.338 36.826 19.228 4.409 3.012 9.312 5.799 10.896 6.192 6.097 1.514 5.736 3.38 6.013-31.042m-186.545 17.533c.327-4.488.405-11.832.173-16.32l-.422-8.16-4.17.032c-2.293.017-17.993.603-34.889 1.302-17.147.71-46.201 1.12-65.76.93l-35.04-.343.24 14.4c.131 7.92.4 14.832.598 15.36.235.627 24.292.96 69.518.96h69.158zm186.536-365.776-.244-101.777-10.08-.36c-5.544-.197-11.728-.683-13.743-1.079l-3.663-.72.576 5.656c.56 5.484 13.741 210.224 21.688 336.856 2.154 34.32 4.21 63.48 4.57 64.8.767 2.822 1.244-158.576.896-303.376M925.68 846.992c1.452-.22 3.828-.22 5.28 0s.264.4-2.64.4-4.092-.18-2.64-.4m-8.149-.951c1.194-.23 2.922-.22 3.84.02s-.059.428-2.171.417c-2.112-.01-2.863-.207-1.669-.437m-15.611-1.963c-4.224-.818-7.248-1.629-6.72-1.8.528-.173 5.28.5 10.56 1.494s8.304 1.804 6.72 1.8c-1.584-.003-6.336-.675-10.56-1.494m-10.26-2.814c.693-.277 1.521-.243 1.84.076s-.248.546-1.26.504c-1.118-.046-1.346-.273-.58-.58m-12.3-3.074c-30.01-9.916-48.774-23.932-58.625-43.79-6.387-12.877-6.647-15.472-6.43-64.32l.193-43.2.566 45.6c.626 50.456.555 49.843 7.255 63.078 8.923 17.628 27.942 31.614 56.081 41.241 6.6 2.258 11.352 4.102 10.56 4.097s-5.112-1.223-9.6-2.706m36.48-137.519c-12.025-1.969-22.672-10.189-28.135-21.72-2.818-5.95-3.063-7.245-3.045-16.071.018-8.84.265-10.105 3.12-15.976 3.923-8.072 12.285-16.066 20.107-19.223 5.422-2.188 6.287-2.241 36.753-2.241 30.73 0 31.287.035 36.96 2.312 4.178 1.677 7.498 4.05 12.088 8.64 8.496 8.496 10.862 14.343 10.915 26.968.034 8.316-.235 9.694-3.044 15.624-5.59 11.803-16.18 19.733-29.079 21.774-7.524 1.19-49.227 1.127-56.64-.087M815.46 658.08c0-14.256.133-20.222.297-13.257.164 6.964.164 18.628.001 25.92-.163 7.291-.297 1.593-.298-12.663m30.08-5.04c-11.058-12.579-18.985-65.803-22.84-153.36-.853-19.377-2.789-75.725-2.737-79.68.16-12.271 6.348-35.69 12.787-48.385 3.203-6.316 13.252-21.609 16.422-24.991 11.477-12.247 15.68-15.89 27.108-23.498 24.634-16.4 55.7-23.639 84.68-19.733 15.797 2.13 33.732 7.805 42.763 13.533 2.39 1.515 4.621 2.754 4.96 2.754 1.277 0 11.49 7.362 15.784 11.378 2.457 2.298 5.777 4.975 7.379 5.948s3.417 2.766 4.036 3.983c.618 1.216 2.4 3.507 3.961 5.091 6.131 6.222 10.37 12.619 16.416 24.77 6.351 12.766 8.92 20.086 11.686 33.31 2.774 13.26 1.86 120.051-1.436 167.52-2.795 40.28-8.244 69.826-14.621 79.29-3.136 4.652-5.324 4.261-7.526-1.345-7.099-18.07-24.225-32.777-47.33-40.642-8.617-2.933-10.666-2.854-14.56.565-5.535 4.86-12.23 5.916-19.592 3.088-4.151-1.594-4.573-1.584-10.804.247-5.912 1.737-7.056 1.793-12.96.627-8.113-1.601-11.142-1.609-16.474-.042-5.192 1.526-11.323.185-16.215-3.547l-3.209-2.447-5.929 2.148c-21.436 7.764-36.037 20.084-44.063 37.178-3.811 8.118-5.109 9.171-7.685 6.24m74.193-120.268c3.306-1.77 4.747-6.104 4.747-14.28 0-8.87-.967-11.595-4.95-13.948-3.907-2.308-8.615-1.333-11.792 2.442-2.232 2.652-2.455 3.688-2.424 11.248.037 8.988 1.105 12.098 4.872 14.186 2.776 1.539 7.036 1.696 9.547.352m57.195-.713c3.39-2.747 4.192-5.456 4.192-14.172 0-8.24-.033-8.351-3.385-11.704-3.004-3.004-3.79-3.322-6.96-2.818-2.324.37-4.53 1.628-6.304 3.596-2.65 2.94-2.72 3.285-2.4 11.972.308 8.377.508 9.13 3.149 11.886 3.281 3.423 8.35 3.96 11.708 1.24m-109.486-18.393c10.218-9.558 21.864-13.86 37.358-13.801 9.614.037 18.278 1.419 26.776 4.27 3.11 1.043 5.923 1.548 6.249 1.121s.449-7.4.273-15.494l-.319-14.719-3.05-1.273c-10.674-4.459-34.542-5.967-47.209-2.984-3.696.87-10.824 3.605-15.84 6.076-7.599 3.744-10.601 5.955-18 13.254-4.884 4.818-8.88 9.424-8.88 10.234 0 1.356 14.906 19.01 16.051 19.01.277 0 3.243-2.562 6.591-5.694m169.265-3.074c4.275-4.823 7.773-9.431 7.773-10.242 0-.81-3.996-5.416-8.88-10.234-7.458-7.358-10.34-9.472-18-13.2-5.016-2.443-12.144-5.183-15.84-6.09-12.458-3.059-36.426-1.56-47.231 2.953l-3.071 1.282-.29 14.71c-.158 8.09-.072 15.004.192 15.364s3.939-.351 8.166-1.58c26.53-7.717 48.97-3.694 63.794 11.436 2.354 2.403 4.58 4.369 4.946 4.369.367 0 4.165-3.946 8.44-8.768m-229.123 67.79c-7.797-3.902-10.921-7.155-14.73-15.342-2.676-5.75-2.681-5.8-2.892-28.8l-.212-23.04 2.602-5.79c3.906-8.692 14.902-17.327 22.866-17.958l3.182-.252-.367 31.2c-.501 42.607-1.321 62.648-2.58 63.065-.564.187-4.105-1.201-7.869-3.084m7.844-39.102c.353-21.78.892-41.868 1.197-44.64.5-4.522.367-5.04-1.286-5.04-6.347 0-19.223 10.839-21.422 18.033-.6 1.962-1.58 4.566-2.178 5.786-.82 1.674-.803 2.673.067 4.067.8 1.281 1.154 7.829 1.154 21.352 0 18.997.064 19.633 2.455 24.431 2.83 5.68 8.5 11.171 14.213 13.765 2.185.992 4.24 1.813 4.566 1.825s.882-17.799 1.234-39.579m261.912 40.29c-.724-.917-3.128-48.328-4.367-86.13-.166-5.06-.066-5.292 2.394-5.577 3.125-.361 8.648 2.35 14.15 6.948 2.258 1.886 4.394 3.429 4.747 3.429.354 0 1.717 2.261 3.03 5.026 2.352 4.953 2.386 5.385 2.386 30v24.974l-2.783 6.026c-3.074 6.658-6.909 10.532-13.96 14.105-3.575 1.812-4.89 2.093-5.597 1.198m12.553-8.641c1.234-1.171 3.293-4.289 4.575-6.929 2.248-4.626 2.342-5.658 2.619-28.524.342-28.352.045-29.94-6.884-36.759-4.735-4.66-13.538-9.942-14.674-8.806-.555.555 2.228 74.136 3.139 83.016l.522 5.088 4.23-2.479c2.325-1.363 5.238-3.436 6.473-4.607M810.72 424.32c.326-.528.784-.96 1.017-.96s.423.432.423.96-.457.96-1.017.96-.75-.432-.423-.96" style="fill:#edc29d;stroke-width:.99999994" transform="translate(2.44 -9.173)"/><path d="M654.72 1159.998c-12.973-9.938-26.3-25.712-34.33-40.638-14.093-26.19-20.482-57.231-20.453-99.36.03-43.335 7.408-89.098 23.213-144 10.904-37.878 28.559-85.91 39.372-107.119 10.006-19.624 26.459-42.184 44.399-60.881l9.212-9.6-.567 15.36c-.311 8.448-.868 20.547-1.237 26.886l-.67 11.526-7.26 11.034c-36.51 55.487-61.648 134.078-71.086 222.234-1.945 18.173-1.623 78.336.505 94.08 3.79 28.04 9.395 49.376 18.547 70.6 2.97 6.884 5.236 12.667 5.037 12.852-.2.184-2.306-1.154-4.682-2.974m498.34-.355c-10.786-4.894-27.818-20.611-35.85-33.083-12.602-19.57-20.036-41.824-22.091-66.134-1.03-12.172-.942-14.787 1.003-30.007 3.101-24.28 8.798-40.648 20.236-58.148 5.894-9.018 17.766-21.63 25.562-27.155 5.324-3.773 13.07-8.156 14.415-8.156.314 0-1.522 2.127-4.08 4.726-5.64 5.73-11.568 17.211-13.171 25.514l-1.021 5.28c-.255 1.32-.519 4.776-.585 7.68-.081 3.51-.74 6.158-1.97 7.9-5.757 8.154-10.903 24.266-12.211 38.233-1.673 17.856 1.099 33.036 9.028 49.453 11.245 23.283 30.696 37.176 53.995 38.566l8.88.53v42.781l-5.04 1.045c-15.871 3.29-31.116 3.69-37.1.975m74.78-39.234c0-12.834.371-22.169.882-22.169.485 0 3.516-3.275 6.736-7.277 6.82-8.478 14.902-24.23 14.232-27.738-.322-1.685.564-3.546 3.218-6.758 5.124-6.2 8.937-13.18 11.795-21.587l2.448-7.2.024 16.51c.048 32.2-4.88 53.839-16.725 73.452-4.674 7.739-11.11 15.308-17.732 20.852l-4.878 4.085zM927.613 847.951c1.46-.22 3.62-.215 4.8.013s-.013.409-2.653.401-3.606-.193-2.147-.414m-9.122-.95c1.194-.23 2.922-.22 3.84.02s-.059.428-2.171.417c-2.112-.01-2.863-.207-1.669-.437m-6.233-.946c.934-.244 2.23-.228 2.88.035s-.114.462-1.698.443-2.116-.235-1.182-.478m-6.258-.93c.66-.267 1.74-.267 2.4 0 .66.266.12.483-1.2.483s-1.86-.217-1.2-.484m-5.76-.96c.66-.267 1.74-.267 2.4 0 .66.266.12.483-1.2.483s-1.86-.217-1.2-.484m-3.78-.98c.693-.278 1.521-.244 1.84.075s-.248.546-1.26.504c-1.118-.046-1.346-.273-.58-.58m-3.84-.96c.693-.278 1.521-.244 1.84.075s-.248.546-1.26.504c-1.118-.046-1.346-.273-.58-.58m-3.84-.96c.693-.278 1.521-.244 1.84.075s-.248.546-1.26.504c-1.118-.046-1.346-.273-.58-.58m-3.84-.96c.693-.278 1.521-.244 1.84.075s-.248.546-1.26.504c-1.118-.046-1.346-.273-.58-.58M814.49 666.72c0-11.616.138-16.236.307-10.267s.168 15.473 0 21.12c-.17 5.647-.308.763-.308-10.853zm.857-39.84c0-3.432.175-4.836.387-3.12s.213 4.524 0 6.24c-.212 1.716-.387.312-.387-3.12m-8.167-5.456c.693-.277 1.521-.243 1.84.076s-.248.546-1.26.504c-1.118-.046-1.346-.273-.58-.58m373.08-326.944-2.82-3.12 3.12 2.82c2.908 2.628 3.561 3.42 2.82 3.42-.166 0-1.57-1.404-3.12-3.12m3.42-26.358c-2.239-.818-5.804-4.337-7.291-7.194-2.147-4.127-1.69-12.956.967-18.662 4.607-9.895 14.512-17.599 22.644-17.613 11.714-.02 17.139 13.88 10.673 27.347-5.613 11.693-18.331 19.288-26.993 16.122" style="fill:#fcc565;stroke-width:.99999994" transform="translate(2.44 -9.173)"/><path d="M926.684 1702.326c4.116-.18 10.596-.18 14.4 0 3.804.181.436.329-7.484.328-7.92 0-11.032-.15-6.916-.33zm-88.906-.964c9.074-.158 24.194-.158 33.6 0 9.406.156 1.982.285-16.498.286-18.48 0-26.176-.128-17.102-.286m156.48 0c9.074-.158 24.194-.158 33.6 0 9.406.156 1.982.285-16.498.286-18.48 0-26.176-.128-17.102-.286m-205.858-.958c5.148-.172 13.572-.172 18.72 0 5.148.173.936.314-9.36.314s-14.508-.141-9.36-.314m271.68 0c5.148-.172 13.572-.172 18.72 0 5.148.173.936.314-9.36.314s-14.508-.141-9.36-.314m-306.72-.957c3.828-.182 10.092-.182 13.92 0s.696.331-6.96.331-10.788-.149-6.96-.33m345.6 0c3.828-.182 10.092-.182 13.92 0s.696.331-6.96.331-10.788-.149-6.96-.33m-372.442-.959c3.32-.188 8.504-.186 11.52 0 3.015.19.298.344-6.038.342-6.336 0-8.803-.157-5.482-.345zm402.722 0c3.586-.185 9.202-.184 12.48 0 3.278.187.344.339-6.52.337-6.864 0-9.546-.155-5.96-.34zm-426.722-.959c3.32-.188 8.504-.186 11.52 0 3.015.19.298.344-6.038.342-6.336 0-8.803-.157-5.482-.345zm451.677 0c3.055-.19 7.807-.189 10.56 0 2.753.194.253.35-5.555.348-5.808 0-8.06-.16-5.005-.352zm-472.355-.955c2.508-.197 6.612-.197 9.12 0 2.508.198.456.36-4.56.36s-7.068-.162-4.56-.36m493.44 0c2.508-.197 6.612-.197 9.12 0 2.508.198.456.36-4.56.36s-7.068-.162-4.56-.36m-510.215-.958c2.258-.203 5.714-.2 7.68.01 1.966.206.119.372-4.105.369-4.224 0-5.833-.173-3.575-.376zm529.415 0c2.508-.198 6.612-.198 9.12 0s.456.36-4.56.36-7.068-.162-4.56-.36m-545.735-.959c2.258-.203 5.714-.2 7.68.01 1.966.207.119.372-4.105.369-4.224 0-5.833-.172-3.575-.375zm563.015.01c1.98-.207 5.22-.207 7.2 0s.36.377-3.6.377-5.58-.17-3.6-.377m-577.44-.955c1.716-.213 4.524-.213 6.24 0s.312.387-3.12.387-4.836-.174-3.12-.387m592.32 0c1.716-.213 4.524-.213 6.24 0s.312.387-3.12.387-4.836-.174-3.12-.387m-605.76-.96c1.716-.213 4.524-.213 6.24 0s.312.387-3.12.387-4.836-.174-3.12-.387m619.2 0c1.716-.213 4.524-.213 6.24 0s.312.387-3.12.387-4.836-.174-3.12-.387m-631.2-.953c1.452-.22 3.828-.22 5.28 0s.264.4-2.64.4-4.092-.18-2.64-.4m644.16 0c1.452-.22 3.828-.22 5.28 0s.264.4-2.64.4-4.092-.18-2.64-.4m-654.707-.961c1.46-.22 3.62-.215 4.8.014 1.18.227-.013.408-2.653.4-2.64-.01-3.606-.193-2.147-.413zm666.24 0c1.46-.22 3.62-.215 4.8.014 1.181.227-.014.408-2.653.4-2.64-.01-3.606-.193-2.147-.413zm-676.333-.956c1.188-.228 3.132-.228 4.32 0 1.188.23.216.416-2.16.416s-3.348-.187-2.16-.416m686.4 0c1.188-.228 3.132-.228 4.32 0 1.188.23.216.416-2.16.416s-3.348-.187-2.16-.416m-695.029-.961c1.194-.23 2.922-.22 3.84.019.918.24-.059.428-2.171.418s-2.863-.208-1.669-.437m704.64 0c1.194-.23 2.922-.22 3.84.019.918.24-.06.428-2.171.418-2.112-.011-2.863-.208-1.669-.437m-713.28-.96c1.194-.23 2.922-.22 3.84.019.918.24-.059.428-2.171.418s-2.863-.208-1.669-.437m721.92 0c1.194-.23 2.922-.22 3.84.019.918.24-.059.428-2.171.418s-2.863-.208-1.669-.437m-730.091-.943c.924-.241 2.436-.241 3.36 0 .924.242.168.44-1.68.44s-2.604-.198-1.68-.44m738.258 0c.934-.243 2.23-.227 2.88.035.65.263-.114.462-1.698.443s-2.116-.235-1.182-.478m-744.96-.96c.934-.243 2.23-.227 2.88.036s-.114.462-1.698.443-2.116-.235-1.182-.478zm751.68 0c.934-.243 2.23-.227 2.88.036s-.114.462-1.698.443-2.116-.235-1.182-.478zm-757.938-.93c.66-.267 1.74-.267 2.4 0 .66.266.12.484-1.2.484s-1.86-.218-1.2-.484m764.16 0c.66-.267 1.74-.267 2.4 0 .66.266.12.484-1.2.484s-1.86-.218-1.2-.484m-768.9-.98c.693-.278 1.521-.243 1.84.076s-.248.546-1.26.504c-1.118-.046-1.346-.274-.58-.58m774.198-.01c.934-.244 2.23-.228 2.88.035s-.114.462-1.698.442c-1.584-.019-2.116-.234-1.182-.478zm-778.998-.95c.693-.278 1.521-.244 1.84.076.319.319-.248.546-1.26.504-1.118-.046-1.346-.274-.58-.58m785.28 0c.693-.278 1.521-.244 1.84.076.319.319-.248.546-1.26.504-1.118-.046-1.346-.274-.58-.58m-790.14-.944c.66-.266 1.74-.266 2.4 0s.12.484-1.2.484-1.86-.218-1.2-.484m797.82-.98c.693-.277 1.521-.243 1.84.076.319.32-.248.546-1.26.504-1.118-.046-1.346-.273-.58-.58m9.876-7.308c-1.214-2.022-1.193-2.042.46-.459.951.912 1.523 1.864 1.27 2.116-.252.253-1.03-.493-1.73-1.657m-808.656-5.152c.66-.266 1.74-.266 2.4 0s.12.484-1.2.484-1.86-.217-1.2-.484m4.8-.96c.66-.266 1.74-.266 2.4 0s.12.484-1.2.484-1.86-.217-1.2-.484m786.24 0c.66-.266 1.74-.266 2.4 0s.12.484-1.2.484-1.86-.217-1.2-.484m-781.44-.96c.66-.266 1.74-.266 2.4 0s.12.484-1.2.484-1.86-.217-1.2-.484m777.66-.02c.693-.277 1.521-.243 1.84.076.319.32-.248.546-1.26.504-1.118-.045-1.346-.273-.58-.58m-772.362-.97c.934-.243 2.23-.227 2.88.036s-.114.462-1.698.442c-1.584-.019-2.116-.234-1.182-.478m766.542.03c.66-.266 1.74-.266 2.4 0 .66.267.12.485-1.2.485s-1.86-.218-1.2-.484m-761.28-.96c.66-.266 1.74-.266 2.4 0 .66.267.12.485-1.2.485s-1.86-.218-1.2-.484m755.058-.03c.934-.243 2.23-.227 2.88.036s-.114.462-1.698.442c-1.584-.019-2.116-.234-1.182-.478m-748.818-.956c.924-.242 2.436-.242 3.36 0 .924.241.168.44-1.68.44s-2.604-.198-1.68-.44m742.098 0c.934-.243 2.23-.227 2.88.035.65.263-.114.462-1.698.443s-2.116-.235-1.182-.478m-734.418-.956c.924-.242 2.436-.242 3.36 0 .924.241.168.439-1.68.439s-2.604-.198-1.68-.44m726.251-.017c1.194-.23 2.922-.221 3.84.019s-.06.428-2.171.417c-2.112-.01-2.863-.207-1.669-.437zm-718.091-.963c1.188-.228 3.132-.228 4.32 0 1.188.23.216.417-2.16.417s-3.348-.188-2.16-.417m709.92.016c.924-.242 2.436-.242 3.36 0 .924.24.168.439-1.68.439s-2.604-.198-1.68-.44m-700.309-.978c1.194-.23 2.922-.22 3.84.02s-.059.427-2.171.417-2.863-.208-1.669-.437m691.189 0c1.188-.229 3.132-.229 4.32 0s.216.416-2.16.416-3.348-.187-2.16-.416m-682.067-.971c1.46-.22 3.62-.215 4.8.013s-.013.408-2.653.401c-2.64-.01-3.606-.194-2.147-.414m672 0c1.46-.22 3.62-.215 4.8.013 1.181.228-.014.408-2.653.401-2.64-.01-3.606-.194-2.147-.414m-661.44-.96c1.46-.22 3.62-.215 4.8.013s-.013.408-2.653.401c-2.64-.01-3.606-.194-2.147-.414m649.907 0c1.452-.22 3.828-.22 5.28 0s.264.4-2.64.4-4.092-.18-2.64-.4m-638.88-.967c1.716-.213 4.524-.213 6.24 0s.312.387-3.12.387-4.836-.174-3.12-.387m626.897 0c1.726-.214 4.318-.21 5.76.01 1.443.219.031.394-3.137.388-3.168-.01-4.348-.184-2.623-.398m-613.457-.957c1.716-.212 4.524-.212 6.24 0 1.716.214.312.388-3.12.388s-4.836-.175-3.12-.388m600 0c1.716-.212 4.524-.212 6.24 0 1.716.214.312.388-3.12.388s-4.836-.175-3.12-.388m-585.575-.97c2.258-.202 5.714-.2 7.68.01 1.966.207.119.373-4.105.37-4.224 0-5.833-.173-3.575-.376zm15.815-.954c1.98-.207 5.22-.207 7.2 0s.36.376-3.6.376-5.58-.17-3.6-.376m531.6.33c0-.202 1.067-.571 2.37-.82 1.305-.25 2.143-.084 1.864.368-.491.795-4.234 1.196-4.234.453m-514.768-1.3c2.79-.194 7.11-.192 9.6 0 2.49.197.208.356-5.072.354-5.28 0-7.318-.164-4.528-.358zm194.86-4.77c1.193-.23 2.921-.22 3.84.019.917.24-.06.428-2.172.418-2.112-.012-2.863-.208-1.669-.437zm121.908-.029c2.772-.194 7.308-.194 10.08 0s.504.353-5.04.353-7.812-.16-5.04-.353m-82.974-.972c12.576-.151 32.88-.151 45.12 0 12.24.153 1.95.277-22.866.276-24.816 0-34.83-.124-22.254-.276m98.65-2.72c.046-1.119.273-1.346.58-.58.277.693.243 1.52-.076 1.84-.32.319-.546-.248-.504-1.26m-153.676-9.04-12-.57 11.703-.195c6.985-.117 11.943.192 12.297.765.326.528.46.872.297.765s-5.697-.451-12.297-.765m160.08-.71c3.3-.188 8.7-.188 12 0 3.3.187.6.34-6 .34s-9.3-.153-6-.34m-189.6-.956c2.508-.197 6.612-.197 9.12 0 2.508.198.456.36-4.56.36s-7.068-.162-4.56-.36m216.96 0c2.508-.197 6.612-.197 9.12 0 2.508.198.456.36-4.56.36s-7.068-.162-4.56-.36m-230.863-.95c1.726-.213 4.318-.209 5.76.01 1.443.22.031.394-3.137.389-3.168-.01-4.348-.185-2.623-.399m248.64 0c1.726-.213 4.318-.209 5.76.01 1.443.22.031.394-3.137.389-3.168-.01-4.348-.185-2.623-.399m-258.724-.953c1.46-.22 3.62-.215 4.8.013s-.013.408-2.653.401c-2.64-.01-3.606-.193-2.147-.414m269.267.012c1.188-.229 3.132-.229 4.32 0s.216.416-2.16.416-3.348-.187-2.16-.416m-276.96-.944c.924-.242 2.436-.242 3.36 0 .924.241.168.439-1.68.439s-2.604-.198-1.68-.44m286.571-.017c1.194-.23 2.922-.221 3.84.019s-.059.428-2.171.417c-2.112-.01-2.863-.207-1.669-.437zm-293.291-.944c.924-.241 2.436-.241 3.36 0 .924.242.168.44-1.68.44s-2.604-.198-1.68-.44m300.48 0c.924-.241 2.436-.241 3.36 0 .924.242.168.44-1.68.44s-2.604-.198-1.68-.44m-307.2-.96c.924-.241 2.436-.241 3.36 0 .924.242.168.44-1.68.44s-2.604-.198-1.68-.44m313.938 0c.934-.243 2.23-.227 2.88.035.65.263-.114.462-1.698.443s-2.116-.235-1.182-.478m-319.218-.93c.66-.267 1.74-.267 2.4 0 .66.266.12.484-1.2.484s-1.86-.218-1.2-.484m326.16-.328c1.584-.403 3.96-.733 5.28-.733 2.14 0 2.089.08-.48.733-1.584.403-3.96.733-5.28.733-2.14 0-2.089-.08.48-.733m-331.422-.665c.934-.244 2.23-.228 2.88.035s-.114.462-1.698.442c-1.584-.019-2.116-.234-1.182-.478zm-7.938-1.255c-1.9-.609-2-.769-.48-.769 1.056 0 3 .346 4.32.769 1.9.609 2 .769.48.769-1.056 0-3-.346-4.32-.769m348.3.304c.693-.277 1.521-.243 1.84.076.319.32-.248.546-1.26.505-1.118-.046-1.346-.274-.58-.58zm3.78-.94c.66-.266 1.74-.266 2.4 0s.12.484-1.2.484-1.86-.217-1.2-.484m-357.06-.98c.693-.277 1.521-.243 1.84.076.319.32-.248.546-1.26.504-1.118-.045-1.346-.273-.58-.58m361.92 0c.693-.277 1.521-.243 1.84.076.319.32-.248.546-1.26.504-1.118-.045-1.346-.273-.58-.58m-365.76-.96c.693-.277 1.521-.243 1.84.076.319.32-.248.546-1.26.504-1.118-.045-1.346-.273-.58-.58m369.6 0c.693-.277 1.521-.243 1.84.076.319.32-.248.546-1.26.504-1.118-.045-1.346-.273-.58-.58m-260.7-8.646c.924-.241 2.436-.241 3.36 0 .924.242.168.44-1.68.44s-2.604-.198-1.68-.44m-14.855-1.002c2.258-.203 5.714-.2 7.68.01 1.966.206.119.372-4.105.369-4.224 0-5.833-.173-3.575-.376zm-15.865-.955c1.98-.207 5.22-.207 7.2 0s.36.376-3.6.376-5.58-.17-3.6-.376m178.08.063c.66-.267 1.74-.267 2.4 0 .66.266.12.484-1.2.484s-1.86-.218-1.2-.484m-190.56-1.012c1.452-.22 3.828-.22 5.28 0s.264.4-2.64.4-4.092-.18-2.64-.4m198.219-.01c1.704-.212 4.728-.216 6.72-.01 1.991.208.597.381-3.099.385-3.696 0-5.326-.165-3.621-.377zm-209.739-.95c1.452-.22 3.828-.22 5.28 0s.264.4-2.64.4-4.092-.18-2.64-.4m223.68 0c1.452-.22 3.828-.22 5.28 0s.264.4-2.64.4-4.092-.18-2.64-.4m-233.76-.95c1.188-.228 3.132-.228 4.32 0 1.188.23.216.416-2.16.416s-3.348-.187-2.16-.416m245.28-.01c1.452-.22 3.828-.22 5.28 0s.264.4-2.64.4-4.092-.18-2.64-.4m-252.48-.934c.924-.241 2.436-.241 3.36 0 .924.242.168.44-1.68.44s-2.604-.198-1.68-.44m263.053-.027c1.46-.22 3.62-.214 4.8.013 1.181.228-.014.409-2.653.402-2.64-.01-3.606-.194-2.147-.415m9.6-.96c1.46-.22 3.62-.214 4.8.013 1.181.228-.013.409-2.653.402-2.64-.01-3.606-.194-2.147-.415m9.6-.96c1.46-.22 3.62-.214 4.8.013 1.181.228-.014.409-2.653.402-2.64-.01-3.606-.194-2.147-.415m-391.69-33.391c.01-2.112.206-2.863.436-1.669s.22 2.922-.02 3.84-.428-.06-.417-2.171m.96-24c.01-2.112.206-2.863.436-1.669s.22 2.922-.02 3.84-.428-.06-.417-2.171m.978-23.52c0-2.376.188-3.348.417-2.16s.228 3.132 0 4.32c-.23 1.188-.417.216-.417-2.16m.96-24c0-2.376.188-3.348.417-2.16s.228 3.132 0 4.32c-.23 1.188-.417.216-.417-2.16m.922-23.04c0-1.848.197-2.604.439-1.68.241.924.241 2.436 0 3.36-.242.924-.44.168-.44-1.68m.924-23.52c.02-1.584.235-2.116.478-1.182.244.934.228 2.23-.035 2.88s-.462-.114-.443-1.698m1.015-24.96c.01-2.112.207-2.863.437-1.669s.22 2.922-.02 3.84-.428-.059-.417-2.171m.96-24c.01-2.112.207-2.863.437-1.669s.22 2.922-.02 3.84-.428-.059-.417-2.171m.96-24c.01-2.112.207-2.863.437-1.669s.22 2.922-.02 3.84-.428-.059-.417-2.171m.96-24c.01-2.112.207-2.863.437-1.669s.22 2.922-.02 3.84-.428-.059-.417-2.171m.98-23.52c0-2.376.187-3.348.416-2.16s.228 3.132 0 4.32c-.23 1.188-.417.216-.417-2.16m.96-24c0-2.376.187-3.348.416-2.16s.228 3.132 0 4.32c-.23 1.188-.417.216-.417-2.16m.92-23.04c0-1.848.198-2.604.44-1.68.241.924.241 2.436 0 3.36-.242.924-.44.168-.44-1.68m.98-24.48c.01-2.112.207-2.863.437-1.669s.22 2.922-.02 3.84-.428-.059-.417-2.171m.96-24c.01-2.112.207-2.863.437-1.669s.22 2.922-.02 3.84-.428-.059-.417-2.171m.98-22.56c0-2.376.187-3.348.416-2.16s.228 3.132 0 4.32c-.23 1.188-.417.216-.417-2.16m.96-24c0-2.376.187-3.348.416-2.16s.228 3.132 0 4.32c-.23 1.188-.417.216-.417-2.16m-.473-12.1c-.38-.584-3.403-2.035-6.72-3.224-6.727-2.414-25.118-11.721-28.146-14.245-2.635-2.196-12.118-24.438-16.297-38.223-4.007-13.22-7.445-29.735-9.768-46.928-2.128-15.744-2.45-75.907-.505-94.08 9.44-88.167 34.602-166.823 71.096-222.24l7.27-11.04.733-13.92c1.89-35.92 2.204-40.558 2.507-37.13.179 2.018-.133 13.466-.694 25.44-.56 11.973-2.742 64.106-4.847 115.85s-4.272 103.152-4.817 114.24-2.508 60.12-4.364 108.96c-4.099 107.851-4.568 117.89-5.448 116.54m487.891-12.065c-16.868-1.18-16.696-1.156-17.76-2.366-.528-.6-3.822-2.021-7.32-3.158-25.247-8.207-49.47-36.573-59.494-69.671-3.972-13.11-4.384-13.782-11.455-18.634-72.726-49.898-137.687-121.941-194.843-216.086-5.93-9.768-11.706-18.787-12.835-20.042l-2.053-2.282 2.88 1.426c6.277 3.108 31.181 7.968 46.29 9.033 4.868.343 8.66.933 8.426 1.31-.57.924 16.323 25.756 30.033 44.148 30.029 40.282 66.266 81.272 101.085 114.341 26.39 25.065 26.824 25.355 26.784 17.906-.022-4.022-.242-4.286-15.375-18.48-33.163-31.105-70.718-73.233-99.272-111.36-14.273-19.058-15.617-20.972-25.491-36.277-3.334-5.168-6.601-9.704-7.26-10.08s3.406-.79 9.032-.92c20.587-.475 46.35-5.022 64.763-11.432 32.213-11.212 51.804-28.74 59.387-53.131 2.15-6.919 2.237-8.4 2.21-37.92-.016-16.896-.616-48.985-1.332-71.308s-1.054-40.838-.749-41.143c1.524-1.524 22.299 13.021 40.029 28.025 14.641 12.39 20.141 19.061 33.454 40.582 2.72 4.398 4.946 8.22 4.946 8.492s.802 1.642 1.783 3.044c.98 1.401 2.863 4.492 4.184 6.868a723 723 0 0 0 4.616 8.16c4.054 7.032 9.296 17.122 17.33 33.36 4.376 8.844 8.417 16.08 8.981 16.08.721 0 .946 21.884.756 73.68-.15 40.524-.05 74.584.22 75.688.472 1.935 1.014 2.003 14.67 1.85l14.18-.159.294-38.33.293-38.329 4.765 14.88c7.554 23.588 17.872 64.388 16.745 66.212-.244.396-2.725.112-5.51-.631-7.11-1.896-24.799-3.094-40.282-2.728-12.795.302-13.316.398-20.16 3.715-9.268 4.493-13.152 7.875-18.886 16.449-6.333 9.468-8.988 16.657-9.048 24.503-.056 7.229 1.6 11.744 5.879 16.022l3.004 3.004-2.597 5.607c-3.033 6.55-4.229 18.495-2.108 21.05 2.668 3.214 5.945 12.739 6.744 19.597.614 5.27 1.808 9.12 4.453 14.358 6.2 12.28 16.234 18.471 33.237 20.506 15.186 1.817 29.087-1.483 39.956-9.484 3.182-2.343 6.217-4.26 6.744-4.26 1.792 0 .964 3.952-2.315 11.048-3.987 8.629-8.645 15.722-14.46 22.017l-4.383 4.746.257 21.618.258 21.617 8.246-8.123c4.535-4.468 9.61-10.143 11.277-12.612 7.764-11.497 14.131-27.855 17.06-43.827 1.5-8.182 3.448-47.658 3.643-73.84.087-11.788.204-12.57 1.605-10.711 2.064 2.737 6.187 15.839 8.28 26.307 1.358 6.796 1.719 13.149 1.69 29.76-.04 22.349-1.31 31.828-6.36 47.52-2.588 8.041-11.015 25.062-16.155 32.632-5.415 7.973-15.453 18.485-23.046 24.133-3.432 2.553-6.672 4.998-7.2 5.432-.636.523-1.057-9.934-1.247-30.943-.32-35.549-.998-31.679 7.33-41.89 4-4.907 10.288-16.033 9.504-16.817-.209-.209-2.89.98-5.96 2.643-6.445 3.49-11.515 4.12-32.73 4.07-13.064-.033-13.71-.13-19.873-3.014-12.304-5.758-19.915-16.75-22.301-32.21-.669-4.331-2.151-9.928-3.294-12.436l-2.079-4.56h-6.526c-5.008 0-6.882-.393-8.054-1.688-.84-.928-2.221-5.788-3.07-10.8s-1.865-10.84-2.26-12.952l-.718-3.84-3 7.68c-12.32 31.547-5.64 68.195 16.452 90.258 11.305 11.29 23.378 16.77 37.763 17.14 5.776.15 8.289.599 8.964 1.605.575.857.83 12.627.659 30.437l-.28 28.897c0-.079-5.4-.52-12-.981m-7.68-9.426c4.488-.515 10.428-1.406 13.2-1.98l5.04-1.045v-42.782l-8.88-.53c-16.399-.978-29.836-7.565-41.997-20.587-11.6-12.423-19.334-30.8-21.122-50.198-1.735-18.814 3.69-43.262 12.307-55.467 1.23-1.742 1.89-4.39 1.97-7.9.066-2.904.33-6.36.585-7.68l1.02-5.28c1.604-8.303 7.531-19.784 13.171-25.514 2.559-2.6 4.395-4.726 4.08-4.726-1.344 0-9.09 4.383-14.414 8.156-7.796 5.525-19.668 18.137-25.562 27.155-11.438 17.5-17.134 33.869-20.236 58.148-1.945 15.22-2.033 17.835-1.003 30.007 2.055 24.31 9.489 46.563 22.092 66.134 8.031 12.472 25.063 28.19 35.849 33.083 4.786 2.172 11.338 2.448 23.9 1.006m48.262 4.791c0-2.376.187-3.348.416-2.16s.228 3.132 0 4.32c-.23 1.188-.416.216-.416-2.16m-583.994-17.04-3.308-3.6 3.6 3.308c3.35 3.08 4.041 3.892 3.308 3.892-.16 0-1.78-1.62-3.6-3.6m584.13-314.16c0-9.768.143-13.764.317-8.88s.175 12.876 0 17.76c-.174 4.884-.316.888-.316-8.88M813.274 701.536c-.084-.916-2.265-6.964-4.846-13.44-2.58-6.477-8.202-21.496-12.492-33.376-8.595-23.801-8.948-24.592-10.806-24.226-3.502.69 2.935-2.698 9.057-4.766 7.663-2.588 20.013-5.77 20.502-5.28.172.172-.041 18.862-.474 41.532-.433 22.671-.856 40.471-.94 39.556m-95.91-9.856c.01-2.112.206-2.863.436-1.669s.22 2.922-.02 3.84-.428-.059-.417-2.171m11.237-26.64c3.978-4.239 4.84-5 4.84-4.28 0 .154-2.052 2.206-4.56 4.56l-4.56 4.28Zm6.76-5.882c0-.2.756-.956 1.68-1.68 1.523-1.195 1.557-1.16.362.362-1.254 1.6-2.042 2.108-2.042 1.318m74.268-82.124c-5.713-2.594-11.383-8.085-14.213-13.765-2.391-4.798-2.455-5.434-2.455-24.43 0-13.524-.354-20.072-1.154-21.353-.87-1.394-.887-2.393-.067-4.067.598-1.22 1.578-3.824 2.178-5.786 2.199-7.194 15.075-18.033 21.422-18.033 1.653 0 1.785.518 1.286 5.04-.305 2.772-.844 22.86-1.197 44.64-.352 21.78-.908 39.59-1.235 39.579-.326-.012-2.38-.833-4.565-1.825m269.04-4.107c-.911-8.88-3.694-82.461-3.14-83.016 1.137-1.136 9.94 4.146 14.675 8.806 6.93 6.819 7.226 8.407 6.884 36.759-.277 22.866-.371 23.898-2.619 28.524-2.681 5.52-5.109 8.055-11.049 11.536l-4.229 2.479zM912.78 533.104c.693-.277 1.521-.243 1.84.076s-.248.546-1.26.504c-1.118-.046-1.346-.273-.58-.58m4.928-.404c1.292-.515 2.824-1.244 3.406-1.619.58-.374.232.075-.775.999s-2.54 1.653-3.405 1.62c-.995-.04-.71-.407.774-1m49.64.34c-.244-.396 1.633-.72 4.172-.72 2.54 0 4.416.324 4.172.72s-2.122.72-4.172.72-3.927-.324-4.172-.72m-61.722-14.64c0-5.016.162-7.068.36-4.56s.197 6.612 0 9.12c-.198 2.508-.36.456-.36-4.56m74.61 7.12c.046-1.118.273-1.346.58-.58.277.693.243 1.521-.076 1.84s-.546-.248-.504-1.26m-18.093-2.32c0-1.848.197-2.604.439-1.68.241.924.241 2.436 0 3.36-.242.924-.44.168-.44-1.68m-.071-11.52c0-1.32.218-1.86.484-1.2s.266 1.74 0 2.4-.484.12-.484-1.2m18.164-.56c.046-1.118.273-1.346.58-.58.277.693.243 1.521-.076 1.84s-.546-.248-.504-1.26m-71.865-4.752c1.436-1.51 2.783-2.553 2.994-2.317.21.236-.965 1.472-2.611 2.746l-2.994 2.318zm56.64 0c1.436-1.51 2.783-2.553 2.994-2.317.21.236-.965 1.472-2.611 2.746l-2.994 2.318zm11.038-1.04c-.325-.324-2.017-.928-3.76-1.341-2.756-.653-2.849-.763-.712-.849 1.35-.054 3.295.536 4.32 1.311 1.025.776 1.611 1.424 1.303 1.44s-.826-.235-1.151-.56m-61.87-1.993c.933-.244 2.23-.228 2.88.035s-.115.462-1.699.443-2.116-.235-1.182-.478m292.541-195.396c-3.432-.503-6.996-.967-7.92-1.032s-1.68-.416-1.68-.779-1.295-1.112-2.877-1.663c-5.225-1.822-14.41-9.905-20.197-17.774-10.05-13.664-8.86-40.078 2.378-52.84 1.35-1.534 2.456-3.14 2.456-3.57s2.41-2.561 5.356-4.737c16.835-12.437 36.424-13.612 53.578-3.216 7.947 4.816 10.465 7.31 15.06 14.915 4.41 7.297 6.261 12.658 7.169 20.748 1.41 12.569-4.279 28.258-13.266 36.59a534 534 0 0 0-3.84 3.608c-2.548 2.42-12.887 8.051-14.782 8.051-.734 0-1.583.646-1.886 1.434-.302.79-1.033 1.137-1.623.772-1-.619-6.984-.552-10.246.114-.792.161-4.248-.118-7.68-.62m-10.56-41.133c9.892-4.468 17.28-15.728 17.276-26.326 0-6.724-2.131-10.989-6.947-13.925-11.906-7.26-31.41 9.003-31.44 26.213-.01 3.062.598 6.734 1.34 8.16 1.487 2.857 5.052 6.376 7.291 7.194 3.047 1.114 8.336.556 12.48-1.316" style="fill:#dbaa58;stroke-width:.99999994" transform="translate(2.44 -9.173)"/><path d="M888.795 1701.93c-.701-.46-17.259-.912-36.795-1.004-51.893-.243-91.684-1.17-137.28-3.198-97.433-4.332-162.335-10.46-184.8-17.448-6.073-1.89-7.68-2.872-7.68-4.698 0-6.014 45.781-13.346 109.92-17.603 38.628-2.564 45.223-2.939 51.685-2.939 6.858 0 6.935-.029 15.523-5.874 9.298-6.326 29.604-16.797 42.598-21.964l8.046-3.2 8.754 2.085c25.374 6.04 45.99 8.521 84.114 10.124l25.44 1.069.286 6c.184 3.875.694 6 1.44 5.999.635 0 32.18.084 70.1.19 59.285.164 69.069 0 69.825-1.199.484-.764.886-3.574.894-6.244l.014-4.855 27.6-1.127c36.216-1.48 51.663-3.265 77.594-8.965l13.513-2.97 9.767 3.937c14.079 5.677 29.15 13.437 39.364 20.269 8.821 5.9 14.442 8.305 17.063 7.3 1.177-.452 1.36-38.03 1.32-271.51-.028-159.206-.404-271.561-.912-272.382-.628-1.013-3.075-1.455-8.891-1.604-14.386-.37-26.46-5.85-37.764-17.141-22.091-22.063-28.77-58.711-16.451-90.258l2.999-7.68.718 3.84c.396 2.112 1.413 7.94 2.26 12.952.849 5.012 2.23 9.872 3.07 10.8 1.173 1.295 3.046 1.688 8.054 1.688h6.527l2.078 4.56c1.143 2.508 2.626 8.105 3.294 12.437 2.386 15.459 9.997 26.451 22.302 32.209 6.162 2.884 6.808 2.982 19.872 3.013 21.216.052 26.285-.578 32.73-4.07 3.07-1.662 5.751-2.851 5.96-2.642.785.784-5.503 11.91-9.504 16.817-8.332 10.217-7.652 6.493-7.461 40.876.094 16.896.125 142.572.07 279.28-.073 180.323.191 248.912.961 249.84.603.727 2.982 1.283 5.505 1.286 13.418.02 71.704 6.078 88.442 9.193 8.875 1.652 19.93 4.894 21.84 6.406 9.258 7.328-34.49 14.818-118.8 20.34-33.302 2.182-89.528 4.842-117.6 5.565-90.57 2.332-215.67 3.769-217.605 2.5zm336.183-34.65c.01-.66 0-112.325-.018-248.144-.023-156.803-.375-247.837-.965-249.389l-.93-2.445-12.252.27-12.253.268-.48 247.36c-.264 136.048-.844 247.72-1.29 248.16-.445.44-2.194-.845-3.885-2.855-1.692-2.01-3.987-4.17-5.1-4.8s-6.04-3.885-10.95-7.233c-10.52-7.176-21.19-12.66-36.375-18.692l-11.04-4.386-9.12 2.22c-23.585 5.74-51.208 8.964-84.278 9.836-12.824.338-23.513.93-23.752 1.317s-.72 7.012-1.071 14.723l-.637 14.02 93.509.25c51.43.137 99.665.355 107.189.485 10.422.179 13.684-.051 13.698-.965m-356.892-13.68c-.13-7.392-.44-13.98-.69-14.64-.337-.887-4.28-1.203-15.126-1.21-31.25-.02-66.748-3.882-92.687-10.084l-9.857-2.357-9.593 3.822c-28.135 11.209-56.613 29.87-56.613 37.098 0 1.087 15.182 1.26 92.4 1.056l92.4-.245zM1224 1116.48c.596-1.114.912-6.05.754-11.76l-.274-9.84-12.671-.268c-15.398-.325-15.242-.457-14.41 12.209.812 12.362-.115 11.579 13.71 11.579 10.88 0 11.949-.16 12.89-1.92M879.84 1616c-33.551-.955-75.593-4.236-109.44-8.542-31.793-4.045-84.841-14.389-87.605-17.082-1.157-1.128-.614-18.725 4.05-131.176.275-6.6 2.428-60.384 4.787-119.52s4.532-111.84 4.83-117.12.961-23.424 1.473-40.32c1.159-38.268 8.358-225.388 9.123-237.12.31-4.752 2.264-50.76 4.342-102.24 6.615-163.874 6.686-165.271 8.504-168.225 2.692-4.374 18.196-17.761 28.896-24.95 13.699-9.205 36.428-20.456 37.93-18.775.605.676 4.03 9.438 7.61 19.47s9.367 25.368 12.857 34.08l6.346 15.84.541 39.84.541 39.84 2.945 7.713c3.38 8.85 6.527 14.203 12.517 21.283 8.39 9.918 25.565 20.92 41.588 26.643 3.958 1.413 7.956 3.258 8.886 4.099s6.295 9.128 11.923 18.416c57.872 95.496 123.002 167.92 196.127 218.092 7.07 4.852 7.483 5.523 11.455 18.634 10.023 33.093 34.212 61.423 59.494 69.68 3.498 1.143 6.665 2.351 7.038 2.685.742.664.601-1.433 16.682 248.634 9.297 144.581 10.922 173.36 9.847 174.388-2.901 2.771-84.672 14.587-135.687 19.606-54.063 5.32-122.705 7.687-177.6 6.126m101.28-2.254c36.757-1.726 84.364-5.366 100.32-7.67 3.696-.534 13.848-1.836 22.56-2.894 41.462-5.033 88.336-12.347 88.922-13.874.342-.89-10.913-179.247-24.14-382.564-1.656-25.454-2.773-37.272-3.593-38.016-.654-.594-3.948-2.083-7.32-3.31-8.809-3.204-19.473-10.51-29.235-20.025-13.98-13.629-23.225-29.382-30.489-51.953l-3.862-12-10.262-6.937c-39.99-27.034-86.114-70.647-123.668-116.937-23.055-28.42-50.23-67.448-70.29-100.953-9.622-16.072-10.001-16.551-14.373-18.152-16.271-5.96-26.583-11.453-36.85-19.63-8.232-6.553-14.526-14.312-19.043-23.471-7.027-14.249-7.192-15.588-6.887-55.924l.27-35.764-6.877-17.516c-3.783-9.634-9.807-25.724-13.387-35.756-4.05-11.35-7.04-18.349-7.916-18.528-.775-.159-7.4 2.746-14.724 6.454-13.815 6.994-30.291 18.495-41.156 28.729-9.828 9.257-8.861 5.275-10.546 43.45-2.646 59.943-9.916 238.007-14.4 352.695-5.453 139.449-12.842 325.86-17.403 439.068-2.712 67.302-3.235 86.908-2.336 87.464 1.698 1.05 39.906 9.294 53.325 11.507 36.56 6.03 80.372 10.59 119.52 12.44 23.818 1.126 100.4 1.167 123.84.067m106.08-587.207c-34.578-31.413-71.087-70.105-99.925-105.899-20.62-25.593-51.82-69.382-50.712-71.174.687-1.111 7.779-1.053 9.899.081.932.5 4.428 5.143 7.768 10.32 9.886 15.325 11.227 17.232 25.501 36.293 28.554 38.127 66.109 80.255 99.272 111.36 15.133 14.194 15.354 14.458 15.375 18.48.028 5.227-1.861 5.37-7.178.54m6.215-1.076c-.02-2.077-2.672-5.028-13.534-15.063-42.248-39.03-93.35-98.973-125.626-147.36-4.402-6.6-8.475-12.317-9.05-12.705-1.457-.984-6.103-.91-6.731.106-.49.792 13.53 21.687 25.2 37.559 24.435 33.232 52.774 66.575 82.726 97.334 18.455 18.952 45.131 43.892 46.224 43.217.449-.278.805-1.667.79-3.088m103.24-97.535c-.235-1.104-.118-141.328.26-311.608.683-308.84.69-309.6 2.605-309.36 1.056.132 4.585.59 7.843 1.02 3.257.428 8.35.511 11.316.185 3.67-.404 5.699-.227 6.348.556.629.758.862 106.71.683 311.024l-.27 309.874-14.18.159c-13.675.153-14.195.087-14.606-1.85m27.722-39.527c.864-2.251.678-18.924-.227-20.35-.584-.92-3.906-1.163-13.185-.96l-12.405.269-.276 10.015c-.151 5.508-.058 10.584.21 11.28.367.956 3.513 1.265 12.893 1.265 10.428 0 12.5-.242 12.99-1.519m.09-74.561c.305-1.716.433-115.872.284-253.68l-.272-250.56-9.6-.034c-5.28-.02-11.22-.391-13.2-.827l-3.6-.793v253.867c0 139.627.288 254.155.64 254.507s6.165.64 12.917.64h12.276zM912.283 532.645c-5.005-1.362-6.043-3.832-6.043-14.373 0-9.208.03-9.326 2.954-11.787 5.13-4.316 12.132-2.605 14.254 3.482 1.613 4.627 1.268 14.202-.65 17.985-2.05 4.047-6.156 5.879-10.515 4.693m8.055-2.892c2.016-1.894 2.222-2.922 2.222-11.084 0-8.272-.19-9.186-2.356-11.353-1.486-1.485-3.454-2.356-5.324-2.356s-3.838.871-5.324 2.356c-2.156 2.157-2.356 3.098-2.356 11.084s.2 8.927 2.356 11.084c3.014 3.013 7.735 3.13 10.782.269m45.034.655c-2.491-2.688-3.877-11.412-2.842-17.887 1.361-8.51 12.198-11.485 16.536-4.54 3.213 5.146 2.402 18.798-1.34 22.54-3.225 3.225-9.312 3.17-12.354-.113m11.606-.655c2.016-1.894 2.222-2.922 2.222-11.084 0-8.272-.19-9.186-2.356-11.353-1.486-1.485-3.454-2.356-5.324-2.356s-3.838.871-5.324 2.356c-2.149 2.15-2.356 3.109-2.356 10.91 0 7.201.315 8.955 1.99 11.085 2.576 3.275 7.907 3.486 11.148.442" style="fill:#a26650;stroke-width:.99999994" transform="translate(2.44 -9.173)"/><path d="m1104.091 1667.76-93.509-.25.637-14.02c.35-7.71.833-14.336 1.072-14.723.239-.386 10.927-.979 23.752-1.317 33.07-.871 60.692-4.095 84.277-9.836l9.12-2.22 11.04 4.364c14.739 5.826 29.446 13.525 39.182 20.513 4.39 3.151 8.35 5.729 8.8 5.729.449 0 2.185 1.728 3.858 3.84s3.412 3.84 3.865 3.84 1.001-1.62 1.216-3.6c.235-2.156.354-1.482.296 1.68l-.097 5.28 13.92.52 13.92.52-13.92-.034c-7.656-.02-56-.148-107.43-.286zm-420.571-1.531c0-7.228 28.478-25.89 56.613-37.098l9.593-3.822 9.857 2.357c25.939 6.202 61.438 10.064 92.687 10.085 10.846.01 14.789.322 15.126 1.209.25.66.56 7.248.69 14.64l.234 13.44-92.4.245c-77.218.204-92.4.03-92.4-1.056m541.715-3.989c.01-2.64.193-3.606.414-2.147s.215 3.62-.013 4.8c-.228 1.181-.408-.014-.401-2.653m-.762-249.12c0-133.32.11-187.86.247-121.2.136 66.66.136 175.74 0 242.4s-.247 12.12-.247-121.2M857.28 1613.679c-39.148-1.85-82.96-6.41-119.52-12.44-13.419-2.213-51.627-10.458-53.325-11.507-.9-.556-.376-20.162 2.336-87.464 4.561-113.208 11.95-299.619 17.402-439.068 4.485-114.688 11.755-292.752 14.4-352.695 1.686-38.175.72-34.193 10.547-43.45 10.865-10.234 27.34-21.735 41.156-28.73 7.324-3.707 13.95-6.612 14.724-6.453.876.18 3.866 7.177 7.916 18.528 3.58 10.032 9.604 26.122 13.387 35.756l6.877 17.516-.27 35.764c-.305 40.336-.14 41.675 6.887 55.924 9.438 19.139 26.596 32.37 55.893 43.1 4.372 1.602 4.751 2.081 14.373 18.153 20.06 33.505 47.235 72.533 70.29 100.953 37.554 46.29 83.677 89.903 123.668 116.937l10.262 6.937 3.862 12c7.265 22.571 16.51 38.324 30.49 51.953 9.76 9.516 20.425 16.82 29.234 20.025 3.372 1.227 6.661 2.711 7.31 3.299 1.144 1.037 5.215 53.805 4.931 63.923-.066 2.376-.906-7.344-1.866-21.6s-2.02-29.463-2.357-33.793l-.611-7.872-3.518-1.125c-10.028-3.207-23.535-11.75-33.016-20.883-2.496-2.404-4.711-4.181-4.924-3.95-.212.233.599 15.327 1.802 33.543s1.824 33.505 1.38 33.976c-1.021 1.082-7.61-3.122-22.992-14.672-33.945-25.488-72.786-63.3-106.047-103.233-43.71-52.483-87.14-116.706-127.933-189.191-19.02-33.796-45.71-86.119-61.212-120-7.464-16.312-10.096-21.38-10.096-19.442 0 1.344 5.356 17.495 12.018 36.242 41.53 116.867 92.54 213.2 156.263 295.11 35.462 45.582 77.108 87.166 118.291 118.114 11.315 8.503 30.956 21.72 38.859 26.15 2.654 1.489 5.066 3.461 5.361 4.384 1.116 3.493 5.95 83.781 5.099 84.683-2.649 2.807-51.238-26.738-76.834-46.719-66.888-52.215-124.075-121.192-173.137-208.833-3.618-6.463-6.762-11.567-6.987-11.342-1.625 1.625 25.75 57.545 40.54 82.81 33.387 57.037 65.627 99.046 110.408 143.86 32.642 32.667 59.332 54.635 94.245 77.572l15.485 10.174.606 6.978c.333 3.839 2.35 34.195 4.482 67.459 8 124.82 9.285 143.584 9.871 144.17.331.331 9.228-.821 19.77-2.56l19.17-3.162.368-4.67.369-4.669-.083 5.045-.083 5.046-17.76 2.956c-9.768 1.626-21.648 3.446-26.4 4.044s-16.417 2.168-25.922 3.49c-49.131 6.828-90.09 10.587-142.078 13.037-23.014 1.085-99.712 1.03-123.36-.088zm188.056-160.959c-20.352-20.656-32.344-34.032-48.412-53.997-64.75-80.455-128.893-192.036-183.903-319.909-14.426-33.532-14.92-33.324-3.16 1.326 58.863 173.437 135.071 302.661 217.339 368.537 11.02 8.823 33.105 22.957 35.929 22.992.489.01-7.518-8.521-17.793-18.949m145.56 112.545c-.386-7.711-.492-14.229-.237-14.484.256-.256.78 5.844 1.165 13.555.386 7.71.492 14.228.237 14.483-.256.256-.78-5.844-1.166-13.555m-4.222-65.787c-1.766-27.743-3.046-51.287-2.845-52.32s1.81 20.821 3.577 48.564c1.766 27.744 3.046 51.288 2.845 52.32s-1.81-20.821-3.577-48.564m-7.68-119.504c-2.297-35.919-4.013-66.159-3.812-67.2.202-1.042 2.246 27.494 4.544 63.412s4.013 66.159 3.811 67.2c-.2 1.042-2.245-27.494-4.543-63.412m-6.732-105.356c-1.264-19.944-2.02-36.54-1.68-36.88s.618 1.004.618 2.987c0 1.982.885 17.036 1.968 33.453s1.838 31.392 1.68 33.276-1.322-12.892-2.586-32.836m25.98-105.338c.381-1.156 2.81-1.493 12.318-1.71 6.513-.15 12.182.066 12.597.48.415.412-4.442.616-10.794.452-8.472-.218-11.953.037-13.071.96-1.28 1.057-1.448 1.027-1.05-.182m.541-52.08c-.359-.932 2.41-1.135 12.402-.908 16.296.37 16.215 2.108-.1 2.108-8.585 0-11.967-.33-12.302-1.2m25.418-11.572-.201-10.372-12.87.292c-7.08.16-12.67-.032-12.424-.428s6.051-.72 12.9-.72c9.436 0 12.572.307 12.941 1.268.268.698.345 5.558.17 10.8l-.315 9.532Zm-26.758-1.628c0-3.96.17-5.58.376-3.6.207 1.98.207 5.22 0 7.2s-.376.36-.376-3.6m-120.899-89.165c-40.227-37.475-80.161-82.35-112.87-126.835-11.67-15.872-25.69-36.767-25.2-37.56.628-1.016 5.274-1.089 6.731-.105.575.388 4.648 6.105 9.05 12.705 32.276 48.387 83.378 108.33 125.626 147.36 10.862 10.035 13.513 12.986 13.534 15.063.013 1.421-.342 2.81-.79 3.088-.45.277-7.685-5.895-16.08-13.716M1198.705 889.2c-.246-.396 3.508-.605 8.344-.464 15.879.462 17.639.835 4.768 1.011-6.965.095-12.865-.151-13.112-.547m.218-21.63c.414-.412 6.334-.627 13.155-.476l12.402.274-13.155.476c-7.236.262-12.817.139-12.402-.274m-.218-51.33c-.246-.396 3.508-.605 8.344-.464 15.879.462 17.639.835 4.768 1.011-6.965.095-12.865-.151-13.112-.547m25.768-254.16c0-138.864.111-195.815.247-126.557s.136 182.873 0 252.48c-.136 69.606-.247 12.941-.247-125.923" style="fill:#8e3030;stroke-width:.99999994" transform="translate(2.44 -9.173)"/><path d="M1198.075 1666.8c0-.396-.001-112.135.01-248.308.01-180.894.3-247.936 1.082-248.88 1.477-1.779 23.728-1.863 24.38-.092.242.66.553 112.98.69 249.6l.247 248.4h-13.2c-7.26 0-13.202-.324-13.205-.72zm-45.514-75.36c-.284-2.244-1.613-21.576-2.953-42.96s-4.372-68.688-6.74-105.12c-2.367-36.432-4.305-66.322-4.306-66.423 0-.101-7.022-4.796-15.602-10.433-35.034-23.017-61.68-44.944-94.359-77.647-44.78-44.814-77.021-86.823-110.408-143.86-14.79-25.265-42.165-81.185-40.54-82.81.225-.225 3.369 4.88 6.987 11.342 49.062 87.641 106.249 156.618 173.137 208.833 25.596 19.981 74.185 49.526 76.833 46.72.852-.903-3.982-81.19-5.098-84.684-.295-.923-2.708-2.895-5.362-4.383-7.902-4.43-27.543-17.648-38.858-26.151-97.255-73.084-181.69-189.292-244.789-336.904-14.044-32.854-31.028-77.82-39.27-103.97-4.547-14.422-2.908-12.077 7.583 10.85 25.864 56.528 61.516 123.087 94.358 176.16 64.917 104.908 133.77 185.908 200.834 236.264 15.382 11.55 21.97 15.754 22.992 14.672.444-.47-.177-15.76-1.38-33.976s-2.014-33.31-1.802-33.542c.213-.232 2.428 1.545 4.924 3.949 9.51 9.161 22.985 17.673 33.098 20.91 1.98.634 3.602 1.442 3.604 1.798 0 .355.86 13.605 1.907 29.445 3.223 48.8 24.969 387.282 24.969 388.65 0 .93-5.169 2.142-18.48 4.338-10.164 1.677-18.993 3.04-19.621 3.03s-1.374-1.854-1.658-4.098m-96.453-123.195c-32.643-18.169-69.98-53.913-104.342-99.892-53.167-71.14-101.657-169.624-141.905-288.213-11.76-34.65-11.266-34.858 3.16-1.326 26.642 61.931 57.463 124.065 87.733 176.866 37.093 64.703 77.34 122.534 116.25 167.04 5.308 6.072 18.058 19.572 28.332 30s18.282 18.955 17.793 18.95c-.49-.01-3.648-1.548-7.021-3.425m142.384-353.037c-.269-.7-.363-5.344-.21-10.32l.278-9.048 12.72-.268 12.72-.268v21.176h-12.51c-9.5 0-12.628-.306-12.998-1.272m0-227.52c-.269-.7-.363-5.344-.21-10.32l.278-9.048 12.601-.267c14.627-.31 13.763-.998 13.786 10.988.02 10.467.77 9.919-13.56 9.919-9.415 0-12.525-.307-12.895-1.272m.033-72.888c-.251-.66-.346-114.816-.21-253.68l.246-252.48 3.36.48c1.848.264 7.572.48 12.72.48h9.36V816h-12.51c-9.126 0-12.634-.325-12.966-1.2M909.556 529.484c-2.13-2.131-2.356-3.135-2.356-10.482 0-9.651.355-10.8 3.909-12.638 3.881-2.007 6.399-1.743 9.095.952 2.166 2.167 2.356 3.081 2.356 11.353 0 8.162-.206 9.19-2.222 11.084-3.046 2.862-7.768 2.744-10.782-.27m56.64 0c-2.156-2.157-2.356-3.098-2.356-11.084s.2-8.927 2.356-11.084c1.486-1.485 3.454-2.356 5.324-2.356s3.838.871 5.324 2.356c2.156 2.157 2.356 3.098 2.356 11.084s-.2 8.927-2.356 11.084c-1.486 1.485-3.454 2.356-5.324 2.356s-3.838-.871-5.324-2.356" style="fill:#6d2e20;stroke-width:.99999994" transform="translate(2.44 -9.173)"/><path d="M934.37 838.697c-.344-.557.382-1.206 1.613-1.443s-.345-.49-3.503-.565c-3.94-.092-5.532.206-5.073.949.42.678-.021.934-1.177.683-1.016-.22-1.736-.93-1.6-1.578.149-.708-.958-1.177-2.776-1.177-2.057 0-2.796.37-2.31 1.156.488.789.166.946-1.01.495-.95-.364-2.246-.694-2.88-.732-.636-.038-.266-.452.821-.919 1.705-.733 1.57-.862-.988-.94-1.631-.05-6.95-.972-11.82-2.048-4.869-1.077-9.762-1.68-10.873-1.339s-1.68.26-1.264-.177-3.657-2.24-9.05-4.004c-29.314-9.59-47.845-23.799-58.175-44.605l-4.7-9.467-.384-69.287c-.21-38.108-.714-67.953-1.118-66.322-.491 1.98-.774-.207-.852-6.59-.065-5.311.303-9.702.829-9.885.533-.185 1.19-8.75 1.503-19.604 2.36-81.77 3.068-101.73 3.629-102.29.353-.353.93 4.169 1.282 10.05 3.536 59.064 8.61 99.879 14.886 119.747 3.122 9.882 7.921 17.355 11.408 17.762 2.21.257 2.792-.37 4.769-5.14 6.805-16.418 21.315-29.832 41.244-38.129l7.277-3.029 5.21 2.878c6.794 3.753 10.98 4.396 17.537 2.695 4.616-1.197 6.299-1.196 12.083.01 6.567 1.37 12.01 1.155 18.19-.716 2.166-.655 4.717-.495 8.713.546 6.697 1.744 14.447.719 18.375-2.43 5.356-4.295 6.487-4.457 14.132-2.024 12.522 3.985 21.924 9.559 31.505 18.676 7.522 7.159 9.434 9.677 13.372 17.608 4.903 9.878 6.462 11 10.15 7.312 9.626-9.625 15.84-47.73 18.861-115.67.592-13.31 1.24-24.365 1.44-24.565.8-.8 1.47 7.355 2.461 29.987.572 13.048 1.476 29.283 2.01 36.08.532 6.795.917 13.245.855 14.332-.15 2.644.918 46.8 2.093 86.491.523 17.67.957 47.128.965 65.464.015 33.327.014 33.341-2.501 40.023-8.736 23.209-28.11 39.37-59.526 49.656-18.686 6.119-37.79 9.414-63.49 10.95-7.885.473-15.953 1.146-17.927 1.498-2.096.373-3.85.218-4.216-.373zm50.915-148.493c20.517-10.357 29.081-33.002 19.9-52.62-4.236-9.053-9.875-14.808-18.864-19.25l-7.47-3.692h-63.467l-7.532 3.722c-8.707 4.304-14.999 10.622-19.234 19.317-2.482 5.096-2.743 6.653-2.763 16.5-.02 10.052.19 11.275 2.779 16.194 5.46 10.369 15.424 18.836 25.3 21.5 3.09.832 14.135 1.238 34.942 1.284l30.424.067zm106.585-206.113c-1.787-2.152-8.456-5.453-13.78-6.82l-4.447-1.14-.321-10.811c-.57-19.221.862-50.844 2.304-50.844 3.163 0 9.902 10.276 13.392 20.42 3.155 9.17 7.089 38.192 6.197 45.721-.63 5.328-1.262 5.984-3.345 3.474z" style="fill:#f9f9f9;fill-opacity:1;stroke:#100;stroke-width:0;stroke-linecap:round;stroke-linejoin:miter;stroke-miterlimit:4;stroke-dasharray:none;stroke-dashoffset:0;stroke-opacity:1"/><path d="M1024.219 502.35c-6.903-5.742-15.477-10.068-23.385-11.8-7.393-1.618-27.737-.732-37.22 1.622-6.287 1.56-7.353 1.606-8.185.352-1.236-1.863-.716-24.265.594-25.572.549-.547 3.885-1.78 7.414-2.742 4.902-1.335 10.265-1.753 22.726-1.77 14.463-.02 17.093.237 23.229 2.275 3.805 1.264 8.92 3.45 11.367 4.857 11.817 6.798 25.389 19.883 23.766 22.914-1.179 2.2-12.93 14.918-13.721 14.851-.36-.03-3.323-2.275-6.585-4.988zm-168.392-2.403-7.095-8.514 1.969-2.764c3.324-4.669 13.597-13.636 19.758-17.247 3.218-1.886 9.105-4.673 13.083-6.195 6.892-2.636 8.025-2.766 24.037-2.773 13.284-.006 18.15.371 23.227 1.798 3.532.993 6.75 2.32 7.151 2.95s.736 6.868.744 13.861l.015 12.715-2.718-.48a4083 4083 0 0 1-12.11-2.194c-12.685-2.313-29.788-1.706-37.674 1.338-5.88 2.27-15.162 8.284-20.239 13.113l-3.053 2.905z" style="fill:#f9f9f9;fill-opacity:1;stroke:#100;stroke-width:0;stroke-linecap:round;stroke-linejoin:miter;stroke-miterlimit:4;stroke-dasharray:none;stroke-dashoffset:0;stroke-opacity:1"/><path d="M799.771 482.192c-1.522-8.113 2.728-37.15 7.368-50.345 2.969-8.443 10.777-18.895 12.688-16.985 1.309 1.31 2.107 15.562 2.179 38.906l.07 22.982-3.213.021c-3.784.026-10.258 2.797-15.022 6.431l-3.395 2.59zm224.942 22.133c-6.44-5.862-16.546-11.156-24.418-12.79-8.205-1.703-26.608-.736-36.772 1.934-6.733 1.768-8.477 1.936-9.206.886-.495-.712-.65-5.924-.343-11.581s.558-11.725.558-13.484c0-2.774.492-3.395 3.706-4.68 10.407-4.156 40.036-4.908 50.165-1.272 12.411 4.455 19.558 8.877 28.86 17.86 5.066 4.893 9.208 9.356 9.204 9.917-.01 1.246-13.944 17.506-15.329 17.887-.543.15-3.435-1.955-6.425-4.677zm-165.19 1.338c-1.915-2.04-5.367-6.024-7.671-8.855-5.095-6.26-5.166-6.066 6.167-16.794 8.967-8.488 20.002-14.749 31.083-17.635 11.076-2.885 38.08-1.407 47.884 2.62l2.718 1.117v14.708c0 9.268-.37 14.707-1 14.707-.551 0-4.22-.929-8.155-2.063-8.903-2.568-28.44-3.632-36.379-1.982-8.066 1.677-16.573 6.053-23.981 12.338-3.596 3.05-6.683 5.545-6.861 5.545s-1.89-1.668-3.805-3.706z" style="fill:#fff;fill-opacity:1;stroke:#100;stroke-width:0;stroke-linecap:round;stroke-linejoin:miter;stroke-miterlimit:4;stroke-dasharray:none;stroke-dashoffset:0;stroke-opacity:1"/><path d="M799.702 484.173c-.93-2.423.327-21.255 2.071-31.04 2.122-11.905 5.214-22.586 8.04-27.778 2.993-5.501 8.096-11.113 9.642-10.604 1.762.58 2.397 9.91 2.514 36.913l.107 24.833-4.036.645c-3.91.626-10.941 3.868-15.474 7.135-2.047 1.475-2.26 1.468-2.864-.104z" style="fill:#fff;fill-opacity:1;stroke:#100;stroke-width:0;stroke-linecap:round;stroke-linejoin:miter;stroke-miterlimit:4;stroke-dasharray:none;stroke-dashoffset:0;stroke-opacity:1"/></svg>