<?xml version="1.0" encoding="UTF-8" standalone="no"?>
<!-- Generator: Adobe Illustrator 25.0.0, SVG Export Plug-In . SVG Version: 6.00 Build 0)  -->

<svg
   version="1.1"
   id="Layer_1"
   x="0px"
   y="0px"
   viewBox="0 0 1749.052 436.25"
   xml:space="preserve"
   width="1749.052"
   height="436.25"
   xmlns="http://www.w3.org/2000/svg"
   xmlns:svg="http://www.w3.org/2000/svg"><defs
   id="defs7" />
<style
   type="text/css"
   id="style1">
	.st0{fill:#73A952;}
	.st1{fill:#303030;}
</style>
<g
   id="Layer_2_1_"
   transform="translate(-128.54803,-142.05)">
	<path
   class="st0"
   d="m 567.3,154.6 v 132.1 c -6.4,-2.9 -12.4,-6 -18.7,-8.9 V 154.9 Z m 33.9,345.7 c 0,0 -7,16.2 -22.2,17.5 -6.7,0.3 -11.7,-1.3 -11.7,-1.3 0,0 -0.3,0 -6,-2.2 l -127,-61.9 c 0,0 -12.4,-6.4 -14.3,-17.5 -2.5,-9.2 3.2,-20.3 3.2,-20.3 l 61.3,-126.1 c 0,0 5.4,-10.8 13.7,-14.6 0.6,-0.3 2.5,-1.3 5.1,-1.6 9.2,-2.2 20.3,3.2 20.3,3.2 l 124.8,60.3 c 0,0 14.3,6.4 17.1,18.1 2.2,8.3 -0.6,15.9 -1.9,19.4 -7.4,17.1 -62.4,127 -62.4,127 z"
   id="path1-8"
   style="fill:#ffffff;fill-opacity:1" /><g
   id="g2"
   style="display:inline">
		<path
   class="st0"
   d="m 822.9,149.5 c -4.8,-4.8 -10.8,-4.4 -10.8,-4.4 0,0 -132.1,7.3 -200.3,8.9 -14.9,0.3 -29.8,0.6 -44.5,0.6 v 132.1 c -6.4,-2.9 -12.4,-6 -18.7,-8.9 0,-41 0,-122.9 0,-122.9 -32.7,0.3 -100.3,-2.5 -100.3,-2.5 0,0 -159.4,-7.9 -176.5,-9.5 -11.1,-0.6 -25.4,-2.2 -43.8,1.6 -9.8,1.9 -37.8,8.3 -60.6,30.2 -50.8,45.1 -37.8,117.2 -36.2,128 1.9,13 7.6,49.8 35.6,81.6 51.4,63.2 162.6,61.6 162.6,61.6 0,0 13.7,32.7 34.6,62.5 28.3,37.1 57.2,66.4 85.1,69.9 70.8,0 212.7,0 212.7,0 0,0 13.7,0 31.8,-11.7 15.9,-9.5 29.8,-26.4 29.8,-26.4 0,0 14.6,-15.6 34.9,-51.1 6.4,-10.8 11.4,-21.6 15.9,-31.4 0,0 62.2,-131.8 62.2,-260.4 -1.8,-38.6 -11.3,-45.6 -13.5,-47.8 z M 263.1,379.3 c -29.2,-9.5 -41.6,-21 -41.6,-21 0,0 -21.6,-15.2 -32.4,-44.8 -18.4,-50.2 -1.6,-80.3 -1.6,-80.3 0,0 9.5,-25.4 43.5,-33.7 15.6,-4.1 34.9,-3.5 34.9,-3.5 0,0 7.9,67 17.8,106 8.3,33 27.9,87.6 27.9,87.6 0,0 -29.5,-3.6 -48.5,-10.3 z m 338.1,121 c 0,0 -7,16.2 -22.2,17.5 -6.7,0.3 -11.7,-1.3 -11.7,-1.3 0,0 -0.3,0 -6,-2.2 l -127,-61.9 c 0,0 -12.4,-6.4 -14.3,-17.5 -2.5,-9.2 3.2,-20.3 3.2,-20.3 l 61.3,-126.1 c 0,0 5.4,-10.8 13.7,-14.6 0.6,-0.3 2.5,-1.3 5.1,-1.6 9.2,-2.2 20.3,3.2 20.3,3.2 l 124.8,60.3 c 0,0 14.3,6.4 17.1,18.1 2.2,8.3 -0.6,15.9 -1.9,19.4 -7.4,17.1 -62.4,127 -62.4,127 z"
   id="path1" />
		<path
   class="st0"
   d="m 489.8,408.9 c -9.2,0 -17.5,6.7 -19.4,15.6 -2.2,8.9 2.2,18.4 10.2,22.5 8.6,4.4 19.7,1.9 25.7,-6 5.7,-7.9 4.8,-19.1 -1.9,-26 l 27,-55.2 c 1.6,0 4.1,0.3 7,-0.6 4.8,-1 7.9,-4.1 7.9,-4.1 4.8,1.9 9.8,4.1 14.9,7 5.4,2.9 10.5,5.4 15.2,8.3 1,0.6 1.9,1.3 3.2,2.2 1.9,1.6 3.8,3.5 5.4,6.4 2.2,6.4 -2.2,16.8 -2.2,16.8 -2.5,8.6 -20.6,45.7 -20.6,45.7 -9.2,-0.3 -17.1,5.7 -20,14 -2.9,9.2 1.3,19.4 10.2,24.1 8.9,4.7 19.7,1.9 25.4,-6 5.7,-7.6 5.1,-18.4 -1.3,-25.4 2.2,-4.1 4.1,-8.3 6.4,-12.7 5.7,-11.7 15.2,-34.3 15.2,-34.3 1,-1.9 6.4,-11.7 3.2,-24.1 -2.9,-12.7 -14.3,-18.7 -14.3,-18.7 -13.7,-8.9 -33,-17.1 -33,-17.1 0,0 0,-4.8 -1.3,-7.9 -1.3,-3.5 -3.2,-5.7 -4.4,-7 5.4,-10.8 10.5,-21.6 15.9,-32.7 -4.8,-2.2 -9.2,-4.4 -13.7,-7 -5.4,11.1 -10.8,22.2 -16.2,33.3 -7.6,0 -14.6,3.8 -18.1,10.5 -3.8,7 -3.2,15.9 2.2,22.2 z"
   id="path2" />
	</g>
	<g
   id="g7"
   style="display:inline">
		<path
   class="st1"
   d="m 1046.4,360.6 h 111.1 v 145.1 c -18.1,5.7 -34.9,9.8 -50.8,12.4 -15.9,2.2 -32.1,3.5 -48.6,3.5 -42.2,0 -74.6,-12.4 -96.8,-37.1 -22.2,-24.8 -33.3,-60.3 -33.3,-107 0,-45.1 13,-80.3 38.7,-105.7 25.7,-25.4 61.6,-37.8 107.3,-37.8 28.6,0 56.5,5.7 83.2,17.1 l -19.7,47.3 c -20.3,-10.2 -41.6,-15.2 -63.8,-15.2 -25.7,0 -46,8.6 -61.6,25.7 -15.6,17.1 -23.2,40.3 -23.2,69.5 0,30.5 6.4,53.7 18.7,69.5 12.4,15.9 30.5,24.1 54.3,24.1 12.4,0 25.1,-1.3 37.8,-3.8 v -58.4 h -53 v -49.2 z"
   id="path3" />
		<path
   class="st1"
   d="m 1207.1,248.5 c 0,-19.1 10.5,-28.6 31.8,-28.6 21.3,0 31.8,9.5 31.8,28.6 0,9.2 -2.5,16.2 -7.9,21.3 -5.4,5.1 -13.3,7.6 -23.8,7.6 -21.2,-0.3 -31.9,-9.8 -31.9,-28.9 z m 60.9,269.3 h -58.4 v -214 h 58.4 z"
   id="path4" />
		<path
   class="st1"
   d="m 1409.6,475.2 c 10.2,0 22.5,-2.2 36.8,-6.7 V 512 c -14.6,6.4 -32.4,9.8 -53.7,9.8 -23.5,0 -40.3,-6 -51.1,-17.8 -10.8,-11.7 -15.9,-29.5 -15.9,-53 V 347.9 h -27.9 v -24.8 l 32.1,-19.4 16.8,-45.1 h 37.5 V 304 h 60 v 43.8 h -60 v 102.9 c 0,8.3 2.2,14.3 7,18.4 4.5,4.2 10.8,6.1 18.4,6.1 z"
   id="path5" />
		<path
   class="st1"
   d="m 1576.6,521.6 c -34.6,0 -61.3,-9.5 -80.6,-28.6 -19.4,-19.1 -29.2,-46 -29.2,-80.6 0,-35.9 8.9,-63.5 27,-83.2 17.8,-19.7 42.9,-29.5 74.3,-29.5 30.2,0 53.7,8.6 70.5,25.7 16.8,17.1 25.4,41 25.4,71.4 V 425 h -138.1 c 0.6,16.5 5.4,29.5 14.6,38.7 9.2,9.2 22.2,14 38.7,14 13,0 25.1,-1.3 36.5,-4.1 11.4,-2.5 23.5,-7 35.9,-12.7 V 506 c -10.2,5.1 -21.3,8.9 -32.7,11.4 -11.5,2.9 -25.4,4.2 -42.3,4.2 z m -8.2,-180.4 c -12.4,0 -22.2,3.8 -29.2,11.7 -7,7.9 -11.1,19.1 -12.1,33.3 h 81.9 c -0.3,-14.3 -4.1,-25.4 -11.4,-33.3 -7,-7.5 -16.8,-11.7 -29.2,-11.7 z"
   id="path6" />
		<path
   class="st1"
   d="m 1837.6,517.8 -11.4,-29.2 h -1.6 c -9.8,12.4 -20,21 -30.5,25.7 -10.5,4.8 -23.8,7.3 -40.6,7.3 -20.6,0 -36.8,-5.7 -48.6,-17.5 -11.8,-11.8 -17.8,-28.6 -17.8,-50.2 0,-22.9 7.9,-39.4 23.8,-50.2 15.9,-10.8 39.7,-16.8 71.8,-17.8 l 37.1,-1.3 v -9.5 c 0,-21.6 -11.1,-32.4 -33.3,-32.4 -17.1,0 -37.1,5.1 -60.3,15.6 l -19.4,-39.4 c 24.8,-13 52.1,-19.4 81.9,-19.4 28.6,0 50.8,6.4 66,18.7 15.2,12.4 22.9,31.4 22.9,57.2 V 518 h -40 z m -17.4,-99.1 -22.5,0.6 c -16.8,0.6 -29.5,3.5 -37.8,9.2 -8.3,5.7 -12.4,14.3 -12.4,25.7 0,16.5 9.5,24.8 28.3,24.8 13.7,0 24.4,-3.8 32.4,-11.7 8.3,-7.9 12.1,-18.1 12.1,-31.1 v -17.5 z"
   id="path7" />
	</g>
</g>
</svg>
