<svg xmlns="http://www.w3.org/2000/svg" xml:space="preserve" id="svg50" width="1017.49" height="310.967" x="0" y="0" version="1.1"><style id="style2" type="text/css">.st3{fill:#e24329}.st4{fill:#fca326}.st5{fill:#fc6d26}.st6{fill:#8c929d}.st15{opacity:.1;fill:#e828e3}.st15,.st16{display:inline}.st18{font-family:&quot;SourceSansPro-Semibold&quot;}.st19{font-size:24px}</style><g id="logo_art" transform="translate(-123.977 -123.925)"><g id="g28"><g id="g15"><path id="path14_3_" d="M839.7 198.192h-21.8l.1 162.5h88.3v-20.1h-66.5z" class="st6"/><g id="g24_3_" transform="translate(977.327 143.284)"><path id="path26_3_" d="M13 188.892c-5.5 5.7-14.6 11.4-27 11.4-16.6 0-23.3-8.2-23.3-18.9 0-16.1 11.2-23.8 35-23.8 4.5 0 11.7.5 15.4 1.2v30.1zm-22.6-98.5c-17.6 0-33.8 6.2-46.4 16.7l7.7 13.4c8.9-5.2 19.8-10.4 35.5-10.4 17.9 0 25.8 9.2 25.8 24.6v7.9c-3.5-.7-10.7-1.2-15.1-1.2-38.2 0-57.6 13.4-57.6 41.4 0 25.1 15.4 37.7 38.7 37.7 15.7 0 30.8-7.2 36-18.9l4 15.9h15.4v-83.2c-.1-26.3-11.5-43.9-44-43.9" class="st6"/></g><g id="g28_3_" transform="translate(1099.767 143.129)"><path id="path30_3_" d="M-17.7 201.192c-8.2 0-15.4-1-20.8-3.5v-75.1c7.4-6.2 16.6-10.7 28.3-10.7 21.1 0 29.2 14.9 29.2 39 0 34.2-13.1 50.3-36.7 50.3m9.2-110.6c-19.5 0-30 13.3-30 13.3v-21l-.1-27.8h-21.3l.1 158.5c10.7 4.5 25.3 6.9 41.2 6.9 40.7 0 60.3-26 60.3-70.9-.1-35.5-18.2-59-50.2-59" class="st6"/></g><g id="g32_5_" transform="translate(584.042 143.63)"><path id="path34_5_" d="M18.3 72.192c19.3 0 31.8 6.4 39.9 12.9l9.4-16.3c-12.7-11.2-29.9-17.2-48.3-17.2-46.4 0-78.9 28.3-78.9 85.4 0 59.8 35.1 83.1 75.2 83.1 20.1 0 37.2-4.7 48.4-9.4l-.5-63.9v-20.1H4v20.1h38l.5 48.5c-5 2.5-13.6 4.5-25.3 4.5-32.2 0-53.8-20.3-53.8-63-.1-43.5 22.2-64.6 54.9-64.6" class="st6"/></g><g id="g36_4_" transform="translate(793.569 142.577)"><path id="path38_4_" d="M-37.7 55.592H-59l.1 27.3v94.3c0 26.3 11.4 43.9 43.9 43.9 4.5 0 8.9-.4 13.1-1.2v-19.1c-3.1.5-6.4.7-9.9.7-17.9 0-25.8-9.2-25.8-24.6v-65h35.7v-17.8h-35.7z" class="st6"/></g><path id="path40_33_" d="M680.4 360.692h21.3v-124h-21.3z" class="st6"/><path id="path42_3_" d="M680.4 219.592h21.3v-21.3h-21.3z" class="st6"/></g><g id="g26"><path id="path50_5_" d="m292.778 434.892 62.199-191.322H230.669Z" class="st3"/><path id="path66_12_" d="m143.549 243.57-18.941 58.126c-1.714 5.278.137 11.104 4.661 14.394l163.509 118.801z" class="st4"/><path id="path74_5_" d="M143.549 243.57h87.12l-37.494-115.224c-1.919-5.895-10.282-5.895-12.27 0z" class="st3"/><path id="path82_12_" d="m442.097 243.57 18.873 58.126c1.714 5.278-.137 11.104-4.661 14.394L292.778 434.892Z" class="st4"/><path id="path86_5_" d="M442.097 243.57h-87.12l37.425-115.224c1.919-5.895 10.282-5.895 12.27 0z" class="st3"/><path id="polygon22" d="M442.097 243.57 292.778 434.892l62.199-191.322z" class="st5"/><path id="polygon24" d="m230.669 243.57 62.109 191.322L143.549 243.57z" class="st5"/></g></g></g></svg>