<?xml version="1.0" encoding="UTF-8" standalone="no"?>
<svg
   xmlns:sketch="http://www.bohemiancoding.com/sketch/ns"
   xmlns:dc="http://purl.org/dc/elements/1.1/"
   xmlns:cc="http://creativecommons.org/ns#"
   xmlns:rdf="http://www.w3.org/1999/02/22-rdf-syntax-ns#"
   xmlns:svg="http://www.w3.org/2000/svg"
   xmlns="http://www.w3.org/2000/svg"
   xmlns:sodipodi="http://sodipodi.sourceforge.net/DTD/sodipodi-0.dtd"
   xmlns:inkscape="http://www.inkscape.org/namespaces/inkscape"
   version="1.1"
   x="0px"
   y="0px"
   viewBox="0 0 1017.4899 310.96725"
   xml:space="preserve"
   id="svg50"
   sodipodi:docname="gitlab.svg"
   width="1017.4899"
   height="310.96725"
   inkscape:version="1.0.2 (e86c870879, 2021-01-15)"><metadata
   id="metadata56"><rdf:RDF><cc:Work
       rdf:about=""><dc:format>image/svg+xml</dc:format><dc:type
         rdf:resource="http://purl.org/dc/dcmitype/StillImage" /><dc:title></dc:title></cc:Work></rdf:RDF></metadata><defs
   id="defs54" /><sodipodi:namedview
   pagecolor="#ffffff"
   bordercolor="#666666"
   borderopacity="1"
   objecttolerance="10"
   gridtolerance="10"
   guidetolerance="10"
   inkscape:pageopacity="0"
   inkscape:pageshadow="2"
   inkscape:window-width="957"
   inkscape:window-height="1036"
   id="namedview52"
   showgrid="false"
   fit-margin-top="0"
   fit-margin-left="0"
   fit-margin-right="0"
   fit-margin-bottom="0"
   inkscape:zoom="1.3148479"
   inkscape:cx="310.90127"
   inkscape:cy="155.57525"
   inkscape:window-x="0"
   inkscape:window-y="21"
   inkscape:window-maximized="0"
   inkscape:current-layer="svg50" />
<style
   type="text/css"
   id="style2">
	.st0{fill:#FAFAFA;}
	.st1{fill:#F0F0F0;}
	.st2{fill:#FFFFFF;}
	.st3{fill:#E24329;}
	.st4{fill:#FCA326;}
	.st5{fill:#FC6D26;}
	.st6{fill:#8C929D;}
	.st7{fill:#2E2E2E;}
	.st8{fill:none;stroke:#FCA326;stroke-width:16;stroke-linecap:round;stroke-linejoin:round;stroke-miterlimit:10;}
	.st9{fill:none;stroke:#FC6D26;stroke-width:16;stroke-linecap:round;stroke-linejoin:round;stroke-miterlimit:10;}
	.st10{fill:none;stroke:#E24329;stroke-width:16;stroke-linecap:round;stroke-linejoin:round;stroke-miterlimit:10;}
	.st11{fill:none;stroke:#F0F0F0;stroke-miterlimit:10;}
	.st12{fill:#231F20;}
	.st13{fill:none;stroke:#231F20;stroke-width:16;stroke-linecap:round;stroke-linejoin:round;stroke-miterlimit:10;}
	.st14{display:none;}
	.st15{display:inline;opacity:0.1;fill:#E828E3;}
	.st16{display:inline;}
	.st17{opacity:0.1;fill:#E828E3;}
	.st18{font-family:'SourceSansPro-Semibold';}
	.st19{font-size:24px;}
	.st20{display:inline;fill:#DB3B21;}
	.st21{display:inline;fill:#FC6D26;}
	.st22{display:inline;fill:#2E2E2E;}
	.st23{display:inline;fill:#6E49CB;}
	.st24{display:inline;fill:#380D75;}
	.st25{display:inline;fill:#FCA121;}
	.st26{opacity:0.6;fill:none;stroke:#231F20;stroke-width:2;stroke-miterlimit:10;stroke-dasharray:12,6;}
	.st27{fill:none;stroke:#444444;stroke-width:1.5339;stroke-miterlimit:10;}
</style>
<g
   id="logo_art"
   transform="translate(-123.97696,-123.92475)">
	<g
   id="g28">
		<g
   id="g15">
			<path
   id="path14_3_"
   class="st6"
   d="m 839.7,198.192 h -21.8 l 0.1,162.5 h 88.3 v -20.1 h -66.5 z" />
			<g
   id="g24_3_"
   transform="translate(977.32744,143.2844)">
				<path
   id="path26_3_"
   class="st6"
   d="m 13,188.892 c -5.5,5.7 -14.6,11.4 -27,11.4 -16.6,0 -23.3,-8.2 -23.3,-18.9 0,-16.1 11.2,-23.8 35,-23.8 4.5,0 11.7,0.5 15.4,1.2 v 30.1 z m -22.6,-98.5 c -17.6,0 -33.8,6.2 -46.4,16.7 l 7.7,13.4 c 8.9,-5.2 19.8,-10.4 35.5,-10.4 17.9,0 25.8,9.2 25.8,24.6 v 7.9 c -3.5,-0.7 -10.7,-1.2 -15.1,-1.2 -38.2,0 -57.6,13.4 -57.6,41.4 0,25.1 15.4,37.7 38.7,37.7 15.7,0 30.8,-7.2 36,-18.9 l 4,15.9 h 15.4 v -83.2 c -0.1,-26.3 -11.5,-43.9 -44,-43.9 z" />
			</g>
			<g
   id="g28_3_"
   transform="translate(1099.7669,143.12893)">
				<path
   id="path30_3_"
   class="st6"
   d="m -17.7,201.192 c -8.2,0 -15.4,-1 -20.8,-3.5 v -67.3 -7.8 c 7.4,-6.2 16.6,-10.7 28.3,-10.7 21.1,0 29.2,14.9 29.2,39 0,34.2 -13.1,50.3 -36.7,50.3 m 9.2,-110.6 c -19.5,0 -30,13.3 -30,13.3 v -21 l -0.1,-27.8 h -9.8 -11.5 l 0.1,158.5 c 10.7,4.5 25.3,6.9 41.2,6.9 40.7,0 60.3,-26 60.3,-70.9 -0.1,-35.5 -18.2,-59 -50.2,-59" />
			</g>
			<g
   id="g32_5_"
   transform="translate(584.04212,143.6308)">
				<path
   id="path34_5_"
   class="st6"
   d="m 18.3,72.192 c 19.3,0 31.8,6.4 39.9,12.9 l 9.4,-16.3 c -12.7,-11.2 -29.9,-17.2 -48.3,-17.2 -46.4,0 -78.9,28.3 -78.9,85.4 0,59.8 35.1,83.1 75.2,83.1 20.1,0 37.2,-4.7 48.4,-9.4 l -0.5,-63.9 v -7.5 -12.6 H 4 v 20.1 h 38 l 0.5,48.5 c -5,2.5 -13.6,4.5 -25.3,4.5 -32.2,0 -53.8,-20.3 -53.8,-63 -0.1,-43.5 22.2,-64.6 54.9,-64.6" />
			</g>
			<g
   id="g36_4_"
   transform="translate(793.56904,142.57746)">
				<path
   id="path38_4_"
   class="st6"
   d="M -37.7,55.592 H -59 l 0.1,27.3 v 11.2 6.5 11.4 65 0.2 c 0,26.3 11.4,43.9 43.9,43.9 4.5,0 8.9,-0.4 13.1,-1.2 v -19.1 c -3.1,0.5 -6.4,0.7 -9.9,0.7 -17.9,0 -25.8,-9.2 -25.8,-24.6 v -65 h 35.7 v -17.8 h -35.7 z" />
			</g>
			<path
   id="path40_33_"
   class="st6"
   d="m 680.4,360.692 h 21.3 v -124 h -21.3 z" />
			<path
   id="path42_3_"
   class="st6"
   d="m 680.4,219.592 h 21.3 v -21.3 h -21.3 z" />
		</g>
		<g
   id="g26">
			<path
   id="path50_5_"
   class="st3"
   d="m 292.778,434.892 v 0 L 354.977,243.57 H 230.669 Z" />
			<path
   id="path66_12_"
   class="st4"
   d="m 143.549,243.57 v 0 l -18.941,58.126 c -1.714,5.278 0.137,11.104 4.661,14.394 l 163.509,118.801 z" />
			<path
   id="path74_5_"
   class="st3"
   d="m 143.549,243.57 h 87.12 L 193.175,128.346 c -1.919,-5.895 -10.282,-5.895 -12.27,0 z" />
			<path
   id="path82_12_"
   class="st4"
   d="m 442.097,243.57 v 0 l 18.873,58.126 c 1.714,5.278 -0.137,11.104 -4.661,14.394 L 292.778,434.892 Z" />
			<path
   id="path86_5_"
   class="st3"
   d="m 442.097,243.57 h -87.12 l 37.425,-115.224 c 1.919,-5.895 10.282,-5.895 12.27,0 z" />
			<polygon
   class="st5"
   points="442.097,243.57 292.778,434.892 354.977,243.57 "
   id="polygon22" />
			<polygon
   class="st5"
   points="230.669,243.57 292.778,434.892 143.549,243.57 "
   id="polygon24" />
		</g>
	</g>
</g>
<g
   id="spacing_guides"
   class="st14"
   transform="translate(-123.97696,-123.92475)">
	<path
   id="path40_32_"
   sketch:type="MSShapeGroup"
   class="st15"
   d="M -1,0 V 124 H 1267 V 0 Z" />
	<path
   id="path40_31_"
   sketch:type="MSShapeGroup"
   class="st15"
   d="M -1,435 V 559 H 1267 V 435 Z" />
	<path
   id="path40_30_"
   sketch:type="MSShapeGroup"
   class="st15"
   d="m 261.69,434.551 h 62 v -310 h -62 z" />
	<path
   id="path40_29_"
   sketch:type="MSShapeGroup"
   class="st15"
   d="m 462.2,560 h 62 V -1 h -62 z" />
	<text
   transform="translate(256.2529,195)"
   class="st16 st18 st19"
   id="text35">H: 2.5 x</text>
	<text
   transform="translate(468.4727,282.832)"
   class="st16 st18 st19"
   id="text37">1/2 x</text>
	<text
   transform="translate(621.2881,500.4978)"
   class="st16 st18 st19"
   id="text39">1x</text>
	<text
   transform="translate(621.2881,65.4988)"
   class="st16 st18 st19"
   id="text41">1x</text>
	<path
   id="path40_27_"
   sketch:type="MSShapeGroup"
   class="st15"
   d="M 0,560 H 124 V -1 H 0 Z" />
	<text
   transform="translate(51.2881,282.832)"
   class="st16 st18 st19"
   id="text44">1x</text>
	<path
   id="path40_3_"
   sketch:type="MSShapeGroup"
   class="st15"
   d="m 1142,560 h 124 V -1 h -124 z" />
	<text
   transform="translate(1191.2881,282.832)"
   class="st16 st18 st19"
   id="text47">1x</text>
</g>
</svg>
