<?xml version="1.0" encoding="UTF-8" standalone="no"?>
<!-- Created with Inkscape (http://www.inkscape.org/) -->

<svg
   xmlns:dc="http://purl.org/dc/elements/1.1/"
   xmlns:cc="http://creativecommons.org/ns#"
   xmlns:rdf="http://www.w3.org/1999/02/22-rdf-syntax-ns#"
   xmlns:svg="http://www.w3.org/2000/svg"
   xmlns="http://www.w3.org/2000/svg"
   xmlns:sodipodi="http://sodipodi.sourceforge.net/DTD/sodipodi-0.dtd"
   xmlns:inkscape="http://www.inkscape.org/namespaces/inkscape"
   width="1079.1716"
   height="182.6591"
   id="svg2"
   version="1.1"
   inkscape:version="0.48.4 r9939"
   sodipodi:docname="OneDrive logo.svg">
  <title
     id="title5158">OneDrive logo</title>
  <defs
     id="defs4" />
  <sodipodi:namedview
     id="base"
     pagecolor="#ffffff"
     bordercolor="#666666"
     borderopacity="1.0"
     inkscape:pageopacity="0.0"
     inkscape:pageshadow="2"
     inkscape:zoom="1.4"
     inkscape:cx="642.24502"
     inkscape:cy="85.011584"
     inkscape:document-units="px"
     inkscape:current-layer="g3986"
     showgrid="false"
     inkscape:window-width="1440"
     inkscape:window-height="837"
     inkscape:window-x="-8"
     inkscape:window-y="-8"
     inkscape:window-maximized="1"
     fit-margin-top="1"
     fit-margin-left="1"
     fit-margin-right="1"
     fit-margin-bottom="1" />
  <metadata
     id="metadata7">
    <rdf:RDF>
      <cc:Work
         rdf:about="">
        <dc:format>image/svg+xml</dc:format>
        <dc:type
           rdf:resource="http://purl.org/dc/dcmitype/StillImage" />
        <dc:title>OneDrive logo</dc:title>
      </cc:Work>
    </rdf:RDF>
  </metadata>
  <g
     inkscape:label="Layer 1"
     inkscape:groupmode="layer"
     id="layer1"
     transform="translate(296.64282,-173.95523)">
    <g
       id="g3986"
       transform="translate(222.85714,-11.428576)">
      <path
         inkscape:connector-curvature="0"
         style="fill:#094ab1;fill-opacity:1"
         d="m -419.49993,365.93502 c -18.47931,-4.6173 -28.77445,-19.30626 -28.80701,-41.10136 -0.0104,-6.9681 0.49376,-10.3069 2.2331,-14.78872 4.26362,-10.98614 15.55175,-19.27443 30.40561,-22.32524 7.3912,-1.51808 9.6683,-3.14802 9.6683,-6.92063 0,-1.18378 0.8797,-4.70915 1.9548,-7.83417 4.8844,-14.19664 13.9278,-26.03145 23.5912,-30.87276 10.1136,-5.06692 15.2197,-6.20959 27.454,-6.1439 17.3752,0.0933 26.0437,3.86233 38.1679,16.59515 l 6.6679,7.00266 5.9735,-2.06722 c 28.9108,-10.0052 57.732,7.02633 60.0552,35.48894 l 0.6355,7.78629 5.6932,2.0398 c 16.2589,5.82539 23.9011,18.05787 22.5157,36.0398 -0.906,11.75948 -6.4042,21.14812 -15.1143,25.80891 l -4.0947,2.19109 -90.9999,0.17534 c -69.9288,0.13474 -92.1578,-0.11394 -96,-1.07398 z"
         id="path4256" />
      <path
         inkscape:connector-curvature="0"
         style="fill:#094ab1;fill-opacity:1"
         d="m -487.71853,353.36403 c -10.78803,-2.56384 -22.21903,-12.09222 -27.5793,-22.9889 -3.04063,-6.18117 -3.20213,-7.09029 -3.20213,-18.02547 0,-10.40101 0.25949,-12.06963 2.68006,-17.23407 5.1028,-10.88715 14.87971,-18.75377 27.14681,-21.84266 2.58892,-0.6519 5.02163,-1.69242 5.40602,-2.31227 0.38439,-0.61986 0.81139,-3.99652 0.94887,-7.5037 0.8539,-21.78191 15.14556,-40.97432 35.10144,-47.13807 10.78127,-3.32999 24.32593,-2.51086 36.05253,2.18033 3.7192,1.48788 3.3004,1.80688 11.1643,-8.50453 4.6506,-6.09809 14.0477,-13.68221 21.7397,-17.54555 8.3016,-4.16947 16.9354,-6.0904 27.2603,-6.06509 28.8573,0.0708 53.7275,18.12068 62.924,45.66805 2.9383,8.80156 2.7918,11.26655 -0.674,11.3392 -1.5125,0.0317 -5.8462,0.86464 -9.6305,1.85097 l -6.8805,1.79333 -6.2783,-6.27821 c -17.7018,-17.70181 -46.5914,-21.52795 -71.1505,-9.42317 -9.8115,4.83593 -17.6958,11.77857 -23.6512,20.82628 -4.2457,6.45035 -9.659,18.48366 -9.659,21.47126 0,2.11952 -1.7162,3.17862 -9.0456,5.58229 -22.69211,7.44184 -35.93693,24.62822 -35.92778,46.61961 0.003,8.00419 2.06453,17.79824 4.92624,23.40766 1.07878,2.11458 1.6807,4.12542 1.3376,4.46852 -0.87745,0.87745 -29.10623,0.58172 -33.00906,-0.34581 z"
         id="path4248" />
      <g
         style="font-size:179.96925354px;font-style:normal;font-variant:normal;font-weight:300;font-stretch:normal;text-align:start;line-height:100%;letter-spacing:0px;word-spacing:0px;writing-mode:lr-tb;text-anchor:start;fill:#3266bb;fill-opacity:1;stroke:none;font-family:Segoe UI Light;-inkscape-font-specification:'Segoe UI Light, Light'"
         id="text4313" />
      <g
         style="font-size:180px;font-style:normal;font-variant:normal;font-weight:normal;font-stretch:normal;line-height:125%;letter-spacing:0px;word-spacing:0px;fill:#094ab1;fill-opacity:1;stroke:none;font-family:Segoe UI;-inkscape-font-specification:Segoe UI"
         id="text3027">
        <path
           d="m -111.31859,348.11145 c -17.87114,0 -32.18265,-5.88867 -42.93457,-17.66602 -10.75197,-11.77731 -16.12794,-27.09956 -16.12793,-45.96679 -1e-5,-20.27336 5.4785,-36.44522 16.43555,-48.51563 10.95699,-12.07019 25.86909,-18.10534 44.73633,-18.10547 17.402254,1.3e-4 31.420794,5.8595 42.055661,17.57813 10.634643,11.71885 15.952021,27.0411 15.952148,45.9668 -1.27e-4,20.56645 -5.44934,36.8262 -16.347656,48.77929 -10.898538,11.95313 -25.488367,17.92969 -43.769533,17.92969 z m 1.05469,-116.89453 c -13.24224,1.1e-4 -23.99419,4.7755 -32.25586,14.32617 -8.26175,9.55087 -12.3926,22.08992 -12.39258,37.61719 -2e-5,15.52739 4.02829,28.02249 12.08496,37.48535 8.0566,9.46291 18.55952,14.19435 31.50879,14.19434 13.828046,1e-5 24.726472,-4.51171 32.695314,-13.53516 7.968642,-9.0234 11.953013,-21.65034 11.953125,-37.88086 -1.12e-4,-16.64055 -3.867295,-29.50186 -11.601562,-38.58398 -7.734468,-9.08193 -18.39852,-13.62294 -31.992187,-13.62305 z"
           style="font-family:Segoe UI;-inkscape-font-specification:Segoe UI"
           id="path3010" />
        <path
           d="m 46.357193,346.00208 -14.414063,0 0,-51.32813 c -7.4e-5,-19.10149 -6.972724,-28.65226 -20.917968,-28.65234 -7.2070783,8e-5 -13.1689864,2.71003 -17.8857424,8.12988 -4.7168286,5.41999 -7.0752246,12.2608 -7.0751956,20.52246 l 0,51.32813 -14.414062,0 0,-90 14.414062,0 0,14.9414 0.351563,0 c 6.7968386,-11.3671 16.6405787,-17.05069 29.53125,-17.05078 9.843681,9e-5 17.37297,3.1788 22.58789,9.53613 5.214757,6.3575 7.822177,15.54206 7.822266,27.55371 z"
           style="font-family:Segoe UI;-inkscape-font-specification:Segoe UI"
           id="path3012" />
        <path
           d="m 145.93727,304.60559 -63.544921,0 c 0.234352,10.01956 2.929661,17.75393 8.085938,23.20313 5.156213,5.44923 12.246053,8.17383 21.269533,8.17382 10.13665,1e-5 19.45305,-3.33983 27.94922,-10.01953 l 0,13.53516 c -7.91023,5.74219 -18.36921,8.61328 -31.37696,8.61328 -12.714877,0 -22.705101,-4.08691 -29.9707,-12.26074 -7.265637,-8.17381 -10.898445,-19.67282 -10.898437,-34.49707 -8e-6,-14.00385 3.969714,-25.41497 11.90918,-34.2334 7.939425,-8.81827 17.797813,-13.22745 29.575197,-13.22754 11.77728,9e-5 20.8886,3.80868 27.33398,11.42578 6.44523,7.61726 9.66788,18.19342 9.66797,31.72852 z m -14.76562,-12.2168 c -0.0587,-8.32025 -2.0655,-14.79485 -6.02051,-19.42382 -3.95514,-4.62883 -9.4483,-6.94328 -16.47949,-6.94336 -6.79692,8e-5 -12.5684,2.43171 -17.314457,7.29492 -4.746121,4.86335 -7.675806,11.22076 -8.789063,19.07226 z"
           style="font-family:Segoe UI;-inkscape-font-specification:Segoe UI"
           id="path3014" />
        <path
           d="m 169.75563,346.00208 0,-126.03516 34.80469,0 c 44.41396,1.2e-4 66.62097,20.47862 66.62109,61.43555 -1.2e-4,19.45317 -6.1671,35.08303 -18.50097,46.88964 -12.33408,11.80665 -28.84285,17.70997 -49.52637,17.70997 z m 14.76563,-112.67579 0,99.31641 18.80859,0 c 16.52337,1e-5 29.38469,-4.42381 38.58398,-13.27148 9.19912,-8.84762 13.79873,-21.38667 13.79883,-37.61719 -1e-4,-32.28506 -17.16805,-48.42762 -51.5039,-48.42774 z"
           style="font-family:Segoe UI;-inkscape-font-specification:Segoe UI"
           id="path3016" />
        <path
           d="m 340.96657,270.59192 c -2.51959,-1.93352 -6.1524,-2.90031 -10.89844,-2.90039 -6.15239,8e-5 -11.29398,2.90046 -15.4248,8.70117 -4.13089,5.80085 -6.19632,13.71099 -6.19629,23.73047 l 0,45.87891 -14.41407,0 0,-90 14.41407,0 0,18.54492 0.35156,0 c 2.05075,-6.32805 5.18551,-11.26457 9.4043,-14.80957 4.2187,-3.54484 8.9355,-5.31729 14.15039,-5.31739 3.74994,1e-4 6.62103,0.41025 8.61328,1.23047 z"
           style="font-family:Segoe UI;-inkscape-font-specification:Segoe UI"
           id="path3018" />
        <path
           d="m 363.99391,233.15051 c -2.57814,1.2e-4 -4.77541,-0.87879 -6.5918,-2.63672 -1.81641,-1.75769 -2.72462,-3.98425 -2.7246,-6.67968 -2e-5,-2.69519 0.90819,-4.9364 2.7246,-6.72364 1.81639,-1.78698 4.01366,-2.68053 6.5918,-2.68066 2.6367,1.3e-4 4.8779,0.89368 6.72363,2.68066 1.84568,1.78724 2.76853,4.02845 2.76856,6.72364 -3e-5,2.57824 -0.92288,4.7755 -2.76856,6.59179 -1.84573,1.81652 -4.08693,2.72473 -6.72363,2.72461 z m 7.03125,112.85157 -14.41406,0 0,-90 14.41406,0 z"
           style="font-family:Segoe UI;-inkscape-font-specification:Segoe UI"
           id="path3020" />
        <path
           d="m 470.9568,256.00208 -35.85937,90 -14.15039,0 -34.10157,-90 15.82032,0 22.85156,65.39062 c 1.69918,4.80471 2.75386,8.99416 3.16406,12.56836 l 0.35156,0 c 0.5859,-4.5117 1.5234,-8.58396 2.8125,-12.2168 l 23.90625,-65.74218 z"
           style="font-family:Segoe UI;-inkscape-font-specification:Segoe UI"
           id="path3022" />
        <path
           d="m 558.67165,304.60559 -63.54493,0 c 0.23436,10.01956 2.92967,17.75393 8.08594,23.20313 5.15622,5.44923 12.24605,8.17383 21.26953,8.17382 10.13666,1e-5 19.45306,-3.33983 27.94922,-10.01953 l 0,13.53516 c -7.91023,5.74219 -18.3692,8.61328 -31.37695,8.61328 -12.71488,0 -22.70511,-4.08691 -29.9707,-12.26074 -7.26564,-8.17381 -10.89845,-19.67282 -10.89844,-34.49707 -10e-6,-14.00385 3.96971,-25.41497 11.90918,-34.2334 7.93942,-8.81827 17.79781,-13.22745 29.57519,-13.22754 11.77729,9e-5 20.8886,3.80868 27.33399,11.42578 6.44523,7.61726 9.66788,18.19342 9.66797,31.72852 z m -14.76563,-12.2168 c -0.0587,-8.32025 -2.0655,-14.79485 -6.02051,-19.42382 -3.95514,-4.62883 -9.4483,-6.94328 -16.47949,-6.94336 -6.79692,8e-5 -12.5684,2.43171 -17.31445,7.29492 -4.74612,4.86335 -7.67581,11.22076 -8.78906,19.07226 z"
           style="font-family:Segoe UI;-inkscape-font-specification:Segoe UI"
           id="path3024" />
      </g>
    </g>
  </g>
</svg>
